<svg width="668" height="646" viewBox="0 0 668 646" fill="none" xmlns="http://www.w3.org/2000/svg">
<path d="M47.995 241.921L50.3518 240.707C67.0833 250.435 72.1021 264.003 76.955 277.124C77.527 278.67 78.1032 280.208 78.6836 281.735C83.3483 293.888 92.439 310.835 117.337 317.66C132.938 321.936 150.33 321.22 168.748 320.461C180.461 319.977 192.589 319.483 204.224 320.39C243.902 323.496 274.964 344.531 272.176 366.353L268.941 366.229C271.556 345.677 241.135 325.062 203.802 322.154C192.516 321.273 180.578 321.766 169.026 322.236C150.98 322.979 132.319 323.747 115.92 319.251C89.7316 312.074 80.3205 294.612 75.5143 282.102C74.9141 280.583 74.3361 279.04 73.7801 277.473C69.0181 264.596 64.0946 251.278 47.995 241.921Z" fill="#FCAF16"/>
<path d="M157.511 67.8149C179.586 77.823 215.387 77.0907 236.043 66.2157C271.215 47.7035 261.547 1.29308 201.551 8.20095C152.43 13.8608 107.127 44.9717 157.511 67.8149Z" fill="#3082AD"/>
<path d="M263 147C200.767 173.822 187 303 187 303C187 303 197.636 339.254 197 363C195.368 423.925 125 425 117 497C109 569 189 603 197 603C197 603 269.809 619.891 311 603C345.331 588.922 349.255 556.432 383 541C433.431 517.938 487.312 581.68 525 541C563.399 499.553 536.254 447.543 511 397C497.313 369.608 467.862 365.232 463 335C456.784 296.351 531 289 511 247C491 205 457.102 202.081 417 183C361.229 156.463 319.719 122.555 263 147Z" fill="#FFE9BB"/>
<path d="M295.333 302.429C273.961 305.479 251.349 306.013 229.046 303.994C206.743 301.975 185.278 297.45 166.121 290.729C147.082 283.908 130.847 275.066 118.529 264.809C106.212 254.552 98.1025 243.123 94.7582 231.306L98.0242 231.147C101.29 242.713 109.222 253.9 121.275 263.94C133.327 273.98 149.216 282.635 167.85 289.312C186.6 295.887 207.61 300.314 229.438 302.288C251.266 304.262 273.396 303.736 294.311 300.747L295.333 302.429Z" fill="#00669A"/>
<path d="M488.807 160.109L487.085 159.448C506.115 146.058 525.792 132.214 538.294 116.626C552.215 99.2688 554.475 82.162 544.71 68.4704C534.093 53.6117 510.706 44.0779 492.963 38.6969C469.627 31.6051 442.936 27.4653 419.364 23.7942L420.081 22.6828C443.759 26.3712 470.666 30.5613 494.122 37.6888C512.158 43.1576 535.926 52.8601 546.76 68.0159C556.748 81.9922 554.467 99.387 540.308 117.037C527.686 132.752 507.922 146.66 488.807 160.109Z" fill="#00669A"/>
<path d="M521.156 302.266L518.823 301.038C575.78 268.607 607.544 222.464 603.817 177.555L607.049 177.475C610.827 222.841 578.748 269.512 521.156 302.266Z" fill="white"/>
<path d="M193.195 280.133C199.727 278.698 198.514 289.301 198.076 292.141C200.241 293.329 202.136 294.607 203.775 295.895C202.993 292.486 200.336 290.532 200.472 288.242C200.625 285.673 202.398 283.105 205.263 286.743C207.531 289.627 205.395 294.504 204.411 296.404C207.207 298.696 209.22 300.976 210.578 302.773C210.221 298.709 207.395 296.083 207.82 293.498C208.285 290.668 210.522 288.077 213.234 292.537C215.476 296.225 212.221 301.617 211.024 303.377C212.227 305.051 212.799 306.187 212.859 306.308C214.023 308.598 215.026 310.868 215.889 313.102C215.653 309.513 213.68 306.762 214.353 304.468C215.162 301.714 217.68 299.477 219.785 304.362C221.451 308.227 217.979 312.857 216.456 314.623C218.157 319.335 219.24 323.872 219.899 328.097C220.768 324.841 219.903 319.615 221.626 316.903C222.758 315.122 224.118 315.075 225.067 315.353C225.878 315.59 226.512 316.231 226.822 317.103C228.572 322.021 222.048 327.376 220.021 328.893C220.772 334.106 220.877 338.818 220.689 342.759C221.152 341.077 221.839 338.538 222.145 337.202C222.625 335.097 224.244 332.48 226.004 331.808C226.079 331.779 226.151 331.754 226.221 331.733C227.581 331.319 228.914 332.148 229.422 333.566C231.404 339.106 222.539 343.392 220.603 344.253C220.601 344.28 220.599 344.309 220.597 344.336C219.903 354.256 217.453 360.566 217.35 360.83L216.506 360.459C216.53 360.397 218.857 354.388 219.612 345.119C211.818 341.246 211.315 335.11 213.067 333.506C214.877 331.847 218.285 332.203 218.469 336.571C218.574 339.104 219.212 341.701 219.73 343.437C219.957 339.471 219.889 334.652 219.127 329.289C207.585 328.402 209.172 320.378 211.926 319.339C214.712 318.286 216.109 320.017 216.885 323.54C217.401 325.882 218.407 327.656 219.024 328.588C218.392 324.441 217.342 319.98 215.69 315.347C213.858 316.565 208.986 319.327 206.109 316.472C202.514 312.904 205.042 310.682 207.575 310.484C209.903 310.303 211.886 313.832 215.447 314.675C214.506 312.115 213.383 309.505 212.041 306.867C212.021 306.824 210.875 304.542 208.26 301.563C206.545 303.035 202.014 306.401 198.832 304.014C194.836 301.015 197.114 298.469 199.624 297.915C201.864 297.42 204.171 300.409 207.647 300.881C205.372 298.416 202.132 295.58 197.754 293.158C195.965 294.671 191.548 297.861 188.429 295.52C184.433 292.521 186.712 289.975 189.222 289.421C191.492 288.918 193.833 292.001 197.391 292.405L197.438 292.304C196.472 291.333 194.419 289.28 193.387 288.357C192.01 287.126 190.838 284.61 191.248 282.662C191.659 280.714 193.195 280.133 193.195 280.133Z" fill="#2D3A6E"/>
<path d="M182.747 331.329L169.717 326.343C168.154 316.451 167.413 308.077 167.413 308.077C183.465 310.029 195.461 315.955 204.427 323.723L205.114 339.727L210.235 329.449C231.003 352.706 230.951 386.007 230.951 386.007C230.951 386.007 187.087 364.641 179.046 356.647C175.942 353.562 173.5 345.616 171.673 337.027C176.373 334.967 182.747 331.329 182.747 331.329Z" fill="#13AFFF"/>
<path d="M167.413 308.077C167.413 308.077 217.057 353.896 230.947 386.007C230.947 386.007 187.083 364.641 179.042 356.647C175.937 353.562 173.496 345.616 171.669 337.027C176.373 334.967 182.747 331.329 182.747 331.329L169.717 326.343C168.152 316.453 167.413 308.077 167.413 308.077Z" fill="#13AFFF"/>
<path d="M158.711 322.301C162.725 319.076 165.526 326.803 166.201 328.912C168.102 328.99 169.846 329.223 171.419 329.551C169.71 327.467 167.206 327.028 166.513 325.401C165.737 323.577 166.077 321.199 169.303 322.728C171.858 323.94 172.059 328.036 172.032 329.685C174.748 330.307 176.919 331.191 178.472 331.966C176.831 329.285 173.98 328.442 173.386 326.512C172.736 324.402 173.388 321.848 176.789 323.996C179.601 325.77 179.208 330.606 178.985 332.23C180.391 332.972 181.175 333.56 181.258 333.624C182.847 334.805 184.317 336.027 185.681 337.272C184.288 334.877 181.98 333.655 181.658 331.843C181.27 329.668 182.24 327.263 185.369 329.909C187.844 332.004 187.041 336.386 186.597 338.127C189.388 340.795 191.694 343.553 193.597 346.242C193.078 343.699 190.686 340.391 190.944 337.93C191.114 336.316 192.036 335.815 192.785 335.683C193.425 335.569 194.084 335.794 194.596 336.289C197.491 339.082 194.831 345.01 193.952 346.75C196.259 350.087 197.95 353.302 199.173 356.085C198.915 354.768 198.517 352.779 198.269 351.754C197.879 350.138 198.096 347.778 199.081 346.71C199.122 346.665 199.163 346.624 199.204 346.585C200.001 345.834 201.204 345.948 202.04 346.752C205.31 349.895 200.666 355.887 199.628 357.142C199.636 357.161 199.644 357.181 199.652 357.202C202.579 364.282 203.056 369.473 203.076 369.689L202.366 369.722C202.362 369.672 201.904 364.732 199.242 358.078C192.538 358.076 190.084 354.015 190.74 352.309C191.419 350.544 193.892 349.623 195.516 352.573C196.459 354.283 197.791 355.856 198.742 356.876C197.537 354.065 195.836 350.763 193.469 347.325C185.204 350.666 183.545 344.587 185.087 342.928C186.647 341.248 188.205 341.963 189.949 344.128C191.109 345.564 192.412 346.447 193.157 346.877C191.297 344.233 189.041 341.516 186.313 338.886C185.466 340.354 183.056 343.926 180.092 342.942C176.387 341.712 177.369 339.315 179.047 338.311C180.591 337.39 183.171 339.144 185.914 338.507C184.387 337.064 182.715 335.648 180.886 334.287C180.857 334.265 179.283 333.084 176.457 331.923C175.78 333.525 173.809 337.4 170.795 336.841C167.01 336.14 167.708 333.605 169.247 332.362C170.622 331.253 173.241 332.525 175.799 331.661C173.384 330.74 170.174 329.893 166.325 329.722C165.611 331.379 163.658 335.091 160.705 334.545C156.919 333.844 157.617 331.309 159.157 330.066C160.55 328.943 163.223 330.266 165.817 329.328L165.815 329.244C164.816 328.903 162.694 328.192 161.666 327.908C160.294 327.531 158.622 326.197 158.238 324.713C157.852 323.227 158.711 322.301 158.711 322.301Z" fill="#FBAE17"/>
<path d="M155.002 348.1C164.631 346.158 173.518 346.471 181.59 348.236C182.831 351.855 184.406 356.153 184.406 356.153L187.083 349.689C217.116 359.038 234.423 387.669 234.423 387.669C213.401 392.247 197.727 389.932 186.117 384.643C186.243 382.087 186.484 378.296 186.484 378.296L182.455 382.811C177.048 379.84 172.637 376.225 169.062 372.461C171.173 370.128 173.489 367.426 173.489 367.426L165.809 368.732C157.506 358.354 155.002 348.1 155.002 348.1Z" fill="#55769F"/>
<path d="M186.117 384.643C186.243 382.087 186.484 378.297 186.484 378.297L182.455 382.811C177.048 379.84 172.637 376.225 169.062 372.461C171.174 370.128 173.489 367.426 173.489 367.426L165.809 368.732C157.504 358.354 155 348.1 155 348.1C190.866 356.588 234.421 387.669 234.421 387.669C213.401 392.247 197.725 389.932 186.117 384.643Z" fill="#2D3A6E"/>
<path d="M568.656 365.779L581.06 359.336C581.49 349.314 581.272 340.89 581.272 340.89C565.516 344.656 558.355 347.845 550.313 356.597L548.898 369.942L543.545 362.229C525.519 387.738 526.894 425.68 526.894 425.68C526.894 425.68 568.124 399.432 575.22 390.56C577.96 387.136 579.485 378.95 580.326 370.192C575.414 368.678 568.656 365.779 568.656 365.779Z" fill="#13AFFF"/>
<path d="M581.272 340.893C581.272 340.893 537.073 392.137 526.897 425.68C526.897 425.68 568.128 399.432 575.224 390.56C577.963 387.136 579.488 378.95 580.329 370.192C575.415 368.678 568.653 365.779 568.653 365.779L581.057 359.336C581.487 349.314 581.272 340.893 581.272 340.893Z" fill="#13AFFF"/>
<path d="M598.183 379.323C588.377 378.482 579.565 379.803 571.729 382.476C570.909 386.218 569.829 390.677 569.829 390.677L566.43 384.547C537.598 397.265 523.627 427.73 523.627 427.73C545.073 429.899 560.414 425.817 571.368 419.234C570.951 416.704 570.279 412.958 570.279 412.958L574.803 416.993C579.849 413.423 583.827 409.322 586.957 405.171C584.588 403.088 581.977 400.66 581.977 400.66L589.771 401.089C596.858 389.815 598.183 379.323 598.183 379.323Z" fill="#FBB428"/>
<path d="M571.368 419.231C570.951 416.701 570.279 412.955 570.279 412.955L574.803 416.99C579.849 413.42 583.827 409.319 586.957 405.168C584.588 403.085 581.977 400.657 581.977 400.657L589.771 401.086C596.858 389.812 598.183 379.32 598.183 379.32C563.446 391.842 523.627 427.727 523.627 427.727C545.073 429.899 560.414 425.817 571.368 419.231Z" fill="url(#paint0_linear_463_78)"/>
<path d="M363.933 635.316L146.244 560.439L318.658 467.113L541.325 545.222L373.932 634.521C370.864 636.163 367.233 636.452 363.933 635.316Z" fill="#0084C8"/>
<path d="M163.174 479.357C163.174 479.357 195.919 516.514 158.048 557.167L363.148 632.787C368.216 634.657 373.931 633.495 377.821 629.798L385.257 622.734C385.257 622.734 411.097 553.233 411.097 551.482C411.097 549.732 359.417 508.645 359.417 508.645C359.417 508.645 274.323 498.592 272.097 498.592C269.876 498.592 163.174 479.357 163.174 479.357Z" fill="#F8F8F8"/>
<path d="M386.158 610.056C384.822 610.056 233.791 561.1 233.791 561.1C233.791 561.1 384.374 614.812 384.822 613.5C385.264 612.189 386.158 610.056 386.158 610.056Z" fill="#13AFFF"/>
<path d="M151.592 477.389V481.979L368.113 554.76C368.113 554.76 381.48 571.154 380.144 593.445C378.807 615.736 373.886 633.354 366.76 633.597C366.76 633.597 371.26 633.964 373.533 632.58C375.802 631.201 381.091 626.554 381.091 626.554C381.091 626.554 390.059 586.887 390.501 585.901C390.948 584.92 385.822 552.57 382.37 550.164C378.917 547.758 381.812 543.937 365.439 540.983C349.067 538.035 220.092 481.205 216.972 481.974C213.851 482.738 187.121 481.535 185.674 481.974C184.227 482.418 151.592 477.389 151.592 477.389Z" fill="#0084C8"/>
<path d="M371.454 552.794C371.454 552.794 399.02 598.698 371.454 635.524L555.008 537.933C555.008 537.933 576.617 494.44 548.772 467.12L371.454 552.794Z" fill="#0084C8"/>
<path d="M371.455 552.793L151.592 477.389L350.072 411.167L548.773 467.119L371.455 552.793Z" fill="url(#paint1_linear_463_78)"/>
<path d="M336.255 567.654L176.257 513.034C176.315 514.186 176.33 515.353 176.304 516.54L336.255 567.654Z" fill="#13AFFF"/>
<path d="M174.441 529.325C173.999 530.931 173.468 532.558 172.842 534.2L290.254 571.811L174.441 529.325Z" fill="#13AFFF"/>
<path d="M336.426 528.99L558.504 464.29L391.559 383.646L164.313 451.144L326.469 528.308C329.448 529.723 333.063 529.971 336.426 528.99Z" fill="#F8F8F8"/>
<path d="M546.329 394.226C546.329 394.226 511.405 426.333 546.892 461.46L337.355 526.805C332.177 528.421 326.53 527.414 322.857 524.223L315.831 518.12C315.831 518.12 294.064 458.063 294.169 456.555C294.269 455.042 348.36 419.537 348.36 419.537C348.36 419.537 434.043 410.852 436.269 410.852C438.5 410.842 546.329 394.226 546.329 394.226Z" fill="#F8F8F8"/>
<path d="M315.684 507.163C317.021 507.163 470.92 464.858 470.92 464.858C470.92 464.858 317.184 511.268 316.816 510.137C316.452 509.001 315.684 507.163 315.684 507.163Z" fill="#00669A"/>
<path d="M558.027 392.527L557.759 396.493L336.97 459.38C336.97 459.38 322.645 473.543 322.671 492.809C322.703 512.074 326.592 527.291 333.702 527.502C333.702 527.502 329.181 527.817 326.992 526.625C324.803 525.432 319.787 521.42 319.787 521.42C319.787 521.42 313.146 487.144 312.762 486.292C312.372 485.44 319.393 457.49 322.987 455.414C326.582 453.338 323.908 450.034 340.454 447.483C357 444.932 489.306 395.832 492.385 396.493C495.458 397.154 522.262 396.116 523.683 396.493C525.103 396.87 558.027 392.527 558.027 392.527Z" fill="#F8F8F8"/>
<path d="M333.746 457.681C333.746 457.681 303.49 497.348 328.894 529.171L151.065 444.84C151.065 444.84 132.009 407.259 161.454 383.651L333.746 457.681Z" fill="url(#paint2_linear_463_78)"/>
<path d="M333.746 457.681L558.029 392.527L363.433 335.299L161.454 383.651L333.746 457.681Z" fill="url(#paint3_linear_463_78)"/>
<path d="M368.072 470.522L531.275 423.322C531.154 424.313 531.07 425.325 531.023 426.353L368.072 470.522Z" fill="#F8F8F8"/>
<path d="M532.131 437.398C532.479 438.782 532.916 440.192 533.442 441.612L413.825 474.111L532.131 437.398Z" fill="#F8F8F8"/>
<path opacity="0.3" d="M191.341 396.494C191.341 396.494 161.401 427.134 184.805 460.894L198.051 467.121C198.051 467.121 181.021 426.737 206.324 402.927L191.341 396.494Z" fill="#13AFFF"/>
<path d="M387.561 449.961L202.575 388.375L337.26 311.949L526.587 376.194L395.724 449.321C393.329 450.658 390.361 450.891 387.561 449.961Z" fill="#FDDA94"/>
<path d="M210.227 321.869C210.227 321.869 240.056 352.375 212.037 385.69L386.719 447.88C391.034 449.419 395.65 448.469 398.565 445.438L404.138 439.649C404.138 439.649 420.021 382.654 419.885 381.219C419.748 379.783 374.03 346.039 374.03 346.039C374.03 346.039 303.209 337.726 301.378 337.726C299.546 337.726 210.227 321.869 210.227 321.869Z" fill="#F8F8F8"/>
<path d="M403.894 429.251C402.794 429.251 274.688 388.975 274.688 388.975C274.688 388.975 402.799 433.15 403.062 432.076C403.326 431.002 403.894 429.251 403.894 429.251Z" fill="#13AFFF"/>
<path d="M200.539 320.248L200.892 324.012L384.752 383.879C384.752 383.879 397.024 397.335 397.651 415.624C398.277 433.913 395.593 448.356 389.746 448.552C389.746 448.552 393.477 448.857 395.24 447.726C396.998 446.595 400.998 442.79 400.998 442.79C400.998 442.79 405.303 410.254 405.598 409.449C405.887 408.643 399.166 382.102 396.135 380.13C393.109 378.157 395.193 375.018 381.489 372.586C367.785 370.154 257.219 323.439 254.709 324.064C252.199 324.689 230.105 323.682 228.948 324.038C227.79 324.394 200.539 320.248 200.539 320.248Z" fill="#FDDA94"/>
<path d="M387.357 382.267C387.357 382.267 413.602 419.945 393.767 450.131L537.288 370.215C537.288 370.215 551.702 334.555 526.667 312.12L387.357 382.267Z" fill="#FDDA94"/>
<path d="M387.357 382.267L200.539 320.247L358.78 266.071L526.667 312.12L387.357 382.267Z" fill="url(#paint4_linear_463_78)"/>
<path d="M359.538 394.433L223.611 349.505C223.748 350.45 223.848 351.405 223.922 352.381L359.538 394.433Z" fill="#13AFFF"/>
<path d="M223.375 362.863C223.133 364.179 222.822 365.511 222.438 366.859L321.994 397.799L223.375 362.863Z" fill="#13AFFF"/>
<path d="M244.24 370.256C244.24 370.256 233.088 381.352 238.172 396.321C238.172 396.321 241.561 388.56 244.951 386.34C244.951 386.34 244.387 395.764 248.34 399.647C248.34 399.647 251.834 378.76 262.518 376.731L244.24 370.256Z" fill="#FBB428"/>
<path d="M371.449 492.122C371.449 492.122 378.307 499.996 377.738 509.978C377.738 509.978 381.501 504.871 382.448 501.05C382.448 501.05 386.216 502.769 388.479 507.205C388.479 507.205 392.705 496.635 388.332 487.506L371.449 492.122Z" fill="#FBAE17"/>
<path d="M265.577 543.525C265.577 543.525 253.999 558.763 257.956 583.155C257.956 583.155 261.914 573.174 270.95 567.634C270.95 567.634 274.908 583.713 277.166 589.254C277.166 589.254 286.196 556.904 296.938 554.229L265.577 543.525Z" fill="#13AFFF"/>
<path d="M280.901 111.15C280.901 111.15 272.011 110.319 266.123 114.488C260.235 118.654 253.358 125.695 238.424 121.317C238.424 121.317 245.484 129.649 254.87 130.549C264.257 131.45 261.723 124.032 283.081 128.404L282.032 119.532L280.901 111.15Z" fill="url(#paint5_linear_463_78)"/>
<path d="M329.546 250.329L330.871 335.995L333.094 342.178L339.787 335.998L346.179 248.145L329.546 250.329Z" fill="#FFF6F1"/>
<path d="M369.49 253.25L352.752 253.24C352.752 253.24 360.587 335.496 360.53 336.007C360.473 336.517 363.351 340.215 363.351 340.215L369.446 336.013L369.49 253.25Z" fill="#FFF6F1"/>
<path d="M329.546 250.329L330.871 335.995L333.094 342.178L339.787 335.998L346.179 248.145L329.546 250.329Z" fill="#FFF6F1"/>
<path d="M369.49 253.25L352.752 253.24C352.752 253.24 360.587 335.496 360.53 336.007C360.473 336.517 363.351 340.215 363.351 340.215L369.446 336.013L369.49 253.25Z" fill="#FFF6F1"/>
<path d="M330.519 313.19L330.873 335.995L333.096 342.179L339.789 336.002L341.464 312.987C336.334 314.929 332.528 314.035 330.519 313.19Z" fill="#FBF9EB"/>
<path d="M358.43 313.187C359.635 326.009 360.546 335.835 360.526 336.008C360.469 336.519 363.347 340.217 363.347 340.217L369.442 336.015L369.455 313.292C364.702 314.703 360.71 313.937 358.43 313.187Z" fill="#FBF9EB"/>
<path d="M327.061 254.532C331.818 256.402 339.202 258.279 347.36 256.572L348.495 244.53C349.349 245.263 349.857 245.61 349.857 245.61L350.945 256.183C350.945 256.183 359.985 259.428 371.044 257.43C371.084 252.731 371.094 248.565 371.067 245.234C370.863 221.174 363.286 217.65 363.286 217.65L350.381 214.437L347.547 214.915C343.037 213.458 334.876 211.794 331.511 217.319C326.747 225.144 327.011 249.275 327.011 249.275C327.011 249.275 327.028 251.217 327.061 254.532Z" fill="#13AFFF"/>
<path d="M335.722 193.174L323.622 187.671L324.713 200.248C324.713 200.248 301.804 190.029 300.646 189.001C300.262 188.657 299.821 187.76 299.397 186.708C298.953 185.601 298.656 184.452 298.389 183.296C297.989 181.55 296.466 180.152 295.956 179.696C295.732 179.5 295.091 178.308 294.938 177.764C294.834 177.394 294.277 177.423 294.217 177.803L294.093 178.589C293.973 179.359 294.247 180.158 294.424 180.584L294.106 180.463L293.576 185.752L294.22 190.377L297.845 193.056C297.845 193.056 329.764 215.622 332.685 212.677C335.823 209.51 335.722 193.174 335.722 193.174Z" fill="#FFF6F1"/>
<path d="M339.789 335.997L339.786 342.522C339.786 343.059 339.325 343.498 338.758 343.498L322.688 343.488C321.526 343.488 321.082 342.043 322.064 341.451L330.87 335.994C330.873 335.994 334.618 338.454 339.789 335.997Z" fill="#2D3A6E"/>
<path d="M369.446 336.013L369.442 342.537C369.442 343.078 368.982 343.513 368.414 343.513L352.345 343.507C351.183 343.507 350.739 342.062 351.721 341.47L360.526 336.013C360.526 336.01 364.275 338.466 369.446 336.013Z" fill="#2D3A6E"/>
<path d="M332.984 166.57C332.984 166.57 330.504 167.146 326.916 171.499C323.327 175.851 320.126 187.894 320.126 187.894L331.572 194.035L339.03 179.493L332.984 166.57Z" fill="#FBAE17"/>
<path d="M365.386 236.027C364.177 236.462 362.986 236.934 361.807 237.435C360.629 237.936 359.467 238.467 358.312 239.014C357.157 239.557 356.009 240.121 354.874 240.7C353.739 241.287 352.604 241.87 351.489 242.482L351.399 242.272C352.244 242.096 353.088 241.978 353.94 241.889C354.791 241.804 355.649 241.771 356.503 241.771C357.358 241.768 358.216 241.817 359.064 241.919L359.698 242.001L360.329 242.112L360.642 242.168L360.953 242.24L361.574 242.387L360.946 242.269L360.632 242.21L360.315 242.164L359.684 242.076L359.05 242.017C358.84 241.994 358.626 241.984 358.413 241.974C358.199 241.965 357.989 241.945 357.775 241.942L357.137 241.928C356.924 241.925 356.714 241.932 356.5 241.935C355.649 241.951 354.801 242.01 353.956 242.099C353.112 242.191 352.27 242.315 351.449 242.495L350.688 242.659L351.359 242.285C352.477 241.663 353.602 241.061 354.747 240.491C355.889 239.918 357.044 239.361 358.206 238.824C359.371 238.29 360.552 237.792 361.744 237.31C362.342 237.078 362.942 236.845 363.55 236.636C364.161 236.413 364.775 236.223 365.386 236.027Z" fill="white"/>
<path d="M331.499 235.531C332.11 235.728 332.724 235.918 333.329 236.14C333.936 236.35 334.534 236.583 335.134 236.815C336.323 237.297 337.505 237.798 338.67 238.332C339.831 238.872 340.983 239.429 342.128 240.002C343.273 240.575 344.398 241.178 345.516 241.8L346.187 242.177L345.426 242.01C344.605 241.829 343.76 241.705 342.919 241.613C342.074 241.522 341.227 241.463 340.375 241.446C340.162 241.446 339.951 241.436 339.738 241.44L339.1 241.453C338.887 241.456 338.676 241.476 338.463 241.482C338.249 241.492 338.039 241.502 337.825 241.525L337.187 241.584L336.557 241.672L336.239 241.718L335.926 241.777L335.298 241.895L335.919 241.748L336.229 241.675L336.543 241.62L337.174 241.508L337.808 241.427C338.656 241.325 339.514 241.279 340.369 241.282C341.226 241.282 342.081 241.318 342.932 241.404C343.784 241.492 344.631 241.61 345.473 241.787L345.382 241.996C344.268 241.381 343.133 240.798 342.001 240.211C340.866 239.628 339.721 239.065 338.563 238.521C337.408 237.975 336.246 237.444 335.068 236.94C333.896 236.442 332.708 235.967 331.499 235.531Z" fill="white"/>
<path opacity="0.5" d="M334.083 221.638C335.131 221.819 336.183 221.966 337.238 222.1C338.293 222.235 339.351 222.352 340.409 222.454C342.525 222.657 344.652 222.791 346.778 222.834C347.843 222.857 348.904 222.86 349.969 222.834C351.031 222.804 352.096 222.749 353.154 222.667C354.212 222.575 355.27 222.457 356.318 222.293C357.366 222.126 358.408 221.917 359.436 221.652C358.415 221.936 357.376 222.166 356.328 222.352C355.28 222.529 354.222 222.66 353.16 222.762C352.099 222.86 351.034 222.912 349.969 222.948C348.904 222.978 347.836 222.978 346.771 222.958C344.642 222.903 342.512 222.772 340.396 222.549C339.337 222.438 338.279 222.31 337.228 222.162C336.176 222.005 335.125 221.838 334.083 221.638Z" fill="#13AFFF"/>
<path d="M361.887 144.348C361.887 144.348 364.147 132.872 357.561 128.83C350.972 124.789 344.182 125.499 339.642 128.215C335.103 130.93 331.07 139.553 336.578 147.823L350.151 139.556L361.887 144.348Z" fill="#2D3A6E"/>
<path d="M358.046 225.529C358.089 225.65 358.156 225.762 358.216 225.88L358.4 226.224L358.77 226.908L359.391 228.041L361.16 231.058C361.404 231.516 363.724 235.483 364.275 236.37C363.59 235.568 362.766 234.775 362.212 233.894C361.931 233.452 361.671 233.003 361.404 232.555C361.144 232.103 360.893 231.647 360.643 231.189C360.152 230.272 359.682 229.345 359.241 228.405C359.017 227.937 358.807 227.462 358.6 226.987C358.5 226.748 358.396 226.509 358.303 226.266C358.209 226.021 358.106 225.781 358.046 225.529Z" fill="#EA9734"/>
<path d="M380.6 180.614C375.399 174.45 369.854 168.745 364.86 165.679C360.694 163.118 353.771 162.414 352.126 162.43C348.063 161.929 345.112 161.716 342.929 162.813C336.43 163.697 329.604 167.271 329.513 169.511C329.066 180.696 328.933 189.27 328.993 195.843C328.993 195.863 328.789 219.677 328.963 224.763C328.963 224.763 355.347 230.357 368.846 227.01C368.846 227.01 371.093 195.863 367.895 187.449L369.257 189.155C369.26 189.152 374.691 187.944 380.6 180.614Z" fill="#FCC455"/>
<path d="M379.8 181.584C376.218 185.855 372.256 188.118 370.27 188.832L383.021 203.835L359.665 228.514L363.77 235.539C367.018 233.997 367.753 228.137 367.753 228.137C367.753 228.137 396.651 209.2 396.654 204.667C396.657 198.592 379.8 181.584 379.8 181.584Z" fill="#FFF6F1"/>
<path d="M380.007 181.285C379.806 181.504 379.626 181.74 379.416 181.953L378.798 182.595L378.491 182.919L378.167 183.227L377.52 183.839C377.303 184.039 377.069 184.229 376.846 184.426C376.405 184.825 375.914 185.166 375.454 185.539C374.492 186.243 373.484 186.875 372.433 187.435L372.039 187.642C371.905 187.707 371.768 187.77 371.635 187.832C371.368 187.963 371.094 188.077 370.82 188.192C370.683 188.251 370.543 188.3 370.406 188.356C370.269 188.408 370.129 188.464 369.989 188.51C369.799 188.578 369.602 188.641 369.412 188.696L368.016 187.056L366.431 185.225C365.379 184 364.301 182.798 363.233 181.586C362.151 180.384 361.073 179.182 359.975 177.993C358.877 176.804 357.775 175.619 356.637 174.459C357.605 175.75 358.606 177.014 359.611 178.272C360.616 179.532 361.641 180.777 362.665 182.025C363.7 183.263 364.728 184.507 365.78 185.732L367.349 187.576L368.934 189.407L369.108 189.607L369.358 189.541C369.692 189.456 369.979 189.358 370.279 189.25C370.577 189.145 370.867 189.027 371.151 188.899C371.434 188.772 371.718 188.644 371.992 188.5C372.129 188.431 372.269 188.362 372.406 188.29L372.81 188.064C373.888 187.462 374.889 186.751 375.841 185.988L376.528 185.388C376.762 185.192 376.976 184.979 377.193 184.769C377.406 184.557 377.63 184.35 377.837 184.134L378.441 183.463L378.742 183.129L379.022 182.778L379.579 182.074C379.94 181.599 380.264 181.098 380.601 180.61L380.007 181.285Z" fill="#FBF9EB"/>
<path d="M342.917 163.298C342.917 163.298 348.155 166.348 352.237 163.302L351.279 155.864L343.158 154.216L342.917 163.298Z" fill="#FFF6F1"/>
<g opacity="0.6">
<path opacity="0.6" d="M343.03 159.07L343.16 154.22L351.398 156.739L351.629 158.556C349.799 159.208 346.324 159.994 343.03 159.07Z" fill="#FDDA94"/>
</g>
<path d="M337.293 152.06C336.986 151.448 336.739 150.806 336.552 150.138C336.014 148.343 335.827 146.463 335.797 144.838C335.791 144.488 335.764 144.141 335.727 143.794C335.587 142.389 335.717 140.921 336.188 139.438C337.697 134.663 342.417 131.338 347.661 131.364C354.728 131.4 360.089 137.109 359.541 143.627C360.319 143.289 361.163 143.263 361.874 143.63C363.236 144.337 363.587 146.224 362.659 147.845C361.728 149.466 359.868 150.206 358.506 149.499C358.316 149.401 358.149 149.276 357.999 149.139C356.937 154.638 351.8 158.558 346.075 158.034C343.275 157.779 340.828 156.505 339.065 154.615C338.945 154.503 338.822 154.376 338.691 154.225C338.124 153.564 337.667 152.833 337.293 152.06Z" fill="#FFF6F1"/>
<path d="M348.766 143.797C348.71 144.34 349.13 144.825 349.704 144.877C350.279 144.93 350.789 144.53 350.843 143.987C350.899 143.443 350.479 142.958 349.905 142.906C349.331 142.853 348.823 143.253 348.766 143.797Z" fill="#2D3A6E"/>
<path d="M339.792 143.537C339.735 144.081 340.156 144.565 340.73 144.618C341.304 144.67 341.811 144.271 341.868 143.727C341.925 143.183 341.504 142.698 340.93 142.646C340.356 142.59 339.845 142.99 339.792 143.537Z" fill="#2D3A6E"/>
<path d="M347.708 141.723C348.235 141.573 348.739 141.455 349.237 141.392C349.734 141.327 350.221 141.327 350.695 141.392C351.166 141.464 351.64 141.576 352.087 141.789L352.261 141.857C352.318 141.88 352.371 141.916 352.428 141.943L352.768 142.116C352.999 142.237 353.209 142.388 353.463 142.509C353.333 142.28 353.182 142.054 353.009 141.848C352.812 141.664 352.635 141.445 352.391 141.301C351.941 140.963 351.376 140.76 350.802 140.678C350.225 140.597 349.627 140.662 349.093 140.842C348.562 141.035 348.068 141.317 347.708 141.723Z" fill="#2D3A6E"/>
<path d="M343.511 141.543C343.191 141.107 342.727 140.783 342.216 140.55C341.702 140.321 341.114 140.21 340.53 140.239C339.949 140.272 339.365 140.426 338.888 140.724C338.631 140.845 338.434 141.048 338.22 141.215C338.027 141.405 337.856 141.618 337.706 141.834C337.97 141.736 338.193 141.605 338.434 141.503L338.791 141.359C338.851 141.336 338.904 141.307 338.965 141.287L339.145 141.231C339.612 141.058 340.093 140.986 340.567 140.956C341.044 140.93 341.532 140.976 342.022 141.081C342.513 141.189 343 141.346 343.511 141.543Z" fill="#2D3A6E"/>
<path d="M345.148 141.52C345.305 142.22 345.342 142.934 345.292 143.655C345.265 144.015 345.208 144.375 345.108 144.739C345.002 145.099 344.861 145.466 344.568 145.803L344.441 145.921L344.327 146.023C344.28 146.072 344.214 146.108 344.177 146.164C344.087 146.262 344.023 146.37 343.99 146.488C343.907 146.721 343.99 146.996 344.144 147.248C344.477 147.762 345.135 148.103 345.839 148.329C345.102 148.378 344.257 148.191 343.693 147.562C343.416 147.258 343.232 146.806 343.329 146.347C343.352 146.233 343.386 146.124 343.443 146.023C343.489 145.915 343.559 145.826 343.63 145.738C343.696 145.643 343.786 145.581 343.867 145.505C343.917 145.463 343.927 145.45 343.95 145.424L344.02 145.358C344.204 145.155 344.341 144.857 344.454 144.552C344.578 144.244 344.644 143.91 344.734 143.58C344.891 142.908 345.012 142.22 345.148 141.52Z" fill="#FDDA94"/>
<path d="M341.918 149.704C342.265 150.919 343.794 151.82 345.607 151.787C347.419 151.757 348.915 150.808 349.219 149.583L341.918 149.704Z" fill="white"/>
<path d="M359.241 143.981C359.925 143.355 360.469 143.378 360.469 143.378L360.005 139.71L358.754 137.539C358.754 137.539 353.953 131.748 353.787 131.604C353.62 131.46 350.061 129.665 349.841 129.573C349.621 129.482 344.77 130.389 344.77 130.389C344.77 130.389 336.118 128.994 337.74 133.34C339.363 137.689 345.718 139.759 346.032 139.553C344.974 138.603 344.76 135.806 344.76 135.806C349.387 140.359 357.916 143.506 359.241 143.981Z" fill="#2D3A6E"/>
<path d="M280.862 111.115L308.732 341.516L310.094 341.369L282.228 111L280.862 111.115Z" fill="#8A452B"/>
<path d="M290.952 185.359C290.936 185.104 291.009 184.298 291.046 184.125C291.149 183.643 291.52 183.257 292.014 183.109L292.575 182.942L292.625 184.177C292.578 185.12 292.558 185.055 293.89 185.621C295.789 186.43 294.995 187.406 294.995 187.406C294.995 187.406 294.467 188.101 292.144 186.958C292.141 186.964 291.026 186.388 290.952 185.359Z" fill="#FFF6F1"/>
<path d="M290.758 186.417C290.741 186.175 290.811 185.408 290.848 185.244C290.945 184.786 291.299 184.416 291.769 184.278L292.303 184.121L292.35 185.297C292.307 186.194 292.287 186.132 293.555 186.672C295.364 187.445 294.607 188.372 294.607 188.372C294.607 188.372 294.103 189.034 291.893 187.947C291.89 187.943 290.825 187.396 290.758 186.417Z" fill="#FFF6F1"/>
<path d="M291.047 187.825C291.034 187.622 291.094 186.97 291.124 186.832C291.208 186.446 291.505 186.132 291.902 186.014L292.353 185.879L292.393 186.875C292.356 187.635 292.339 187.582 293.411 188.038C294.94 188.69 294.299 189.476 294.299 189.476C294.299 189.476 293.871 190.036 292.002 189.115C292.005 189.119 291.104 188.653 291.047 187.825Z" fill="#FFF6F1"/>
<path d="M291.368 183.84C291.351 183.585 291.425 182.779 291.461 182.606C291.565 182.124 291.935 181.738 292.426 181.59L292.987 181.423L293.037 182.658C292.99 183.601 292.97 183.536 294.302 184.102C296.201 184.915 295.407 185.887 295.407 185.887C295.407 185.887 294.88 186.582 292.556 185.439C292.556 185.445 291.441 184.872 291.368 183.84Z" fill="#FFF6F1"/>
<path d="M293.037 182.66C293.041 182.866 293.027 183.079 293.067 183.279C293.104 183.482 293.288 183.603 293.481 183.689C293.869 183.872 294.279 184.003 294.68 184.196C294.777 184.252 294.873 184.301 294.97 184.36C295.06 184.425 295.157 184.481 295.237 184.563C295.407 184.707 295.551 184.894 295.628 185.113C295.705 185.333 295.685 185.578 295.591 185.788C295.568 185.84 295.541 185.889 295.504 185.942C295.454 186.007 295.401 186.037 295.347 186.07C295.237 186.132 295.12 186.161 295.004 186.181C294.77 186.214 294.54 186.201 294.316 186.161C294.092 186.125 293.879 186.066 293.668 186.001C293.248 185.86 292.85 185.69 292.46 185.477C292.086 185.241 291.759 184.933 291.549 184.553C291.448 184.363 291.382 184.154 291.362 183.944C291.345 183.839 291.362 183.734 291.368 183.63L291.395 183.318L291.402 183.63C291.405 183.731 291.395 183.836 291.422 183.937C291.458 184.137 291.535 184.33 291.645 184.504C291.862 184.851 292.19 185.136 292.55 185.343C292.931 185.519 293.328 185.696 293.735 185.824C294.139 185.945 294.573 186.04 294.974 185.981C295.07 185.965 295.167 185.942 295.247 185.899C295.284 185.88 295.327 185.85 295.341 185.831C295.367 185.798 295.391 185.755 295.411 185.713C295.488 185.542 295.511 185.349 295.451 185.172C295.394 184.995 295.274 184.828 295.12 184.697C295.05 184.622 294.957 184.573 294.88 184.507C294.793 184.448 294.703 184.396 294.613 184.34C294.242 184.141 293.832 183.987 293.445 183.78C293.348 183.728 293.251 183.669 293.171 183.587C293.087 183.508 293.037 183.4 293.024 183.292C292.987 183.076 293.021 182.87 293.037 182.66Z" fill="#FDDA94"/>
<path d="M294.7 186.09C294.964 186.28 295.198 186.562 295.214 186.906C295.218 187.076 295.174 187.246 295.087 187.394C295.071 187.43 295.034 187.475 294.994 187.505C294.957 187.534 294.917 187.561 294.877 187.58C294.797 187.623 294.71 187.649 294.62 187.669C294.27 187.741 293.916 187.692 293.585 187.616C293.255 187.534 292.931 187.423 292.621 187.292C292.464 187.23 292.314 187.151 292.163 187.082C292.003 187.01 291.863 186.909 291.729 186.807C291.466 186.594 291.229 186.342 291.078 186.041C290.998 185.893 290.952 185.73 290.918 185.569C290.911 185.487 290.895 185.402 290.898 185.324L290.908 185.078C290.942 184.757 290.978 184.439 291.052 184.128C291.025 184.446 291.012 184.767 291.015 185.085L291.018 185.32C291.018 185.399 291.038 185.474 291.052 185.55C291.092 185.697 291.145 185.844 291.225 185.975C291.382 186.241 291.602 186.473 291.86 186.663C291.986 186.755 292.12 186.85 292.263 186.912C292.414 186.978 292.561 187.053 292.711 187.112C293.011 187.243 293.322 187.351 293.639 187.436C293.953 187.518 294.28 187.564 294.59 187.521C294.74 187.495 294.904 187.443 294.971 187.335C295.054 187.21 295.101 187.063 295.108 186.912C295.114 186.761 295.074 186.607 294.997 186.47C294.924 186.326 294.814 186.208 294.7 186.09Z" fill="#FDDA94"/>
<path d="M294.703 187.6C294.814 187.807 294.814 188.065 294.717 188.288C294.69 188.341 294.663 188.403 294.607 188.449C294.557 188.494 294.496 188.524 294.44 188.553C294.32 188.609 294.193 188.629 294.066 188.645C293.555 188.688 293.074 188.54 292.62 188.377C292.397 188.285 292.173 188.193 291.956 188.085C291.729 187.98 291.529 187.833 291.355 187.666C291.182 187.499 291.028 187.309 290.918 187.096C290.815 186.883 290.751 186.651 290.758 186.418C290.835 186.877 291.118 187.26 291.469 187.548C291.649 187.689 291.836 187.826 292.05 187.911C292.263 188.013 292.48 188.101 292.701 188.187C292.921 188.268 293.145 188.344 293.372 188.399C293.599 188.458 293.829 188.491 294.056 188.488C294.169 188.481 294.283 188.472 294.386 188.436C294.436 188.416 294.486 188.396 294.527 188.363C294.567 188.341 294.59 188.291 294.62 188.246C294.737 188.059 294.767 187.823 294.703 187.6Z" fill="#FDDA94"/>
<path d="M294.206 188.549C294.366 188.69 294.486 188.893 294.486 189.119C294.486 189.231 294.459 189.342 294.406 189.447C294.393 189.473 294.379 189.496 294.363 189.522C294.336 189.555 294.312 189.571 294.286 189.591C294.236 189.627 294.179 189.653 294.122 189.673C293.895 189.755 293.655 189.741 293.431 189.715C293.208 189.686 292.991 189.627 292.78 189.555C292.57 189.483 292.366 189.398 292.169 189.303C292.073 189.25 291.969 189.211 291.872 189.149C291.779 189.09 291.689 189.021 291.609 188.946C291.278 188.661 291.028 188.248 291.044 187.825C291.118 188.241 291.395 188.575 291.719 188.824C291.802 188.887 291.886 188.946 291.976 188.995C292.059 189.047 292.163 189.08 292.26 189.126C292.453 189.214 292.65 189.293 292.854 189.358C293.054 189.43 293.258 189.486 293.465 189.519C293.668 189.555 293.882 189.565 294.069 189.515C294.116 189.502 294.159 189.486 294.196 189.463C294.212 189.453 294.232 189.437 294.242 189.43C294.256 189.414 294.269 189.394 294.282 189.375C294.333 189.293 294.369 189.201 294.379 189.106C294.393 189.011 294.383 188.91 294.353 188.815C294.319 188.726 294.266 188.638 294.206 188.549Z" fill="#FDDA94"/>
<path d="M264.857 266.357C257.39 268.443 231.121 262.511 222.51 260.46L222.209 260.316L219.17 258.23C216.654 256.595 214.072 254.704 213.81 254.809C213.441 254.958 213.43 255.299 215.476 258.143C215.609 258.327 215.482 258.587 215.25 258.595C213.465 258.66 207.855 258.898 207.767 259.35C207.662 259.886 212.682 259.791 212.861 260.265C213.041 260.739 208.142 260.709 208.126 261.296C208.106 261.886 212.575 261.767 212.655 262.016C212.735 262.268 208.465 262.83 208.244 263.171C208.021 263.512 212.652 263.456 212.837 263.732C213.021 264.008 209.836 265.093 209.899 265.372C209.963 265.65 209.152 265.569 217.026 265.144C217.026 265.144 218.996 264.987 219.749 264.882L221.704 265.764C237.572 274.792 267.585 275.628 267.585 275.628L264.857 266.357Z" fill="#FFF6F1"/>
<path d="M283.941 260.76C283.941 260.76 287.587 264.151 289.877 261.799C289.877 261.799 296.447 263.196 295.898 257.521C295.898 257.521 300.375 254.863 298.722 249.759C298.722 249.759 302.741 246.171 298.345 242.03C298.345 242.03 301.238 237.186 295.683 235.551C295.683 235.551 294.966 227.259 287.069 229.476C287.069 229.476 281.117 223.184 275.992 227.14C275.992 227.14 270.638 225.411 268.401 231.449C268.401 231.449 262.722 233.319 264.799 240.163C264.799 240.163 259.28 246.138 262.937 252.189C262.937 252.189 261.004 260.286 270.288 259.25C279.575 258.208 283.941 260.76 283.941 260.76Z" fill="url(#paint6_linear_463_78)"/>
<path d="M257.946 277.449C257.946 277.449 267.652 280.8 275.795 278.651C277.303 278.253 278.382 276.919 278.365 275.382C278.346 273.769 281.328 267.071 277.943 266.162C270.689 264.21 259.979 264.687 259.979 264.687C259.979 264.687 256.531 269.574 257.946 277.449Z" fill="#FBB428"/>
<path d="M284.363 264.054C284.363 264.054 292.445 265.464 295.267 268.649C298.088 271.831 305.304 307.08 303.575 313.386L269.43 308.588C269.43 308.588 265.748 280.424 266.493 272.3C267.238 264.176 276.271 264.511 276.271 264.511L284.363 264.054Z" fill="#FBB428"/>
<path d="M266.521 279.211C266.395 274.944 266.521 272.005 266.521 272.005C266.043 274.935 266.521 279.211 266.521 279.211Z" fill="white"/>
<path d="M296.341 290.393C296.341 290.393 294.907 291.08 293.122 291.08C291.602 288.717 289.479 282.726 289.647 277.562C292.899 282.831 296.341 290.393 296.341 290.393Z" fill="white"/>
<path d="M245.342 342.018L246.776 346.908C246.895 347.311 246.658 347.733 246.244 347.847L234.554 351.122C233.708 351.36 233.068 350.367 233.652 349.723L239.538 343.133C239.538 343.133 242.123 344.911 245.342 342.018Z" fill="#4188E4"/>
<path d="M266.664 309.361C266.664 309.361 243.213 302.893 240.474 303.183C237.429 303.505 229.042 308.56 238.538 344.526C238.538 344.526 243.103 345.958 245.886 342.856L245.696 322.373C245.696 322.373 262.656 331.493 267.891 329.271C273.124 327.049 266.664 309.361 266.664 309.361Z" fill="#00669A"/>
<path d="M282.998 341.89L286.132 345.95C286.391 346.285 286.322 346.762 285.98 347.016L276.282 354.196C275.581 354.715 274.619 354.014 274.928 353.208L277.998 344.978C277.998 344.978 281.059 345.728 282.998 341.89Z" fill="#4188E4"/>
<path d="M302.721 313.264C302.721 313.264 303.179 336.835 278.83 327.942L283.695 342.762C283.695 342.762 280.211 346.266 277.781 345.849C275.542 345.465 252.408 317.818 265.855 308.03C267.788 306.622 270.152 305.905 272.563 305.865C278.645 305.767 294.46 306.238 302.721 313.264Z" fill="#2D3A6E"/>
<path d="M284.268 267.531L284.483 259.778L276.65 259.691L275.064 266.459C275.061 266.459 279.477 271.412 284.268 267.531Z" fill="#FFF6F1"/>
<path d="M275.588 264.216L276.65 259.694L284.483 259.78L284.379 263.585C282.666 264.911 279.72 266.156 275.588 264.216Z" fill="#FDDA94"/>
<path d="M269.342 249.685C269.59 250.998 268.923 252.218 267.85 252.411C266.777 252.603 265.704 251.693 265.456 250.381C265.207 249.068 265.875 247.848 266.948 247.656C268.021 247.464 269.094 248.373 269.342 249.685Z" fill="#FDDA94"/>
<path d="M268.195 256.835C267.997 256.251 267.853 255.645 267.768 255.022C267.506 253.344 267.555 251.631 267.715 250.162C267.751 249.845 267.765 249.529 267.776 249.212C267.818 247.932 268.099 246.622 268.681 245.337C270.554 241.199 275.072 238.717 279.661 239.315C285.848 240.122 289.892 245.856 288.661 251.669C289.381 251.45 290.126 251.518 290.705 251.929C291.82 252.717 291.908 254.454 290.907 255.812C289.905 257.171 288.19 257.634 287.078 256.849C286.924 256.741 286.791 256.611 286.676 256.467C285.114 261.309 280.161 264.278 275.204 263.179C272.78 262.64 270.783 261.225 269.456 259.328C269.365 259.214 269.271 259.084 269.175 258.935C268.75 258.283 268.433 257.572 268.195 256.835Z" fill="#FFF6F1"/>
<path d="M276.035 248.978C275.856 249.543 275.696 250.098 275.514 250.634C275.329 251.156 275.108 251.711 274.786 252.028L274.725 252.076C274.703 252.095 274.695 252.106 274.65 252.136C274.579 252.193 274.499 252.236 274.435 252.309C274.303 252.439 274.193 252.604 274.137 252.791C274.019 253.164 274.126 253.557 274.325 253.833C274.725 254.401 275.387 254.623 275.983 254.639C275.442 254.388 274.948 254.049 274.733 253.6C274.637 253.381 274.595 253.151 274.684 252.972C274.719 252.883 274.777 252.799 274.857 252.729C274.89 252.688 274.946 252.664 274.987 252.628L275.086 252.553L275.199 252.463C275.467 252.209 275.61 251.917 275.729 251.627C275.842 251.335 275.919 251.045 275.972 250.748C276.074 250.16 276.104 249.568 276.035 248.978Z" fill="#FDDA94"/>
<path d="M279.197 250.644C279.087 251.129 279.399 251.613 279.895 251.721C280.392 251.832 280.885 251.527 280.996 251.042C281.106 250.558 280.794 250.073 280.298 249.965C279.801 249.854 279.31 250.157 279.197 250.644Z" fill="#2D3A6E"/>
<path d="M271.364 249.427C271.254 249.912 271.566 250.396 272.062 250.504C272.559 250.615 273.052 250.309 273.163 249.825C273.273 249.341 272.961 248.856 272.465 248.748C271.968 248.637 271.477 248.943 271.364 249.427Z" fill="#2D3A6E"/>
<path d="M278.631 248.379C279.122 248.366 279.577 248.377 280.015 248.425C280.454 248.477 280.868 248.577 281.256 248.731C281.64 248.891 282.02 249.083 282.357 249.359C282.545 249.475 282.691 249.643 282.873 249.784C283.047 249.935 283.195 250.109 283.394 250.266C283.339 250.033 283.264 249.803 283.162 249.581C283.041 249.373 282.931 249.145 282.757 248.964C282.448 248.569 282.004 248.268 281.524 248.074C281.041 247.881 280.512 247.814 280.01 247.868C279.513 247.93 279.025 248.087 278.631 248.379Z" fill="#2D3A6E"/>
<path d="M274.596 247.754C274.323 247.348 273.917 247.04 273.468 246.818C273.013 246.601 272.491 246.488 271.973 246.512C271.457 246.536 270.936 246.672 270.508 246.945C270.282 247.059 270.103 247.237 269.915 247.394C269.744 247.57 269.595 247.765 269.463 247.965C269.703 247.884 269.904 247.768 270.117 247.684C270.337 247.611 270.53 247.503 270.748 247.454C271.162 247.305 271.581 247.248 272 247.224C272.42 247.205 272.844 247.248 273.275 247.346C273.708 247.438 274.141 247.578 274.596 247.754Z" fill="#2D3A6E"/>
<path d="M293.53 284.345C298.23 290.42 302.19 316.636 303.39 325.268L303.365 325.596L302.499 329.138C301.868 332.039 301.018 335.089 301.214 335.292C301.49 335.577 301.815 335.463 303.763 332.554C303.89 332.364 304.179 332.389 304.273 332.594C304.985 334.204 307.257 339.254 307.715 339.17C308.261 339.07 306.342 334.51 306.725 334.172C307.108 333.834 308.865 338.332 309.431 338.131C309.996 337.934 308.253 333.885 308.463 333.72C308.67 333.555 310.763 337.257 311.166 337.338C311.571 337.417 309.828 333.198 310.021 332.927C310.214 332.657 312.404 335.179 312.647 335.019C312.89 334.859 313.108 335.631 309.834 328.576C309.834 328.576 308.967 326.827 308.592 326.178L308.714 324.064C311.475 306.244 301.322 278.461 301.322 278.461L293.53 284.345Z" fill="#FFF6F1"/>
<path d="M305.877 286.788C305.877 286.788 303.347 273.089 295.456 268.172C292.119 266.094 290.207 265.309 288.709 266.161C287.137 267.057 290.563 270.383 289.876 274.139C288.516 281.579 293.407 290.918 293.407 290.918C293.407 290.918 300.029 290.193 305.877 286.788Z" fill="#FBB428"/>
<path d="M288.105 239.399L288.224 246.092L272.372 241.889C272.372 241.889 270.585 243.364 270.323 243.326C270.061 243.288 268.053 242.39 268.141 242.105C268.226 241.824 273.955 234.774 273.955 234.774C273.955 234.774 279.212 236.089 279.681 236.227C280.15 236.365 288.105 239.399 288.105 239.399Z" fill="#13AFFF"/>
<path d="M288.873 249.166C288.873 249.166 280.789 242.287 268.432 245.867C268.432 245.867 268.512 244.471 269.053 242.707C269.053 242.707 277.443 237.381 289.254 245.821C289.251 245.819 289.88 246.685 288.873 249.166Z" fill="#0095E0"/>
<path d="M271.763 255.526C271.948 257.077 273.333 258.357 275.123 258.517C276.913 258.673 278.507 257.656 278.965 256.162L271.763 255.526Z" fill="white"/>
<defs>
<linearGradient id="paint0_linear_463_78" x1="560.905" y1="379.32" x2="560.905" y2="428.314" gradientUnits="userSpaceOnUse">
<stop stop-color="#FCCA67"/>
<stop stop-color="#C4C4C4"/>
<stop offset="0.0001" stop-color="#FBAE17"/>
<stop offset="1" stop-color="#FDD078"/>
<stop offset="1" stop-color="#FDD078"/>
<stop offset="1" stop-color="#FDD078"/>
</linearGradient>
<linearGradient id="paint1_linear_463_78" x1="350.183" y1="411.167" x2="350.183" y2="552.793" gradientUnits="userSpaceOnUse">
<stop stop-color="#2CB8FF"/>
<stop offset="1" stop-color="#0095E0"/>
</linearGradient>
<linearGradient id="paint2_linear_463_78" x1="239.373" y1="383.651" x2="239.373" y2="529.171" gradientUnits="userSpaceOnUse">
<stop stop-color="#BAE8FF"/>
<stop offset="1" stop-color="#5AC7FF"/>
</linearGradient>
<linearGradient id="paint3_linear_463_78" x1="359.741" y1="335.299" x2="359.741" y2="457.681" gradientUnits="userSpaceOnUse">
<stop stop-color="#1AB2FF"/>
<stop offset="1" stop-color="#BAE8FF"/>
</linearGradient>
<linearGradient id="paint4_linear_463_78" x1="363.603" y1="266.071" x2="363.603" y2="382.267" gradientUnits="userSpaceOnUse">
<stop stop-color="#0095E0"/>
<stop offset="1" stop-color="#00669A"/>
</linearGradient>
<linearGradient id="paint5_linear_463_78" x1="260.752" y1="111.083" x2="260.752" y2="130.626" gradientUnits="userSpaceOnUse">
<stop stop-color="#FDDA94"/>
<stop stop-color="#FDDA94"/>
<stop offset="0.979167" stop-color="#FCC455"/>
<stop offset="1" stop-color="#FDDA94" stop-opacity="0"/>
</linearGradient>
<linearGradient id="paint6_linear_463_78" x1="293.715" y1="230.084" x2="283.734" y2="279.326" gradientUnits="userSpaceOnUse">
<stop stop-color="#FFC444"/>
<stop offset="0.9964" stop-color="#F36F56"/>
</linearGradient>
</defs>
</svg>
