<svg width="61" height="61" viewBox="0 0 61 61" fill="none" xmlns="http://www.w3.org/2000/svg">
<path d="M0.513489 30.4864C0.513489 13.8283 14.0175 0.324219 30.6757 0.324219C47.3338 0.324219 60.8378 13.8283 60.8378 30.4864C60.8378 47.1445 47.3338 60.6485 30.6757 60.6485C14.0175 60.6485 0.513489 47.1445 0.513489 30.4864Z" fill="url(#paint0_linear_121_348)"/>
<path d="M44.9415 33.4221C45.0915 36.0054 43.9082 38.4887 41.7915 40.0054L43.0748 42.4887C43.4582 43.2387 43.5082 44.1221 43.1748 44.9054C42.8582 45.6887 42.2082 46.3054 41.4082 46.5721L40.0915 46.9887C39.5433 47.1734 38.9514 47.1845 38.3966 47.0205C37.8418 46.8564 37.3512 46.5252 36.9915 46.0721L33.4582 41.9054C31.9748 41.6554 30.5748 41.0221 29.3915 40.0721C28.5582 40.3221 27.7248 40.4554 26.8915 40.4554C25.4248 40.4554 23.9582 40.0054 22.7248 39.1387C21.8415 39.4054 20.9415 39.5221 20.0248 39.5054C18.7082 39.5221 17.4082 39.2554 16.1915 38.7554C15.0204 38.2329 14.0197 37.3917 13.3036 36.3279C12.5876 35.2641 12.1849 34.0204 12.1415 32.7387C12.0082 31.5387 12.2082 30.3221 12.7248 29.2221C12.2415 27.9721 12.1915 26.6054 12.6082 25.3387C13.2248 23.7554 14.3915 22.4387 15.8415 21.6054C16.8082 18.7887 19.5248 16.9054 22.5082 17.1054C25.1748 14.6054 29.2582 14.3387 32.2248 16.4887C32.9248 16.3054 33.6582 16.2054 34.3915 16.2054C36.6582 16.1554 38.8082 17.1554 40.2248 18.9387C43.6248 19.8221 46.0582 22.8554 46.1915 26.3887C46.2748 28.2387 45.7748 30.0554 44.7582 31.6054C44.8748 32.2054 44.9415 32.8054 44.9415 33.4221ZM36.6082 31.0721C37.5582 31.1887 38.3082 31.9054 38.3082 32.8554C38.3082 33.2974 38.1326 33.7213 37.82 34.0339C37.5075 34.3465 37.0835 34.5221 36.6415 34.5221H35.5915C35.0582 36.0221 34.1248 37.3387 32.8915 38.3387C33.3082 38.4887 33.7415 38.5721 34.1748 38.6887C42.7248 38.5721 41.7248 33.3554 41.7248 33.2721C41.6806 32.1272 41.1834 31.0468 40.3426 30.2686C39.5019 29.4903 38.3864 29.0779 37.2415 29.1221C36.7995 29.1221 36.3756 28.9465 36.063 28.6339C35.7504 28.3213 35.5748 27.8974 35.5748 27.4554C35.5748 27.0134 35.7504 26.5894 36.063 26.2769C36.3756 25.9643 36.7995 25.7887 37.2415 25.7887C39.2915 25.8387 41.2582 26.6054 42.7915 27.9554C42.8748 27.4721 42.9249 26.9721 42.9249 26.4721C42.8249 24.4054 41.8915 22.6054 38.1415 22.2554C36.0582 17.3221 30.8082 20.0554 30.8082 21.5887C30.7582 21.9721 31.1582 22.7887 31.2248 22.8387C31.6669 22.8387 32.0908 23.0143 32.4034 23.3269C32.7159 23.6394 32.8915 24.0634 32.8915 24.5054C32.8915 25.4221 32.1415 26.1721 31.2248 26.1721C30.3415 26.1387 29.5082 25.8054 28.8415 25.2387C28.0415 25.7554 27.1248 26.0721 26.1748 26.1721C25.2248 26.2554 24.4415 25.5887 24.3915 24.6721C24.3608 24.4543 24.3749 24.2327 24.433 24.0206C24.4911 23.8085 24.5919 23.6106 24.7292 23.4389C24.8666 23.2672 25.0376 23.1254 25.2317 23.0222C25.4259 22.919 25.639 22.8566 25.8582 22.8387C26.1248 22.8054 27.4248 22.6054 27.4248 21.5554C27.4248 20.4554 27.8415 19.4054 28.5582 18.5721C27.0248 18.1554 25.3748 18.7054 23.7082 20.7221C20.6415 20.2387 19.3915 20.6554 18.4748 23.9054C16.8915 24.6887 16.0582 25.2387 15.6915 26.9054C17.4915 26.5387 19.3415 26.6887 21.0582 27.3221C21.8915 27.6387 22.3582 28.5721 22.0415 29.4721C21.7248 30.3387 20.7582 30.7721 19.8915 30.4554C18.6748 29.9221 17.3082 29.8887 16.0582 30.3554C15.5248 30.8054 15.5248 31.7387 15.5248 32.4721C15.5248 33.7054 16.1415 34.8554 17.1915 35.5221C18.0748 35.9721 19.0582 36.2054 20.0415 36.1887C19.7915 35.7554 19.5748 35.3054 19.3915 34.8387C19.2603 34.4105 19.3003 33.9481 19.503 33.5488C19.7057 33.1494 20.0554 32.8443 20.4786 32.6975C20.9017 32.5507 21.3652 32.5737 21.7717 32.7617C22.1782 32.9496 22.496 33.2879 22.6582 33.7054C23.3248 35.6054 25.0248 36.9054 27.0248 37.1221C29.3082 37.0054 31.3415 35.6554 32.3415 33.5721C32.7248 31.2721 34.5748 31.0721 36.6082 31.0721ZM39.9415 43.5221L38.9082 41.3554L37.7248 41.6221L39.3915 43.7054L39.9415 43.5221ZM32.1915 29.1721C32.206 28.7463 32.0569 28.3311 31.7748 28.0119C31.4928 27.6926 31.0992 27.4935 30.6748 27.4554C29.4915 27.3887 28.3415 27.7887 27.4582 28.5721C26.5082 29.5387 26.0082 30.8721 26.0582 32.2221C26.0582 32.6641 26.2338 33.088 26.5463 33.4006C26.8589 33.7131 27.2828 33.8887 27.7248 33.8887C28.6748 33.8887 29.3915 33.1387 29.3915 32.2221C29.3915 31.7721 29.5082 31.3221 29.7748 30.9554C29.9748 30.7887 30.2248 30.7054 30.4915 30.7054C31.4082 30.7554 32.1915 30.0721 32.1915 29.1721Z" fill="white"/>
<defs>
<linearGradient id="paint0_linear_121_348" x1="30.6757" y1="0.324219" x2="30.6757" y2="60.6485" gradientUnits="userSpaceOnUse">
<stop stop-color="#0076B2"/>
<stop offset="1" stop-color="#2CB8FF"/>
</linearGradient>
</defs>
</svg>
