<svg width="61" height="62" viewBox="0 0 61 62" fill="none" xmlns="http://www.w3.org/2000/svg">
<path d="M0.0810776 30.8919C0.0810776 14.2338 13.5851 0.729736 30.2432 0.729736C46.9013 0.729736 60.4054 14.2338 60.4054 30.8919C60.4054 47.55 46.9013 61.0541 30.2432 61.0541C13.5851 61.0541 0.0810776 47.55 0.0810776 30.8919Z" fill="url(#paint0_linear_121_370)"/>
<path d="M11.3916 20.537C11.3916 20.537 14.1372 16.8762 20.5435 16.8762C26.9498 16.8762 29.6953 20.537 29.6953 20.537V46.1622C29.6953 46.1622 26.9498 44.3318 20.5435 44.3318C14.1372 44.3318 11.3916 46.1622 11.3916 46.1622V20.537Z" stroke="white" stroke-width="3" stroke-linecap="round" stroke-linejoin="round"/>
<path d="M29.6953 20.537C29.6953 20.537 32.4409 16.8762 38.8472 16.8762C45.2535 16.8762 47.999 20.537 47.999 20.537V46.1622C47.999 46.1622 45.2535 44.3318 38.8472 44.3318C32.4409 44.3318 29.6953 46.1622 29.6953 46.1622V20.537Z" stroke="white" stroke-width="3" stroke-linecap="round" stroke-linejoin="round"/>
<defs>
<linearGradient id="paint0_linear_121_370" x1="30.2432" y1="0.729736" x2="30.2432" y2="61.0541" gradientUnits="userSpaceOnUse">
<stop stop-color="#0076B2"/>
<stop offset="1" stop-color="#2CB8FF"/>
</linearGradient>
</defs>
</svg>
