<svg width="61" height="61" viewBox="0 0 61 61" fill="none" xmlns="http://www.w3.org/2000/svg">
<path d="M0.297363 30.4864C0.297363 13.8283 13.8014 0.324219 30.4595 0.324219C47.1176 0.324219 60.6217 13.8283 60.6217 30.4864C60.6217 47.1445 47.1176 60.6485 30.4595 60.6485C13.8014 60.6485 0.297363 47.1445 0.297363 30.4864Z" fill="url(#paint0_linear_661_554)"/>
<g clip-path="url(#clip0_661_554)">
<path d="M21.2005 29C25.4561 29 28.9005 25.4773 28.9005 21.125C28.9005 16.7727 25.4561 13.25 21.2005 13.25C16.9449 13.25 13.5005 16.7727 13.5005 21.125C13.5005 25.4773 16.9449 29 21.2005 29ZM26.4805 31.25H25.9099C24.4799 31.9531 22.8917 32.375 21.2005 32.375C19.5092 32.375 17.928 31.9531 16.4911 31.25H15.9205C11.548 31.25 8.00049 34.8781 8.00049 39.35V41.375C8.00049 43.2383 9.47861 44.75 11.3005 44.75H31.1005C32.9224 44.75 34.4005 43.2383 34.4005 41.375V39.35C34.4005 34.8781 30.853 31.25 26.4805 31.25ZM41.0005 29C44.6442 29 47.6005 25.9766 47.6005 22.25C47.6005 18.5234 44.6442 15.5 41.0005 15.5C37.3567 15.5 34.4005 18.5234 34.4005 22.25C34.4005 25.9766 37.3567 29 41.0005 29ZM44.3005 31.25H44.0392C43.0836 31.5875 42.073 31.8125 41.0005 31.8125C39.928 31.8125 38.9174 31.5875 37.9617 31.25H37.7005C36.298 31.25 35.0055 31.6648 33.8711 32.3328C35.5486 34.182 36.6005 36.6359 36.6005 39.35V42.05C36.6005 42.2047 36.5661 42.3523 36.5592 42.5H48.7005C50.5224 42.5 52.0005 40.9883 52.0005 39.125C52.0005 34.7727 48.5561 31.25 44.3005 31.25Z" fill="white"/>
</g>
<defs>
<linearGradient id="paint0_linear_661_554" x1="30.4595" y1="0.324219" x2="30.4595" y2="60.6485" gradientUnits="userSpaceOnUse">
<stop stop-color="#0076B2"/>
<stop offset="1" stop-color="#2CB8FF"/>
</linearGradient>
<clipPath id="clip0_661_554">
<rect width="44" height="36" fill="white" transform="translate(8.00049 11)"/>
</clipPath>
</defs>
</svg>
