<svg width="62" height="61" viewBox="0 0 62 61" fill="none" xmlns="http://www.w3.org/2000/svg">
<path d="M0.716064 30.4864C0.716064 13.8283 14.2201 0.324219 30.8782 0.324219C47.5363 0.324219 61.0404 13.8283 61.0404 30.4864C61.0404 47.1445 47.5363 60.6485 30.8782 60.6485C14.2201 60.6485 0.716064 47.1445 0.716064 30.4864Z" fill="url(#paint0_linear_463_336)"/>
<path d="M41.9993 47.5625C40.5159 47.5625 39.0659 47.1336 37.8325 46.3301C36.5991 45.5266 35.6378 44.3846 35.0702 43.0484C34.5025 41.7122 34.354 40.2419 34.6434 38.8234C34.9328 37.4049 35.6471 36.102 36.696 35.0793C37.7449 34.0566 39.0812 33.3602 40.5361 33.078C41.991 32.7959 43.499 32.9407 44.8694 33.4941C46.2398 34.0476 47.4112 34.9849 48.2353 36.1874C49.0594 37.3899 49.4993 38.8037 49.4993 40.25C49.497 42.1887 48.706 44.0474 47.3 45.4182C45.894 46.7891 43.9877 47.5602 41.9993 47.5625ZM41.9993 35.375C41.0104 35.375 40.0437 35.6609 39.2214 36.1966C38.3992 36.7323 37.7583 37.4936 37.3799 38.3844C37.0014 39.2752 36.9024 40.2554 37.0953 41.2011C37.2883 42.1467 37.7645 43.0154 38.4637 43.6971C39.163 44.3789 40.0539 44.8432 41.0238 45.0313C41.9937 45.2194 42.9991 45.1229 43.9127 44.7539C44.8263 44.3849 45.6072 43.7601 46.1566 42.9584C46.706 42.1567 46.9993 41.2142 46.9993 40.25C46.9976 38.9576 46.4703 37.7185 45.533 36.8046C44.5957 35.8907 43.3248 35.3766 41.9993 35.375Z" fill="white"/>
<path d="M26.9993 30.0003L23.7618 26.8438L21.9993 28.5622L26.9993 33.4372L35.7493 24.9059L33.9868 23.1875L26.9993 30.0003Z" fill="white"/>
<path d="M29.4993 40.25C27.027 40.25 24.6103 39.5352 22.5546 38.196C20.499 36.8569 18.8969 34.9534 17.9508 32.7265C17.0047 30.4995 16.7571 28.049 17.2395 25.6848C17.7218 23.3207 18.9123 21.1491 20.6604 19.4446C22.4086 17.7402 24.6359 16.5794 27.0606 16.1092C29.4854 15.6389 31.9987 15.8803 34.2828 16.8027C36.5669 17.7252 38.5191 19.2873 39.8926 21.2915C41.2662 23.2957 41.9993 25.652 41.9993 28.0625H44.4993C44.4993 25.17 43.6195 22.3424 41.9713 19.9373C40.3231 17.5322 37.9804 15.6577 35.2395 14.5508C32.4986 13.4438 29.4826 13.1542 26.5729 13.7185C23.6632 14.2828 20.9905 15.6757 18.8927 17.7211C16.7949 19.7664 15.3663 22.3723 14.7875 25.2093C14.2087 28.0463 14.5058 30.9869 15.6411 33.6593C16.7764 36.3316 18.699 38.6157 21.1657 40.2227C23.6325 41.8298 26.5326 42.6875 29.4993 42.6875V40.25Z" fill="white"/>
<defs>
<linearGradient id="paint0_linear_463_336" x1="30.8782" y1="0.324219" x2="30.8782" y2="60.6485" gradientUnits="userSpaceOnUse">
<stop stop-color="#0076B2"/>
<stop offset="1" stop-color="#2CB8FF"/>
</linearGradient>
</defs>
</svg>
