<svg width="62" height="61" viewBox="0 0 62 61" fill="none" xmlns="http://www.w3.org/2000/svg">
<path d="M0.932373 30.4864C0.932373 13.8283 14.4364 0.324219 31.0945 0.324219C47.7526 0.324219 61.2567 13.8283 61.2567 30.4864C61.2567 47.1445 47.7526 60.6485 31.0945 60.6485C14.4364 60.6485 0.932373 47.1445 0.932373 30.4864Z" fill="url(#paint0_linear_463_329)"/>
<path d="M18.9324 20.3242V22.3242H40.9324V38.3242H26.9324V40.3242H44.9324V38.3242H42.9324V20.3242H18.9324ZM22.9344 23.3242C21.8745 23.3279 20.859 23.7505 20.1093 24.4997C19.3596 25.249 18.9366 26.2643 18.9324 27.3242C18.9324 29.5232 20.7364 31.3242 22.9344 31.3242C23.9938 31.32 25.0085 30.8972 25.7574 30.1479C26.5063 29.3986 26.9287 28.3836 26.9324 27.3242C26.9324 25.1272 25.1304 23.3242 22.9344 23.3242ZM28.9324 24.3242V26.3242H33.9324V24.3242H28.9324ZM35.9324 24.3242V26.3242H38.9324V24.3242H35.9324ZM22.9344 25.3242C24.0484 25.3242 24.9324 26.2072 24.9324 27.3242C24.9324 28.4442 24.0494 29.3242 22.9344 29.3242C21.8144 29.3242 20.9324 28.4442 20.9324 27.3242C20.9324 26.2072 21.8154 25.3242 22.9344 25.3242ZM28.9324 28.3242V30.3242H38.9324V28.3242H28.9324ZM18.9324 32.3242V40.3242H20.9324V34.3242H23.9324V40.3242H25.9324V34.9822L27.9964 36.0742C28.5814 36.3842 29.2844 36.3832 29.8684 36.0742V36.0762L33.3984 34.2092L32.4654 32.4392L28.9344 34.3062L25.8384 32.6722C25.4063 32.4439 24.9251 32.3245 24.4364 32.3242H18.9324Z" fill="white"/>
<defs>
<linearGradient id="paint0_linear_463_329" x1="31.0945" y1="0.324219" x2="31.0945" y2="60.6485" gradientUnits="userSpaceOnUse">
<stop stop-color="#0076B2"/>
<stop offset="1" stop-color="#2CB8FF"/>
</linearGradient>
</defs>
</svg>
