<svg width="18" height="18" viewBox="0 0 18 18" fill="none" xmlns="http://www.w3.org/2000/svg">
<path opacity="0.1" d="M8.91667 0.533325C4.09568 0.533325 0.1875 4.44151 0.1875 9.26249C0.1875 14.0835 4.09568 17.9917 8.91667 17.9917C13.7377 17.9917 17.6458 14.0835 17.6458 9.26249C17.6402 4.44383 13.7353 0.538937 8.91667 0.533325Z" fill="white"/>
<path d="M13.9556 6.49832L8.97635 13.2554C8.8576 13.413 8.68053 13.5162 8.48492 13.5419C8.28931 13.5676 8.09157 13.5137 7.93613 13.3922L4.38045 10.5494C4.06668 10.2983 4.01588 9.84038 4.26697 9.52661C4.51806 9.21284 4.97597 9.16204 5.28974 9.41313L8.25474 11.7853L12.7845 5.63777C12.933 5.41487 13.192 5.29164 13.4586 5.317C13.7253 5.34235 13.9564 5.51219 14.0603 5.75908C14.1642 6.00597 14.1239 6.28997 13.9556 6.49832Z" fill="white"/>
</svg>
