<svg width="19" height="19" viewBox="0 0 19 19" fill="none" xmlns="http://www.w3.org/2000/svg">
<path d="M9.5645 0.707031C4.74924 0.707031 0.845703 4.61057 0.845703 9.42583C0.845703 14.2411 4.74924 18.1446 9.5645 18.1446C14.3798 18.1446 18.2833 14.2411 18.2833 9.42583C18.2777 4.61289 14.3774 0.712637 9.5645 0.707031Z" fill="#5243C2" fill-opacity="0.103693"/>
<path d="M14.5963 6.66488L9.62292 13.414C9.50431 13.5713 9.32744 13.6744 9.13206 13.7001C8.93668 13.7258 8.73918 13.6719 8.58393 13.5506L5.03247 10.7111C4.71907 10.4603 4.66833 10.003 4.91912 9.68958C5.16992 9.37618 5.62728 9.32544 5.94068 9.57623L8.90216 11.9456L13.4265 5.80535C13.5749 5.58272 13.8336 5.45964 14.0999 5.48496C14.3662 5.51029 14.5971 5.67992 14.7008 5.92652C14.8046 6.17312 14.7644 6.45678 14.5963 6.66488Z" fill="#5243C2"/>
</svg>
