<svg width="794" height="661" viewBox="0 0 794 661" fill="none" xmlns="http://www.w3.org/2000/svg">
<path d="M53.0777 244.977L55.6484 243.653C73.8993 254.264 79.3739 269.064 84.6675 283.377C85.2914 285.064 85.9199 286.74 86.5531 288.407C91.6414 301.663 101.558 320.149 128.717 327.594C145.734 332.258 164.706 331.477 184.796 330.65C197.573 330.122 210.802 329.582 223.493 330.572C266.775 333.959 300.658 356.905 297.617 380.709L294.088 380.573C296.94 358.155 263.756 335.668 223.033 332.496C210.722 331.535 197.7 332.072 185.099 332.586C165.414 333.396 145.059 334.233 127.171 329.329C98.6043 321.501 88.3385 302.453 83.096 288.806C82.4413 287.15 81.8107 285.467 81.2043 283.758C76.0098 269.711 70.6392 255.183 53.0777 244.977Z" fill="#FCAF16"/>
<path d="M287.607 141.436C219.722 170.693 204.705 311.602 204.705 311.602C204.705 311.602 216.308 351.149 215.614 377.051C213.833 443.509 137.075 444.681 128.349 523.22C119.622 601.758 206.887 638.845 215.614 638.845C215.614 638.845 295.034 657.27 339.966 638.845C377.415 623.488 381.695 588.048 418.504 571.215C473.515 546.058 532.289 615.589 573.399 571.215C615.285 526.004 585.675 469.271 558.128 414.139C543.198 384.259 511.073 379.486 505.769 346.508C498.989 304.349 579.944 296.331 558.128 250.517C536.312 204.703 499.335 201.519 455.592 180.705C394.757 151.759 349.476 114.771 287.607 141.436Z" fill="#FFE9BB"/>
<path d="M322.876 310.979C299.563 314.307 274.897 314.889 250.569 312.687C226.241 310.484 202.826 305.548 181.931 298.217C161.163 290.776 143.453 281.131 130.017 269.943C116.581 258.755 107.735 246.288 104.087 233.398L107.65 233.225C111.212 245.841 119.864 258.044 133.011 268.995C146.159 279.947 163.49 289.388 183.817 296.671C204.269 303.844 227.186 308.673 250.997 310.826C274.807 312.979 298.947 312.406 321.762 309.145L322.876 310.979Z" fill="#00669A"/>
<path d="M533.92 155.735L532.042 155.015C552.8 140.408 574.263 125.308 587.902 108.304C603.087 89.3705 605.552 70.7102 594.9 55.7753C583.318 39.5673 557.808 29.1677 538.454 23.2981C512.998 15.5623 483.884 11.0465 458.171 7.04212L458.953 5.82971C484.782 9.85312 514.132 14.4237 539.718 22.1984C559.392 28.1639 585.319 38.7474 597.136 55.2795C608.031 70.525 605.543 89.4994 590.098 108.752C576.33 125.895 554.771 141.066 533.92 155.735Z" fill="#00669A"/>
<path d="M569.207 310.801L566.662 309.462C628.791 274.086 663.44 223.753 659.374 174.766L662.9 174.678C667.021 224.164 632.029 275.073 569.207 310.801Z" fill="white"/>
<path d="M443.323 479.815L542.974 517.829L666.326 226.084L582.094 193.955C573.579 190.705 563.906 194.631 560.485 202.72L443.323 479.815Z" fill="#13AFFF"/>
<path d="M479.164 214.115L669.953 246.251L622.384 501.051L431.594 468.915L479.164 214.115Z" fill="#13AFFF"/>
<path d="M527.349 248.317L612.551 262.668L612.211 264.486L527.01 250.135L527.349 248.317Z" fill="#13AFFF"/>
<path d="M510.316 240.696L631.312 261.077L630.973 262.895L509.976 242.514L510.316 240.696Z" fill="#13AFFF"/>
<path d="M492.992 262.207L639.791 286.933L639.452 288.751L492.652 264.025L492.992 262.207Z" fill="#13AFFF"/>
<path d="M491.361 270.945L638.156 295.671L637.817 297.489L491.022 272.763L491.361 270.945Z" fill="#13AFFF"/>
<path d="M488.102 288.42L634.896 313.146L634.557 314.964L487.762 290.238L488.102 288.42Z" fill="#13AFFF"/>
<path d="M486.467 297.159L633.262 321.885L632.922 323.704L486.127 298.978L486.467 297.159Z" fill="#13AFFF"/>
<path d="M484.838 305.899L631.633 330.625L631.293 332.443L484.498 307.717L484.838 305.899Z" fill="#13AFFF"/>
<path d="M477.656 344.33L624.455 369.056L624.116 370.874L477.316 346.148L477.656 344.33Z" fill="#13AFFF"/>
<path d="M475.971 353.393L622.766 378.119L622.426 379.937L475.631 355.212L475.971 353.393Z" fill="#13AFFF"/>
<path d="M474.279 362.45L621.074 387.176L620.735 388.994L473.94 364.268L474.279 362.45Z" fill="#13AFFF"/>
<path d="M472.59 371.516L619.385 396.242L619.045 398.06L472.25 373.334L472.59 371.516Z" fill="#13AFFF"/>
<path d="M470.897 380.574L617.691 405.3L617.352 407.118L470.557 382.392L470.897 380.574Z" fill="#13AFFF"/>
<path d="M469.205 389.637L616 414.363L615.661 416.182L468.866 391.456L469.205 389.637Z" fill="#13AFFF"/>
<path d="M467.514 398.699L614.309 423.425L613.969 425.244L467.174 400.518L467.514 398.699Z" fill="#13AFFF"/>
<path d="M506.641 207.797L694.039 254.639L624.701 504.91L437.303 458.068L506.641 207.797Z" fill="#F8F8F8"/>
<path d="M551.729 245.625L635.416 266.544L634.921 268.33L551.234 247.411L551.729 245.625Z" fill="url(#paint0_linear_661_295)"/>
<path d="M535.406 236.708L654.252 266.415L653.757 268.201L534.911 238.494L535.406 236.708Z" fill="url(#paint1_linear_661_295)"/>
<path d="M516.289 256.803L660.475 292.844L659.98 294.63L515.794 258.589L516.289 256.803Z" fill="url(#paint2_linear_661_295)"/>
<path d="M513.912 265.384L658.098 301.425L657.603 303.211L513.417 267.17L513.912 265.384Z" fill="url(#paint3_linear_661_295)"/>
<path d="M509.154 282.548L653.34 318.589L652.845 320.375L508.659 284.334L509.154 282.548Z" fill="url(#paint4_linear_661_295)"/>
<path d="M506.779 291.136L650.965 327.177L650.47 328.963L506.284 292.922L506.779 291.136Z" fill="url(#paint5_linear_661_295)"/>
<path d="M504.402 299.719L648.588 335.76L648.093 337.546L503.907 301.505L504.402 299.719Z" fill="url(#paint6_linear_661_295)"/>
<path d="M493.943 337.469L638.129 373.51L637.634 375.296L493.448 339.255L493.943 337.469Z" fill="url(#paint7_linear_661_295)"/>
<path d="M491.472 346.37L635.658 382.411L635.163 384.197L490.978 348.156L491.472 346.37Z" fill="url(#paint8_linear_661_295)"/>
<path d="M489.011 355.268L633.197 391.309L632.702 393.095L488.517 357.054L489.011 355.268Z" fill="url(#paint9_linear_661_295)"/>
<path d="M486.545 364.171L630.73 400.212L630.236 401.998L486.05 365.957L486.545 364.171Z" fill="url(#paint10_linear_661_295)"/>
<path d="M484.078 373.069L628.264 409.109L627.769 410.895L483.583 374.854L484.078 373.069Z" fill="url(#paint11_linear_661_295)"/>
<path d="M481.613 381.972L625.799 418.013L625.304 419.799L481.118 383.758L481.613 381.972Z" fill="url(#paint12_linear_661_295)"/>
<path d="M479.142 390.872L623.328 426.913L622.833 428.699L478.648 392.658L479.142 390.872Z" fill="url(#paint13_linear_661_295)"/>
<path d="M481.134 494.24L681.749 570.77L798.758 294.027L630.176 195.249C620.7 189.697 608.248 193.593 604.097 203.404L481.134 494.24Z" fill="#0095E0"/>
<path d="M405.034 322.909L428.103 306.815C425.822 287.402 422.738 271.258 422.738 271.258C392.045 283.202 371.532 300.528 358.014 319.768L365.35 350.233L349.638 333.533C321.187 387.989 339.375 450.621 339.375 450.621C339.375 450.621 414.541 387.819 426.111 368.638C430.576 361.23 431.091 345.024 430.038 327.922C419.622 326.47 405.034 322.909 405.034 322.909Z" fill="#0095E0"/>
<path d="M422.743 271.258C422.743 271.258 349.425 383.042 339.385 450.621C339.385 450.621 414.551 387.819 426.12 368.638C430.585 361.23 431.101 345.024 430.048 327.922C419.627 326.47 405.039 322.909 405.039 322.909L428.108 306.815C425.827 287.402 422.743 271.258 422.743 271.258Z" fill="url(#paint14_linear_661_295)"/>
<path d="M469.031 340.166C448.929 341.473 431.518 346.64 416.506 354.118C416.021 361.567 415.239 370.465 415.239 370.465L406.431 359.683C352.097 392.75 333.41 455.535 333.41 455.535C377.481 453.319 407.235 440.89 427.324 424.954C425.685 420.211 423.151 413.201 423.151 413.201L433.572 419.617C442.655 411.247 449.414 402.166 454.447 393.244C448.999 389.945 442.956 386.048 442.956 386.048L458.856 384.55C469.647 360.754 469.031 340.166 469.031 340.166Z" fill="#0095E0"/>
<path d="M427.324 424.958C425.685 420.215 423.151 413.205 423.151 413.205L433.572 419.621C442.655 411.251 449.414 402.171 454.447 393.248C448.999 389.949 442.956 386.052 442.956 386.052L458.856 384.554C469.652 360.749 469.031 340.166 469.031 340.166C402.691 374.615 333.41 455.535 333.41 455.535C377.481 453.319 407.235 440.89 427.324 424.958Z" fill="url(#paint15_linear_661_295)"/>
<path d="M644.502 419.746H657.889C655.7 418.323 652.961 417.472 649.976 417.472H314.596C297.05 417.472 282.824 429.449 282.824 444.223V461.213C282.824 475.987 297.05 487.964 314.596 487.964L646.228 487.868L644.502 419.746Z" fill="#0084C8"/>
<path d="M311.653 462.296V444.883C311.653 429.743 326.228 417.468 344.211 417.468H336.832C318.849 417.468 304.273 429.743 304.273 444.883V462.296C304.273 477.435 318.849 489.711 336.832 489.711H344.115C326.18 489.661 311.653 477.41 311.653 462.296Z" fill="#F8F8F8"/>
<path d="M392.145 462.296V444.883C392.145 429.743 406.72 417.468 424.704 417.468H417.324C399.341 417.468 384.766 429.743 384.766 444.883V462.296C384.766 477.435 399.341 489.711 417.324 489.711H424.607C406.672 489.661 392.145 477.41 392.145 462.296Z" fill="#F8F8F8"/>
<path d="M458.335 417.534C441.139 417.534 427.201 429.27 427.201 443.749V463.428C427.201 477.908 441.139 489.644 458.335 489.644H672.285V485.241H671.403L617.012 480.904L606.019 444.592C606.019 444.592 627.236 424.526 628.621 424.008C630.006 423.489 671.403 421.92 671.403 421.92L672.285 421.912V417.534H458.335Z" fill="url(#paint16_linear_661_295)"/>
<path d="M658.415 453.461C658.415 432.229 671.444 421.938 671.444 421.938H462.719C446.925 421.938 434.119 432.719 434.119 446.016V461.163C434.119 474.46 446.925 485.241 462.719 485.241H671.444C671.444 485.246 658.415 480.195 658.415 453.461Z" fill="#F8F8F8"/>
<path d="M434.121 446.015V461.163C434.121 463.154 434.414 465.088 434.956 466.935C441.994 452.435 455.486 438.466 481.172 433.972C541.138 423.485 671.446 421.933 671.446 421.933H462.721C446.923 421.937 434.121 432.718 434.121 446.015Z" fill="#13AFFF"/>
<path d="M647.791 564.19H663.319C660.776 562.364 657.6 561.272 654.144 561.272H265.163C244.812 561.272 228.314 576.636 228.314 595.585V617.38C228.314 636.329 244.812 651.692 265.163 651.692L649.796 651.572L647.791 564.19Z" fill="url(#paint17_linear_661_295)"/>
<path d="M426.96 561.351C407.5 561.351 391.719 576.042 391.719 594.165V618.796C391.719 636.919 407.496 651.609 426.96 651.609H669.112V646.098H668.112L606.551 640.67L594.108 595.215C594.108 595.215 618.125 570.1 619.689 569.448C621.253 568.801 668.112 566.833 668.112 566.833L669.112 566.825V561.347H426.96V561.351Z" fill="#0084C8"/>
<path d="M653.406 606.32C653.406 579.744 668.151 566.862 668.151 566.862H431.919C414.041 566.862 399.553 580.358 399.553 597.004V615.965C399.553 632.611 414.045 646.106 431.919 646.106H668.151C668.151 646.102 653.406 639.782 653.406 606.32Z" fill="#F8F8F8"/>
<path d="M399.553 597.003V615.965C399.553 618.455 399.885 620.874 400.496 623.194C408.466 605.042 423.736 587.558 452.803 581.935C520.673 568.808 668.156 566.866 668.156 566.866H431.923C414.041 566.862 399.553 580.358 399.553 597.003Z" fill="#13AFFF"/>
<path d="M215.493 491.839H199.961C202.504 490.391 205.68 489.523 209.14 489.523H598.273C618.633 489.523 635.136 501.712 635.136 516.752V534.045C635.136 549.08 618.629 561.273 598.273 561.273L213.492 561.177L215.493 491.839Z" fill="url(#paint18_linear_661_295)"/>
<path d="M436.417 489.59C455.885 489.59 471.671 501.247 471.671 515.627V535.169C471.671 549.549 455.885 561.206 436.417 561.206H194.168V556.837H195.169L256.751 552.529L269.198 516.461C269.198 516.461 245.173 496.533 243.609 496.018C242.04 495.504 195.169 493.943 195.169 493.943L194.168 493.935V489.586H436.417V489.59Z" fill="url(#paint19_linear_661_295)"/>
<path d="M209.879 525.271C209.879 504.185 195.125 493.964 195.125 493.964H431.454C449.336 493.964 463.833 504.671 463.833 517.88V532.924C463.833 546.133 449.336 556.84 431.454 556.84H195.125C195.125 556.836 209.879 551.823 209.879 525.271Z" fill="#F8F8F8"/>
<path d="M463.833 517.876V532.92C463.833 534.895 463.501 536.817 462.889 538.655C454.92 524.251 439.641 510.377 410.561 505.916C342.665 495.5 195.125 493.96 195.125 493.96H431.454C449.336 493.96 463.833 504.667 463.833 517.876Z" fill="#13AFFF"/>
<path d="M563.848 534.045V516.752C563.848 501.716 547.346 489.523 526.986 489.523H563.94C584.3 489.523 600.802 501.712 600.802 516.752V534.045C600.802 549.08 584.296 561.273 563.94 561.273L527.476 561.264C547.608 561.069 563.848 548.96 563.848 534.045Z" fill="url(#paint20_linear_661_295)"/>
<path d="M200.5 176C200.5 176 199.533 186.285 192 187C199.533 187.712 200.5 198 200.5 198C200.5 198 201.467 187.712 209 187C201.47 186.288 200.5 176 200.5 176Z" fill="#13AFFF"/>
<path d="M152.6 367C152.6 367 151.167 380.442 140 381.371C151.167 382.301 152.6 395.743 152.6 395.743C152.6 395.743 154.034 382.301 165.201 381.371C154.034 380.442 152.6 367 152.6 367Z" fill="#0095E0"/>
<path d="M681.427 388.916C681.427 388.916 679.989 402.357 668.826 403.287C679.989 404.217 681.427 417.658 681.427 417.658C681.427 417.658 682.86 404.221 694.027 403.287C682.86 402.357 681.427 388.916 681.427 388.916Z" fill="#0095E0"/>
<path d="M693.038 255.228C693.038 255.228 692.256 263.714 686.188 264.299C692.256 264.885 693.038 273.371 693.038 273.371C693.038 273.371 693.82 264.885 699.885 264.299C693.82 263.714 693.038 255.228 693.038 255.228Z" fill="#13AFFF"/>
<path d="M203.075 597.437L184.218 598.345L181.833 651.482L172.186 655.893L172.649 657.831L176.231 658.636C176.231 658.636 187.831 658.446 188.181 658.446C188.53 658.446 190.92 655.939 190.92 655.939L190.562 655.503L192.489 654.258L203.075 597.437Z" fill="url(#paint21_linear_661_295)"/>
<path d="M254.156 655.89C254.156 655.89 244.736 651.396 244.504 651.479L246.636 597.371L223.262 597.438L233.848 654.255L235.006 655.002C234.717 655.944 234.486 656.766 234.429 657.023C234.281 657.733 238.414 657.778 239.856 658.015C241.297 658.251 245.483 658.679 248.17 659.384C250.857 660.094 254.243 658.015 254.243 658.015L254.156 655.89Z" fill="url(#paint22_linear_661_295)"/>
<path d="M254.785 451.39C252.063 444.667 249.415 447.332 244.5 439.198C243.718 437.907 243.154 436.235 242.761 434.691C241.581 430.08 239.034 425.868 235.255 422.768C223.738 413.318 210.705 417.514 210.705 417.514C210.705 417.514 214.087 435.778 214.733 439.48C211.854 443.203 208.953 447 208.953 447C208.953 447 202.889 477.021 212.405 479.556C221.92 482.088 223.651 478.025 228.295 475.909C232.939 473.792 237.474 479.569 244.417 475.548C249.721 472.477 247.025 464.82 249.83 463.384C252.635 461.948 257.721 458.645 254.785 451.39Z" fill="#2D3A6E"/>
<path d="M205.772 432.662C205.601 432.591 201.241 430.255 197.156 428.064L222.518 401.242C222.518 401.242 214.833 399.827 214.366 399.773C213.898 399.719 202.875 402.977 202.875 402.977L191.511 405.899C182.838 435.957 172.038 441.402 172.034 441.402C170.732 442.223 169.495 443.323 168.25 445.24C163.946 451.856 168.302 455.993 170.775 457.902C173.253 459.807 169.111 466.858 173.72 470.809C179.758 475.984 185.342 471.103 189.492 474C193.643 476.897 194.552 481.196 204.395 480.383C214.239 479.573 214.143 449 214.143 449C214.143 449 206.091 432.795 205.772 432.662Z" fill="#2D3A6E"/>
<path d="M248.828 487.457C248.828 487.457 257.199 525.413 254.77 529.518C252.341 533.622 220.477 534.904 220.477 534.904L219.127 486.175L231.277 468.737L248.828 487.457Z" fill="url(#paint23_linear_661_295)"/>
<path d="M238.726 531.398L232.771 515.906C232.771 515.906 213.176 509.125 211.931 509.042C210.685 508.959 194.096 515.906 194.096 515.906C194.096 515.906 189.023 525.655 188.036 527.406C187.486 528.377 188.753 534.345 189.993 539.47L182.964 539.785L178.293 637.75C178.293 637.75 188.412 642.925 199.308 638.489L208.261 552.92L216.046 551.812L227.72 636.638C227.72 636.638 237.062 643.29 250.296 637.746L241.527 543.342C241.147 539.262 240.207 535.245 238.726 531.398Z" fill="#2D3A6E"/>
<path d="M200.611 457.213C200.611 457.213 209.306 455.483 225.48 456.574C241.655 457.665 218 466.318 218 466.318C218 466.318 209.699 466.061 209.341 465.999C208.982 465.932 200.611 457.213 200.611 457.213Z" fill="url(#paint24_linear_661_295)"/>
<path d="M221.187 448.535H206.826V472.472H221.187V448.535Z" fill="url(#paint25_linear_661_295)"/>
<path d="M221.161 452.627V444.464H206.826V451.411C209.911 452.984 214.481 453.888 221.161 452.627Z" fill="url(#paint26_linear_661_295)"/>
<path d="M241.275 421.889C239.903 421.246 238.308 421.362 236.866 422.055C237.36 409.721 226.774 399.35 213.435 399.786C200.096 399.346 189.51 409.721 190.003 422.055C188.562 421.362 186.967 421.246 185.595 421.889C182.96 423.121 182.143 426.657 183.764 429.786C185.39 432.915 188.841 434.451 191.476 433.214C191.843 433.044 192.17 432.824 192.463 432.571C193.971 442.767 202.927 450.412 213.435 450.266C223.942 450.408 232.895 442.763 234.406 432.571C234.699 432.824 235.027 433.044 235.394 433.214C238.028 434.447 241.48 432.915 243.105 429.786C244.726 426.657 243.909 423.121 241.275 421.889Z" fill="url(#paint27_linear_661_295)"/>
<path d="M207.516 426.433C207.577 427.466 206.743 428.35 205.655 428.404C204.567 428.462 203.637 427.67 203.575 426.636C203.514 425.603 204.349 424.719 205.437 424.665C206.525 424.607 207.455 425.4 207.516 426.433Z" fill="#2D3A6E"/>
<path d="M224.489 426.607C224.55 427.64 223.715 428.524 222.627 428.578C221.539 428.636 220.609 427.843 220.552 426.81C220.491 425.777 221.325 424.893 222.413 424.835C223.501 424.781 224.427 425.573 224.489 426.607Z" fill="#2D3A6E"/>
<path d="M209.677 422.597C208.69 422.274 207.75 422.016 206.815 421.859C205.88 421.701 204.958 421.659 204.058 421.751C203.163 421.85 202.263 422.029 201.398 422.394L201.061 422.514C200.952 422.556 200.851 422.618 200.738 422.664L200.078 422.967C199.637 423.178 199.222 423.444 198.732 423.656C198.995 423.232 199.296 422.817 199.646 422.44C200.03 422.108 200.388 421.705 200.856 421.452C201.73 420.846 202.818 420.506 203.914 420.394C205.015 420.282 206.134 420.448 207.13 420.834C208.122 421.232 209.03 421.805 209.677 422.597Z" fill="#2D3A6E"/>
<path d="M217.625 422.573C218.263 421.772 219.167 421.195 220.155 420.793C221.146 420.398 222.265 420.228 223.366 420.332C224.458 420.44 225.551 420.772 226.433 421.37C226.905 421.623 227.263 422.017 227.652 422.349C228.002 422.727 228.307 423.137 228.574 423.561C228.08 423.353 227.67 423.092 227.224 422.884L226.56 422.586C226.451 422.54 226.35 422.478 226.236 422.436L225.9 422.32C225.035 421.959 224.131 421.789 223.235 421.693C222.335 421.606 221.413 421.656 220.478 421.822C219.547 421.975 218.608 422.241 217.625 422.573Z" fill="#2D3A6E"/>
<path d="M214.41 423.872C214.314 424.856 214.384 425.839 214.58 426.814C214.676 427.304 214.816 427.786 215.017 428.267C215.227 428.744 215.48 429.226 215.939 429.641C216.463 430.027 216.691 430.143 216.844 430.487C216.996 430.794 216.931 431.18 216.765 431.554C216.398 432.309 215.55 432.878 214.624 433.293C215.642 433.247 216.765 432.861 217.433 431.915C217.761 431.454 217.936 430.807 217.726 430.197C217.512 429.566 217.128 429.342 216.712 429.031C216.345 428.752 216.109 428.358 215.874 427.914C215.655 427.516 215.502 427.068 215.327 426.628C214.995 425.735 214.716 424.81 214.41 423.872Z" fill="url(#paint28_linear_661_295)"/>
<path d="M207.941 435.616C208.483 435.973 209.047 436.297 209.637 436.571C210.218 436.857 210.816 437.106 211.432 437.309C212.66 437.712 213.945 437.965 215.233 437.965C216.522 437.973 217.802 437.72 219.008 437.26C220.205 436.786 221.315 436.106 222.346 435.317C221.892 435.774 221.398 436.197 220.865 436.579C220.332 436.961 219.751 437.276 219.148 437.567C218.541 437.836 217.899 438.052 217.239 438.193C216.579 438.326 215.902 438.397 215.229 438.401C213.879 438.388 212.538 438.11 211.301 437.621C210.074 437.131 208.916 436.471 207.941 435.616Z" fill="url(#paint29_linear_661_295)"/>
<path d="M241.928 461.998C234.146 454.822 223.39 456.345 223.39 456.345C222.188 457.486 220.982 458.35 219.789 458.997C218.086 459.819 215.945 460.533 213.559 460.591C213.515 460.591 213.476 460.591 213.432 460.591C213.389 460.591 213.349 460.591 213.306 460.591C210.92 460.528 208.784 459.819 207.075 458.997C205.883 458.35 204.681 457.491 203.475 456.345C203.475 456.345 192.719 454.822 184.942 461.998C177.16 469.169 169.379 484.993 169.379 484.993C169.379 484.993 179.218 493.517 188.603 494.6C188.603 494.6 193.182 514.599 194.095 515.902C194.095 515.902 198.818 518.01 205.682 519.11C208.181 519.562 210.636 519.749 212.991 519.757C213.135 519.761 213.284 519.757 213.428 519.761C213.572 519.761 213.721 519.761 213.865 519.757C216.22 519.745 218.675 519.558 221.174 519.11C228.043 518.006 232.761 515.902 232.761 515.902C233.679 514.599 238.253 494.6 238.253 494.6C247.634 493.513 257.477 484.993 257.477 484.993C257.477 484.993 249.705 469.169 241.928 461.998Z" fill="#FCBA3A"/>
<path d="M214.273 510.511C214.273 510.511 217.166 510.055 218.756 512.072L218.647 517.263L215.112 518.828C215.112 518.828 210.739 515.292 211.066 515.201C211.394 515.109 214.273 510.511 214.273 510.511Z" fill="url(#paint30_linear_661_295)"/>
<path d="M223.266 544.425L176.735 557.215L172.227 524.858L218.757 512.067L223.266 544.425Z" fill="url(#paint31_linear_661_295)"/>
<path d="M172.887 552.007L176.976 555.285L221.51 543.159L217.508 512.665L214.367 511.412L172.887 552.007Z" fill="#F8F8F8"/>
<path d="M221.515 543.159L218.338 540.532L212.527 534.473L212.881 517.79L214.371 511.412L217.526 512.615L221.515 543.159Z" fill="#13AFFF"/>
<path d="M218.337 540.532L171.806 553.323L167.738 523.297L214.273 510.511L218.337 540.532Z" fill="url(#paint32_linear_661_295)"/>
<path d="M195.506 477.245C194.427 478.494 193.443 479.793 192.539 481.133C191.639 482.478 190.831 483.872 190.175 485.325C189.516 486.773 189.013 488.288 188.729 489.84C188.445 491.396 188.415 492.99 188.607 494.6C188.083 493.06 187.93 491.392 188.109 489.761C188.275 488.126 188.769 486.528 189.441 485.022C190.136 483.524 191.001 482.1 192.024 480.797C193.042 479.498 194.186 478.274 195.506 477.245Z" fill="#F8F8F8"/>
<path d="M185.848 531.822C177.656 518.646 181.449 502.614 184.686 493.754C178.255 491.787 172.296 487.338 170.19 485.657C157.109 513.703 179.26 537.702 179.26 537.702L179.304 537.665C179.727 538.57 180.033 539.379 180.033 539.379C185.254 548.347 185.481 548.202 185.857 548.073C186.233 547.944 185.198 543.682 185.661 543.695C186.124 543.707 189.418 548.845 189.658 548.359C189.899 547.878 187.465 542.782 187.819 542.695C188.173 542.608 191.279 547.608 191.961 547.177C192.642 546.745 189.051 541.375 189.737 541.242C190.427 541.109 193.962 546.699 194.517 546.21C194.984 545.799 191.192 539.454 189.969 537.445C189.811 537.188 190.025 536.864 190.34 536.881C195.185 537.146 195.578 536.897 195.487 536.387C195.43 536.03 189.61 533.453 185.848 531.822Z" fill="url(#paint33_linear_661_295)"/>
<path d="M240.666 457.752C230.625 492.085 242.745 502.215 242.798 502.481L240.985 510.469C240.985 510.469 216.251 495.193 231.927 454.498C232.369 453.353 233.679 452.755 234.846 453.266L239.538 455.333C240.5 455.752 240.95 456.777 240.666 457.752Z" fill="url(#paint34_linear_661_295)"/>
<path d="M262.586 541.59C262.586 541.59 262.267 540.83 261.965 539.93C261.965 539.926 261.965 539.921 261.97 539.917H261.965L261.494 536.589C261.201 529.044 259.881 502.281 255.543 486.532C252.24 489.022 245.227 493.728 238.416 494.574C242.685 503.049 251.619 522.587 253.166 540.345C251.593 543.731 249.47 548.416 249.653 548.694C249.929 549.109 250.37 549.056 253.629 545.972C253.839 545.773 254.202 545.872 254.263 546.15C254.726 548.304 256.233 555.065 256.836 555.081C257.553 555.098 256.36 549.022 256.937 548.703C257.513 548.387 258.518 554.338 259.287 554.239C260.056 554.135 258.951 548.736 259.257 548.587C259.567 548.437 261.21 553.5 261.699 553.699C262.188 553.899 261.127 548.288 261.45 548.006C261.769 547.723 263.857 551.363 264.207 551.226C264.556 551.097 264.814 551.064 262.586 541.59Z" fill="url(#paint35_linear_661_295)"/>
<path d="M185.875 421.756C185.875 421.756 184.42 396.229 214.366 394.544C214.366 394.544 213.435 419.619 190.003 422.055L188.195 418.722L185.875 421.756Z" fill="#2D3A6E"/>
<path d="M214.368 394.544C214.368 394.544 238.66 393.249 239.949 421.502C239.949 421.502 238.184 421.382 236.868 422.054C236.868 422.054 217.631 417.485 212.852 399.773L214.368 394.544Z" fill="#2D3A6E"/>
<path d="M180.363 657.828C175.483 658.293 173.176 657.284 172.184 655.89L168.877 657.94C167.566 658.732 168.156 660.662 169.711 660.662H191.198C191.954 660.662 192.57 660.077 192.57 659.359V653.844C191.189 655.197 187.934 657.11 180.363 657.828Z" fill="#2D3A6E"/>
<path d="M245.975 657.828C250.855 658.293 253.162 657.284 254.154 655.89L257.461 657.94C258.772 658.732 258.182 660.662 256.627 660.662H235.139C234.384 660.662 233.768 660.077 233.768 659.359V653.844C235.148 655.197 238.403 657.11 245.975 657.828Z" fill="#2D3A6E"/>
<path d="M543.765 474.985L540.199 482.538C539.907 483.161 540.199 483.895 540.855 484.173L559.476 492.104C560.822 492.677 562.124 491.224 561.315 490.054L554.106 479.388C554.106 479.388 548.409 480.38 543.765 474.985Z" fill="url(#paint36_linear_661_295)"/>
<path d="M520.101 474.985L516.535 482.538C516.243 483.161 516.535 483.895 517.191 484.173L535.812 492.104C537.158 492.677 538.46 491.224 537.651 490.054L530.447 479.388C530.447 479.388 524.749 480.38 520.101 474.985Z" fill="url(#paint37_linear_661_295)"/>
<path d="M479.876 266.718L477.897 278.517L473.711 262.788C473.711 262.788 479.574 260.086 479.832 261.07C480.09 262.049 479.876 266.718 479.876 266.718Z" fill="#2D3A6E"/>
<path d="M446.596 292.108L444.787 312.501L463.731 311.642L461.547 293.582L446.596 292.108Z" fill="url(#paint38_linear_661_295)"/>
<path d="M462.585 302.172L461.545 293.582L446.594 292.108L445.965 299.172C448.94 301.985 454.284 304.899 462.585 302.172Z" fill="url(#paint39_linear_661_295)"/>
<path d="M474.205 278.367C473.064 280.604 473.672 283.123 475.555 283.986C477.438 284.854 479.893 283.737 481.029 281.5C482.169 279.264 481.562 276.745 479.679 275.881C477.796 275.018 475.345 276.126 474.205 278.367Z" fill="url(#paint40_linear_661_295)"/>
<path d="M476.952 280.007C477.053 279.426 477.188 278.849 477.332 278.272C477.922 275.953 478.079 273.463 477.669 270.869C476.354 262.523 469.285 255.871 460.485 254.717C448.632 253.161 438.185 261.498 437.451 272.541C436.232 271.798 434.821 271.558 433.537 272.014C431.072 272.886 430.002 275.969 431.151 278.895C432.3 281.821 435.227 283.489 437.696 282.613C438.037 282.493 438.351 282.323 438.635 282.124C439.015 291.581 446.635 299.321 456.369 299.753C461.127 299.964 465.558 298.387 468.992 295.628C473.662 292.366 476.03 285.444 476.952 280.007Z" fill="url(#paint41_linear_661_295)"/>
<path d="M462.194 273.84C462.233 274.94 462.242 276.019 462.303 277.069C462.377 278.098 462.495 279.202 462.928 279.924C463.369 280.509 463.719 280.887 463.732 281.609C463.758 282.339 463.352 282.991 462.849 283.389C461.814 284.215 460.473 284.294 459.367 284.032C460.499 283.841 461.582 283.472 462.216 282.771C462.509 282.422 462.701 282.032 462.635 281.667C462.587 281.264 462.456 281.181 461.945 280.505C461.582 279.915 461.464 279.322 461.399 278.745C461.342 278.168 461.351 277.608 461.408 277.048C461.512 275.948 461.761 274.865 462.194 273.84Z" fill="url(#paint42_linear_661_295)"/>
<path d="M455.468 275.027C455.599 276.168 454.533 277.089 453.349 276.861C452.611 276.72 452.034 276.114 451.956 275.404C451.829 274.263 452.886 273.35 454.07 273.574C454.809 273.711 455.39 274.317 455.468 275.027Z" fill="#2D3A6E"/>
<path d="M470.58 276.649C470.707 277.791 469.645 278.704 468.466 278.479C467.727 278.338 467.151 277.737 467.068 277.027C466.937 275.886 468.003 274.964 469.187 275.193C469.925 275.334 470.502 275.94 470.58 276.649Z" fill="#2D3A6E"/>
<path d="M452.516 286.66C452.979 287.041 453.464 287.398 453.975 287.714C454.482 288.037 455.006 288.332 455.548 288.581C456.636 289.079 457.789 289.444 458.977 289.581C460.166 289.722 461.376 289.627 462.538 289.332C463.7 289.021 464.801 288.515 465.85 287.905C464.714 288.814 463.775 289.266 462.643 289.656C461.45 290.034 460.262 290.162 458.921 290.017C457.671 289.863 456.465 289.465 455.382 288.88C454.303 288.291 453.311 287.556 452.516 286.66Z" fill="url(#paint43_linear_661_295)"/>
<path d="M457.696 271.503C456.796 271.238 455.949 271.038 455.114 270.914C454.28 270.789 453.458 270.769 452.659 270.864C451.864 270.964 451.064 271.126 450.3 271.458C449.71 271.632 448.285 272.429 447.914 272.582C448.351 271.819 448.984 271.001 449.767 270.549C450.544 269.988 451.519 269.665 452.506 269.549C453.498 269.437 454.511 269.574 455.411 269.914C456.298 270.267 457.12 270.785 457.696 271.503Z" fill="#2D3A6E"/>
<path d="M465.484 272.338C466.197 271.74 467.105 271.379 468.058 271.205C469.01 271.034 470.033 271.088 470.981 271.379C471.924 271.674 472.816 272.172 473.462 272.865C474.14 273.454 474.594 274.375 474.865 275.201C474.528 274.977 473.292 273.935 472.755 273.657C472.069 273.188 471.317 272.885 470.561 272.636C469.797 272.4 468.988 272.267 468.145 272.234C467.293 272.205 466.419 272.246 465.484 272.338Z" fill="#2D3A6E"/>
<path d="M457.028 387.774C457.028 387.774 453.079 413.234 478.974 417.666C504.87 422.102 537.092 420.778 537.092 420.778L541.575 479.26L555.093 479.916C555.093 479.916 589.905 398.663 541.719 385.96L498.417 386.163L480.586 384.952C480.586 384.952 462.542 380.719 462.332 381.524C462.123 382.329 457.452 388.176 457.028 387.774Z" fill="#2D3A6E"/>
<path d="M433.229 387.907C433.229 387.907 429.28 413.367 455.175 417.799C481.071 422.236 513.293 420.912 513.293 420.912L517.776 479.389L531.294 480.045C531.294 480.045 566.107 398.792 517.92 386.089L474.618 386.293L456.788 385.085C456.788 385.085 438.743 380.852 438.534 381.657C438.324 382.462 433.653 388.309 433.229 387.907Z" fill="#2D3A6E"/>
<path d="M465.845 304.367C465.845 304.367 483.675 306.517 488.206 310.011C492.732 313.505 514.525 364.853 514.525 364.853L496.411 385.014L457.919 385.283C457.919 385.283 429.053 400.07 410.939 386.089C392.824 372.111 402.165 323.453 412.638 312.966C423.111 302.483 441.789 302.753 441.789 302.753C441.789 302.753 458.771 314.045 465.845 304.367Z" fill="url(#paint44_linear_661_295)"/>
<path d="M431.32 329.906C431.958 332.703 432.347 335.546 432.627 338.397C432.779 339.821 432.845 341.252 432.932 342.684C432.976 344.116 433.011 345.548 432.994 346.983C432.932 349.851 432.771 352.727 432.251 355.566C431.744 358.392 431.01 361.23 429.625 363.783C430.556 361.056 431.019 358.255 431.351 355.449C431.678 352.64 431.792 349.805 431.831 346.971C431.893 344.137 431.818 341.298 431.727 338.455C431.613 335.608 431.477 332.761 431.32 329.906Z" fill="white"/>
<path d="M484.666 328.026C485.479 332.189 486.344 336.339 487.222 340.485C488.118 344.622 489.044 348.751 490.097 352.852C491.141 356.952 492.299 361.023 493.701 365.015C494.405 367.011 495.187 368.979 496.109 370.892C497.013 372.809 498.088 374.664 499.53 376.282C497.891 374.83 496.685 372.987 495.597 371.132C494.54 369.252 493.631 367.298 492.849 365.306C492.05 363.318 491.359 361.293 490.708 359.259C490.079 357.222 489.507 355.167 488.97 353.109C488.458 351.042 487.969 348.976 487.528 346.896C487.104 344.813 486.685 342.734 486.335 340.638C485.601 336.455 485.037 332.247 484.666 328.026Z" fill="white"/>
<path d="M523.275 337.314C519.981 332.446 493.002 324.18 493.002 324.18C493.002 332.081 493.002 332.422 493.002 332.422L520.466 341.543L523.275 337.314Z" fill="#F8F8F8"/>
<path d="M521.333 336.982L490.002 323.262V328.587L520.559 339.061L521.333 336.982Z" fill="white"/>
<path d="M519.591 336.982L486.521 325.097V334.285L519.259 339.061L519.591 336.982Z" fill="#F8F8F8"/>
<path d="M523.273 336.045C523.273 336.045 529.648 321.881 532.261 318.942C532.261 328.259 528.294 339.979 528.294 339.979L523.273 336.045Z" fill="white"/>
<path d="M526.057 336.671L533.79 318.116V326.956L528.477 339.061L526.057 336.671Z" fill="#F8F8F8"/>
<path d="M528.477 336.982L536.9 318.942V325.375L528.477 336.982Z" fill="white"/>
<path d="M528.477 392.571L539.098 375.191V319.606L528.477 336.982V392.571Z" fill="#0084C8"/>
<path d="M479.535 384.176L517.149 392.571V336.982L479.535 328.586V384.176Z" fill="#0095E0"/>
<path d="M517.146 336.982C520.463 335.475 527.401 336.006 528.476 336.982C527.908 340.16 517.99 340.787 517.146 336.982Z" fill="#F8F8F8"/>
<path d="M517.146 392.572C517.146 393.933 528.528 393.933 528.528 392.572V336.983C527.375 338.601 518.431 338.556 517.146 336.983V392.572Z" fill="url(#paint45_linear_661_295)"/>
<path d="M493.628 373.398C493.514 372.548 486.712 371.597 484.213 371.473C482.316 371.382 469.76 370.983 465.491 370.796L465.806 371.838L465.74 376.445L465.041 379.499C468.79 379.723 477.947 380.063 479.857 380.424C482.404 380.902 486.825 382.728 486.825 382.728C486.825 382.728 488.665 382.329 486.327 381.375C484.453 380.607 483.133 379.416 482.579 378.822C482.26 378.482 482.605 377.876 482.836 377.934C489.198 379.516 489.849 379.781 489.849 379.781C489.849 379.781 497.324 379.74 489.892 378.146C485.436 377.187 483.841 376.631 483.444 376.158C483.273 375.955 483.575 375.27 483.846 375.253C487.708 375.029 494.633 376.328 492.737 375.473C491.19 374.78 486.314 374.017 484.418 373.73C484.3 373.714 484.112 373.042 484.632 373C488.311 372.705 493.733 374.187 493.628 373.398Z" fill="url(#paint46_linear_661_295)"/>
<path d="M426.969 363.073C428.533 363.434 430.08 363.849 431.648 364.165C433.208 364.517 434.794 364.775 436.358 365.09C439.512 365.638 442.68 366.111 445.852 366.534C449.028 366.933 452.213 367.294 455.403 367.588C458.579 367.887 461.812 368.145 464.958 368.311L465.382 368.331L465.474 368.68C465.744 369.692 465.919 370.68 466.055 371.697C466.186 372.705 466.243 373.722 466.243 374.743C466.234 375.764 466.142 376.781 465.963 377.789C465.766 378.798 465.452 379.785 465.032 380.727L464.997 380.81L464.927 380.852L461.432 383.08C460.266 383.823 459.099 384.562 457.919 385.284C459.016 384.45 460.121 383.628 461.236 382.815L464.569 380.37L464.464 380.495C464.814 379.582 465.063 378.636 465.198 377.669C465.321 376.702 465.377 375.722 465.347 374.743C465.312 373.764 465.211 372.788 465.067 371.817C464.919 370.85 464.718 369.871 464.447 368.954L464.962 369.323C463.298 369.282 461.725 369.178 460.108 369.066C458.501 368.954 456.893 368.833 455.294 368.672C452.087 368.356 448.888 367.979 445.703 367.493C442.523 367.003 439.355 366.414 436.218 365.713C434.654 365.335 433.09 364.97 431.552 364.505C430.001 364.102 428.48 363.588 426.969 363.073Z" fill="white"/>
<path d="M480.258 255.555C480.258 255.555 486.205 255.738 479.966 250.961C473.726 246.189 456.98 240.59 446.245 245.973C446.245 245.973 444.1 241.636 440.993 242.674C437.891 243.707 443.012 246.691 443.012 246.691C443.012 246.691 439.049 246.57 437.839 248.417C436.943 249.782 439.372 249.841 440.696 249.778C438.442 250.144 429.791 255.331 434.134 271.894C435.676 271.57 444.467 259.46 444.467 259.46C444.467 259.46 464.569 270.068 462.581 261.635C462.581 261.635 483.408 273.981 480.455 263.785C480.459 263.789 488.511 264.349 480.258 255.555Z" fill="#2D3A6E"/>
<path d="M434.117 271.998C434.117 271.998 435.782 271.441 437.573 272.79C439.364 274.139 439.168 278.882 439.168 278.882C439.168 278.882 447.714 284.116 446.814 261.967C445.857 238.403 439.683 263.855 439.683 263.855L434.117 271.998Z" fill="#2D3A6E"/>
<defs>
<linearGradient id="paint0_linear_661_295" x1="593.572" y1="256.085" x2="593.123" y2="257.882" gradientUnits="userSpaceOnUse">
<stop stop-color="#0076B2"/>
<stop offset="1" stop-color="#2CB8FF"/>
</linearGradient>
<linearGradient id="paint1_linear_661_295" x1="594.829" y1="251.561" x2="594.379" y2="253.358" gradientUnits="userSpaceOnUse">
<stop stop-color="#0076B2"/>
<stop offset="1" stop-color="#2CB8FF"/>
</linearGradient>
<linearGradient id="paint2_linear_661_295" x1="588.382" y1="274.823" x2="587.932" y2="276.621" gradientUnits="userSpaceOnUse">
<stop stop-color="#0076B2"/>
<stop offset="1" stop-color="#2CB8FF"/>
</linearGradient>
<linearGradient id="paint3_linear_661_295" x1="586.005" y1="283.405" x2="585.555" y2="285.202" gradientUnits="userSpaceOnUse">
<stop stop-color="#0076B2"/>
<stop offset="1" stop-color="#2CB8FF"/>
</linearGradient>
<linearGradient id="paint4_linear_661_295" x1="581.247" y1="300.568" x2="580.798" y2="302.366" gradientUnits="userSpaceOnUse">
<stop stop-color="#0076B2"/>
<stop offset="1" stop-color="#2CB8FF"/>
</linearGradient>
<linearGradient id="paint5_linear_661_295" x1="578.872" y1="309.156" x2="578.423" y2="310.954" gradientUnits="userSpaceOnUse">
<stop stop-color="#0076B2"/>
<stop offset="1" stop-color="#2CB8FF"/>
</linearGradient>
<linearGradient id="paint6_linear_661_295" x1="576.495" y1="317.739" x2="576.046" y2="319.537" gradientUnits="userSpaceOnUse">
<stop stop-color="#0076B2"/>
<stop offset="1" stop-color="#2CB8FF"/>
</linearGradient>
<linearGradient id="paint7_linear_661_295" x1="566.036" y1="355.49" x2="565.587" y2="357.287" gradientUnits="userSpaceOnUse">
<stop stop-color="#0076B2"/>
<stop offset="1" stop-color="#2CB8FF"/>
</linearGradient>
<linearGradient id="paint8_linear_661_295" x1="563.565" y1="364.391" x2="563.116" y2="366.188" gradientUnits="userSpaceOnUse">
<stop stop-color="#0076B2"/>
<stop offset="1" stop-color="#2CB8FF"/>
</linearGradient>
<linearGradient id="paint9_linear_661_295" x1="561.104" y1="373.288" x2="560.655" y2="375.086" gradientUnits="userSpaceOnUse">
<stop stop-color="#0076B2"/>
<stop offset="1" stop-color="#2CB8FF"/>
</linearGradient>
<linearGradient id="paint10_linear_661_295" x1="558.638" y1="382.191" x2="558.188" y2="383.989" gradientUnits="userSpaceOnUse">
<stop stop-color="#0076B2"/>
<stop offset="1" stop-color="#2CB8FF"/>
</linearGradient>
<linearGradient id="paint11_linear_661_295" x1="556.171" y1="391.089" x2="555.722" y2="392.886" gradientUnits="userSpaceOnUse">
<stop stop-color="#0076B2"/>
<stop offset="1" stop-color="#2CB8FF"/>
</linearGradient>
<linearGradient id="paint12_linear_661_295" x1="553.706" y1="399.992" x2="553.257" y2="401.79" gradientUnits="userSpaceOnUse">
<stop stop-color="#0076B2"/>
<stop offset="1" stop-color="#2CB8FF"/>
</linearGradient>
<linearGradient id="paint13_linear_661_295" x1="551.235" y1="408.892" x2="550.786" y2="410.69" gradientUnits="userSpaceOnUse">
<stop stop-color="#0076B2"/>
<stop offset="1" stop-color="#2CB8FF"/>
</linearGradient>
<linearGradient id="paint14_linear_661_295" x1="384.948" y1="271.258" x2="384.948" y2="450.621" gradientUnits="userSpaceOnUse">
<stop stop-color="#0076B2"/>
<stop offset="1" stop-color="#2CB8FF"/>
</linearGradient>
<linearGradient id="paint15_linear_661_295" x1="401.224" y1="340.166" x2="401.224" y2="455.535" gradientUnits="userSpaceOnUse">
<stop stop-color="#0076B2"/>
<stop offset="1" stop-color="#2CB8FF"/>
</linearGradient>
<linearGradient id="paint16_linear_661_295" x1="549.743" y1="417.534" x2="549.743" y2="489.644" gradientUnits="userSpaceOnUse">
<stop stop-color="#0076B2"/>
<stop offset="1" stop-color="#2CB8FF"/>
</linearGradient>
<linearGradient id="paint17_linear_661_295" x1="445.817" y1="561.272" x2="445.817" y2="651.692" gradientUnits="userSpaceOnUse">
<stop stop-color="#0076B2"/>
<stop offset="1" stop-color="#2CB8FF"/>
</linearGradient>
<linearGradient id="paint18_linear_661_295" x1="417.471" y1="577.2" x2="417.471" y2="475.641" gradientUnits="userSpaceOnUse">
<stop stop-color="#FFC444"/>
<stop offset="0.9964" stop-color="#F36F56"/>
</linearGradient>
<linearGradient id="paint19_linear_661_295" x1="332.919" y1="489.586" x2="332.919" y2="561.206" gradientUnits="userSpaceOnUse">
<stop stop-color="#0095E0"/>
<stop offset="1" stop-color="#00669A"/>
</linearGradient>
<linearGradient id="paint20_linear_661_295" x1="563.894" y1="489.523" x2="563.894" y2="561.273" gradientUnits="userSpaceOnUse">
<stop stop-color="#0095E0"/>
<stop offset="1" stop-color="#00669A"/>
</linearGradient>
<linearGradient id="paint21_linear_661_295" x1="187.63" y1="597.437" x2="187.63" y2="658.636" gradientUnits="userSpaceOnUse">
<stop stop-color="#FEEFD2"/>
<stop offset="1" stop-color="#FFF9EE"/>
</linearGradient>
<linearGradient id="paint22_linear_661_295" x1="238.752" y1="597.371" x2="238.752" y2="659.532" gradientUnits="userSpaceOnUse">
<stop stop-color="#FEEFD2"/>
<stop offset="1" stop-color="#FFF9EE"/>
</linearGradient>
<linearGradient id="paint23_linear_661_295" x1="237.163" y1="549.593" x2="237.163" y2="455.934" gradientUnits="userSpaceOnUse">
<stop stop-color="#FFC444"/>
<stop offset="0.9964" stop-color="#F36F56"/>
</linearGradient>
<linearGradient id="paint24_linear_661_295" x1="215.874" y1="456.213" x2="215.874" y2="466.318" gradientUnits="userSpaceOnUse">
<stop stop-color="#FEEFD2"/>
<stop offset="1" stop-color="#FFF9EE"/>
</linearGradient>
<linearGradient id="paint25_linear_661_295" x1="214.007" y1="448.535" x2="214.007" y2="472.472" gradientUnits="userSpaceOnUse">
<stop stop-color="#FEEFD2"/>
<stop offset="1" stop-color="#FFF9EE"/>
</linearGradient>
<linearGradient id="paint26_linear_661_295" x1="216.848" y1="457.009" x2="212.39" y2="445.441" gradientUnits="userSpaceOnUse">
<stop stop-color="#D5A2EA"/>
<stop offset="1" stop-color="#FFC444"/>
</linearGradient>
<linearGradient id="paint27_linear_661_295" x1="213.435" y1="399.772" x2="213.435" y2="450.268" gradientUnits="userSpaceOnUse">
<stop stop-color="#FEEFD2"/>
<stop offset="1" stop-color="#FFF9EE"/>
</linearGradient>
<linearGradient id="paint28_linear_661_295" x1="216.779" y1="437.366" x2="210.574" y2="433.763" gradientUnits="userSpaceOnUse">
<stop stop-color="#D5A2EA"/>
<stop offset="1" stop-color="#FFC444"/>
</linearGradient>
<linearGradient id="paint29_linear_661_295" x1="218.012" y1="439.734" x2="217.392" y2="435.14" gradientUnits="userSpaceOnUse">
<stop stop-color="#D5A2EA"/>
<stop offset="1" stop-color="#FFC444"/>
</linearGradient>
<linearGradient id="paint30_linear_661_295" x1="214.901" y1="520.684" x2="214.901" y2="508.849" gradientUnits="userSpaceOnUse">
<stop stop-color="#FFC444"/>
<stop offset="0.9964" stop-color="#F36F56"/>
</linearGradient>
<linearGradient id="paint31_linear_661_295" x1="197.737" y1="567.238" x2="197.737" y2="503.332" gradientUnits="userSpaceOnUse">
<stop stop-color="#FFC444"/>
<stop offset="0.9964" stop-color="#F36F56"/>
</linearGradient>
<linearGradient id="paint32_linear_661_295" x1="193.029" y1="562.826" x2="193.029" y2="502.228" gradientUnits="userSpaceOnUse">
<stop stop-color="#FFC444"/>
<stop offset="0.9964" stop-color="#F36F56"/>
</linearGradient>
<linearGradient id="paint33_linear_661_295" x1="180.777" y1="485.657" x2="180.777" y2="548.392" gradientUnits="userSpaceOnUse">
<stop stop-color="#FEEFD2"/>
<stop offset="1" stop-color="#FFF9EE"/>
</linearGradient>
<linearGradient id="paint34_linear_661_295" x1="234.757" y1="523.209" x2="234.757" y2="441.978" gradientUnits="userSpaceOnUse">
<stop stop-color="#FFC444"/>
<stop offset="0.9964" stop-color="#F36F56"/>
</linearGradient>
<linearGradient id="paint35_linear_661_295" x1="251.427" y1="486.532" x2="251.427" y2="555.081" gradientUnits="userSpaceOnUse">
<stop stop-color="#FEEFD2"/>
<stop offset="1" stop-color="#FFF9EE"/>
</linearGradient>
<linearGradient id="paint36_linear_661_295" x1="550.825" y1="474.985" x2="550.825" y2="492.233" gradientUnits="userSpaceOnUse">
<stop stop-color="#0076B2"/>
<stop offset="1" stop-color="#2CB8FF"/>
</linearGradient>
<linearGradient id="paint37_linear_661_295" x1="527.161" y1="474.985" x2="527.161" y2="492.233" gradientUnits="userSpaceOnUse">
<stop stop-color="#0076B2"/>
<stop offset="1" stop-color="#2CB8FF"/>
</linearGradient>
<linearGradient id="paint38_linear_661_295" x1="454.259" y1="292.108" x2="454.259" y2="312.501" gradientUnits="userSpaceOnUse">
<stop stop-color="#FEEFD2"/>
<stop offset="1" stop-color="#FFF9EE"/>
</linearGradient>
<linearGradient id="paint39_linear_661_295" x1="457.585" y1="308.085" x2="451.51" y2="293.736" gradientUnits="userSpaceOnUse">
<stop stop-color="#D5A2EA"/>
<stop offset="1" stop-color="#FFC444"/>
</linearGradient>
<linearGradient id="paint40_linear_661_295" x1="479.205" y1="288.039" x2="473.049" y2="279.085" gradientUnits="userSpaceOnUse">
<stop stop-color="#D5A2EA"/>
<stop offset="1" stop-color="#FFC444"/>
</linearGradient>
<linearGradient id="paint41_linear_661_295" x1="454.294" y1="254.53" x2="454.294" y2="299.772" gradientUnits="userSpaceOnUse">
<stop stop-color="#FEEFD2"/>
<stop offset="1" stop-color="#FFF9EE"/>
</linearGradient>
<linearGradient id="paint42_linear_661_295" x1="462.42" y1="288.63" x2="455.175" y2="283.774" gradientUnits="userSpaceOnUse">
<stop stop-color="#D5A2EA"/>
<stop offset="1" stop-color="#FFC444"/>
</linearGradient>
<linearGradient id="paint43_linear_661_295" x1="461.838" y1="291.552" x2="461.022" y2="286.503" gradientUnits="userSpaceOnUse">
<stop stop-color="#D5A2EA"/>
<stop offset="1" stop-color="#FFC444"/>
</linearGradient>
<linearGradient id="paint44_linear_661_295" x1="457.587" y1="411.935" x2="457.587" y2="285.464" gradientUnits="userSpaceOnUse">
<stop stop-color="#FFC444"/>
<stop offset="0.9964" stop-color="#F36F56"/>
</linearGradient>
<linearGradient id="paint45_linear_661_295" x1="522.837" y1="336.983" x2="522.837" y2="393.593" gradientUnits="userSpaceOnUse">
<stop stop-color="#0076B2"/>
<stop offset="1" stop-color="#2CB8FF"/>
</linearGradient>
<linearGradient id="paint46_linear_661_295" x1="479.335" y1="370.796" x2="479.335" y2="382.728" gradientUnits="userSpaceOnUse">
<stop stop-color="#FEEFD2"/>
<stop offset="1" stop-color="#FFF9EE"/>
</linearGradient>
</defs>
</svg>
