<svg width="55" height="47" viewBox="0 0 55 47" fill="none" xmlns="http://www.w3.org/2000/svg">
<g opacity="0.88">
<path d="M26.8504 5.79241C26.898 5.7753 26.9423 5.75493 26.9836 5.73211C26.9999 5.77778 27.0201 5.82364 27.0448 5.86939C27.0511 5.88113 27.0577 5.89267 27.0644 5.90403C27.0522 5.90784 27.04 5.91192 27.0279 5.91629C26.9802 5.93344 26.9358 5.95389 26.8944 5.97679C26.8781 5.93102 26.8581 5.88505 26.8334 5.8392C26.8271 5.82749 26.8206 5.81598 26.8139 5.80465C26.8261 5.80084 26.8382 5.79677 26.8504 5.79241Z" stroke="#FBAE17"/>
<path d="M39.8846 7.70825C39.8951 7.66198 39.901 7.61583 39.9033 7.57003C39.9513 7.59094 40.0015 7.60935 40.054 7.6245C40.0918 7.63541 40.1292 7.64414 40.1662 7.65101C40.155 7.68166 40.1455 7.71358 40.138 7.74688C40.1276 7.79327 40.1216 7.83953 40.1193 7.88545C40.0713 7.86442 40.021 7.84589 39.9685 7.83063C39.9307 7.81968 39.8934 7.8109 39.8565 7.80398C39.8676 7.77336 39.8771 7.74149 39.8846 7.70825Z" stroke="#FBAE17"/>
<path d="M22.2735 13.3969C22.2046 13.4205 22.1422 13.4507 22.085 13.4854C22.0663 13.4196 22.0409 13.3534 22.0064 13.2873C21.9909 13.2576 21.9741 13.2291 21.9562 13.2016C21.9874 13.1942 22.0185 13.1853 22.0494 13.1747C22.1184 13.151 22.181 13.1207 22.2383 13.086C22.2569 13.1519 22.2822 13.2183 22.3167 13.2845C22.3321 13.3142 22.3488 13.3427 22.3666 13.3702C22.3354 13.3775 22.3044 13.3863 22.2735 13.3969Z" stroke="#FBAE17"/>
<path d="M11.4662 17.687C11.3328 17.6207 11.1972 17.5793 11.0602 17.5526C11.1506 17.4688 11.2285 17.3736 11.2858 17.2593C11.3605 17.11 11.389 16.9504 11.3951 16.7869C11.5246 16.9162 11.6692 17.0321 11.8435 17.1187C11.9773 17.1852 12.1134 17.2267 12.2508 17.2533C12.1599 17.3372 12.0815 17.4325 12.0238 17.547C11.9489 17.696 11.9201 17.8551 11.9138 18.0182C11.7845 17.8892 11.6401 17.7735 11.4662 17.687Z" stroke="#FBAE17"/>
<path d="M10.3539 28.0697C10.3533 28.051 10.352 28.0324 10.3501 28.014C10.3703 28.0168 10.3907 28.0191 10.4114 28.0208C10.4383 28.023 10.4647 28.0241 10.4907 28.0243C10.4893 28.0476 10.489 28.0715 10.4899 28.0958C10.4905 28.1146 10.4918 28.1332 10.4938 28.1516C10.4735 28.1488 10.453 28.1465 10.4323 28.1448C10.4054 28.1426 10.3791 28.1414 10.3531 28.1412C10.3545 28.1178 10.3548 28.094 10.3539 28.0697Z" stroke="#FBAE17"/>
<path d="M50.5136 23.4116C50.4882 23.5901 50.5135 23.7664 50.5627 23.9423C50.3924 23.838 50.2127 23.7528 50.012 23.708C49.8233 23.6658 49.6427 23.6651 49.4652 23.6852C49.5518 23.5495 49.6173 23.4035 49.6412 23.2356C49.6667 23.0566 49.641 22.8797 49.5915 22.7033C49.7623 22.8082 49.9424 22.894 50.1436 22.9393C50.3319 22.9817 50.5122 22.9827 50.6892 22.9629C50.6029 23.0984 50.5375 23.2441 50.5136 23.4116Z" stroke="#FBAE17"/>
<path d="M3.33938 35.8229C3.3367 35.6419 3.2863 35.4696 3.21276 35.3004C3.39297 35.3822 3.57883 35.4436 3.77894 35.463C3.98635 35.4831 4.17761 35.4551 4.36245 35.4048C4.28943 35.5655 4.24058 35.7341 4.24342 35.9218C4.24616 36.1033 4.29691 36.2761 4.37084 36.4458C4.19011 36.3634 4.00374 36.3015 3.80312 36.2818C3.59602 36.2614 3.40512 36.2889 3.22064 36.3389C3.29344 36.1785 3.34216 36.0102 3.33938 35.8229Z" stroke="#FBAE17"/>
<path d="M40.6959 33.8946C40.7623 33.9032 40.8264 33.9057 40.8886 33.9036C40.8761 33.9579 40.8684 34.0149 40.867 34.0747C40.8656 34.1329 40.8703 34.1899 40.8796 34.2456C40.8196 34.2283 40.7574 34.2149 40.6929 34.2066C40.6264 34.198 40.562 34.1956 40.4997 34.1977C40.5123 34.1432 40.5202 34.0862 40.5217 34.0263C40.5232 33.9682 40.5186 33.9113 40.5094 33.8556C40.5694 33.8729 40.6315 33.8863 40.6959 33.8946Z" stroke="#FBAE17"/>
<path d="M15.7765 35.8016C15.8104 35.6357 15.7979 35.4696 15.7631 35.3035C15.919 35.4069 16.0855 35.4932 16.2733 35.5443C16.4426 35.5903 16.6068 35.6016 16.7687 35.5944C16.6863 35.7136 16.6222 35.8432 16.5916 35.9928C16.5577 36.1591 16.5704 36.3258 16.6055 36.4923C16.4492 36.3884 16.2823 36.3015 16.0941 36.25C15.9252 36.2038 15.7613 36.1922 15.5998 36.1992C15.6819 36.0802 15.746 35.9509 15.7765 35.8016Z" stroke="#FBAE17"/>
<path d="M43.1275 10.2042C44.6985 10.1907 46.0388 10.3556 47.0229 10.6922C47.1883 11.5895 47.1036 12.7269 46.774 14.0159C46.4325 15.3513 45.8377 16.813 45.0372 18.2784C43.4344 21.2125 41.0325 24.1157 38.2734 26.0209L38.2713 26.0223C37.2942 26.7055 36.2387 27.3051 35.1167 27.8139L34.8421 27.9384L34.8595 28.257C34.9365 29.6633 34.7494 30.9805 34.1366 32.0187C33.258 33.501 31.7289 34.3473 30.1274 34.8189C28.5297 35.2894 26.9127 35.3708 25.9391 35.3649L25.9356 35.3649C25.8913 35.3649 25.8463 35.3558 25.8055 35.3389C25.7646 35.3221 25.7331 35.2998 25.7115 35.2783C25.6901 35.2569 25.6806 35.2388 25.6767 35.228C25.6732 35.2182 25.6732 35.2118 25.6739 35.207C25.674 35.2069 25.674 35.2068 25.674 35.2067L26.6286 29.7224L26.724 29.1746L26.1668 29.0889C25.6969 29.0167 25.2286 28.9239 24.7635 28.811L24.7635 28.8109L24.7577 28.8096C24.5187 28.7545 24.3097 28.6319 24.1628 28.4764L24.1609 28.4744L21.7543 25.95L21.7529 25.9486C21.6057 25.7953 21.5325 25.6241 21.5221 25.468L21.5221 25.468L21.5214 25.4594C21.4875 25.0521 21.4771 24.6464 21.4904 24.2437L21.5084 23.6999L20.9707 23.6734L14.4834 23.3536C14.4384 23.3513 14.3941 23.3399 14.3552 23.3215C14.3162 23.3032 14.2876 23.2804 14.2688 23.2596C14.2503 23.2391 14.2432 23.2227 14.2406 23.2137C14.2382 23.2054 14.2384 23.1996 14.2397 23.1942L14.2405 23.191C14.6343 21.5513 15.9235 17.9535 19.7523 17.0638C21.1071 16.7541 22.7048 16.8761 24.3341 17.2385L24.5894 17.2952L24.7615 17.1188C25.5705 16.2895 26.4708 15.5326 27.4527 14.8571L27.4541 14.8561C30.2063 12.9454 34.0915 11.5311 37.8322 10.7889C39.6992 10.4185 41.518 10.218 43.1275 10.2042ZM32.004 18.3923C32.1357 19.1245 32.5068 19.8211 33.0552 20.3974C33.4189 20.7802 33.8527 21.1016 34.3301 21.3461C34.8076 21.5907 35.3216 21.7548 35.8433 21.8305C36.3651 21.9061 36.887 21.8922 37.3797 21.7884C37.8725 21.6845 38.3289 21.4922 38.7215 21.2191C39.3133 20.8082 39.7406 20.2274 39.9347 19.5424C40.1293 18.8561 40.077 18.1089 39.7894 17.4003C39.5025 16.6934 38.9978 16.0642 38.352 15.5846C37.7065 15.1051 36.9432 14.7918 36.1581 14.6779C35.3731 14.5641 34.592 14.6534 33.9127 14.9408C33.2332 15.2282 32.6799 15.704 32.3348 16.3192C31.9888 16.936 31.8719 17.6586 32.004 18.3923Z" stroke="url(#paint0_linear_264_125)"/>
<path d="M23.5384 30.9868C23.3423 31.0649 23.1325 31.114 22.9202 31.1462C22.5692 31.1996 22.1789 31.2111 21.7815 31.2131L21.7805 31.2131C20.7564 31.2158 19.7981 30.7712 19.1445 30.0878C18.4875 29.4008 18.1259 28.4518 18.3692 27.5037L18.3694 27.503C18.4532 27.1784 18.6022 26.8128 18.7587 26.5082C18.8195 26.3898 18.884 26.2757 18.9494 26.1732C18.2268 26.218 17.5615 26.44 17.028 26.8107L23.5384 30.9868ZM23.5384 30.9868C23.3429 31.5141 22.9814 31.9797 22.4761 32.3297L22.4753 32.3302C22.1177 32.5791 21.47 32.7561 20.6218 32.8569C19.7922 32.9555 18.8389 32.9742 17.9287 32.9536C17.0205 32.9331 16.1662 32.8738 15.5384 32.8196C15.3548 32.8037 15.1908 32.7882 15.0507 32.7744C15.0617 32.6736 15.0747 32.5607 15.0899 32.4375C15.1555 31.9043 15.2612 31.1826 15.4217 30.4245C15.5827 29.664 15.796 28.8805 16.073 28.218C16.3552 27.5429 16.6793 27.0536 17.028 26.8107L23.5384 30.9868ZM19.3168 25.7525L19.3141 25.7544L19.3168 25.7525L19.3168 25.7525Z" stroke="url(#paint1_linear_264_125)"/>
</g>
<defs>
<linearGradient id="paint0_linear_264_125" x1="31.1012" y1="7.75332" x2="27.0011" y2="36.0256" gradientUnits="userSpaceOnUse">
<stop stop-color="#FCCA67"/>
<stop stop-color="#C4C4C4"/>
<stop offset="0.0001" stop-color="#FBAE17"/>
<stop offset="1" stop-color="#FDD078"/>
<stop offset="1" stop-color="#FDD078"/>
<stop offset="1" stop-color="#FDD078"/>
</linearGradient>
<linearGradient id="paint1_linear_264_125" x1="19.6028" y1="25.6951" x2="18.4294" y2="33.7868" gradientUnits="userSpaceOnUse">
<stop stop-color="#FCCA67"/>
<stop stop-color="#C4C4C4"/>
<stop offset="0.0001" stop-color="#FBAE17"/>
<stop offset="1" stop-color="#FDD078"/>
<stop offset="1" stop-color="#FDD078"/>
<stop offset="1" stop-color="#FDD078"/>
</linearGradient>
</defs>
</svg>
