<svg width="61" height="62" viewBox="0 0 61 62" fill="none" xmlns="http://www.w3.org/2000/svg">
<path d="M0.0273438 30.9864C0.0273438 14.3283 13.5314 0.824219 30.1895 0.824219C46.8476 0.824219 60.3517 14.3283 60.3517 30.9864C60.3517 47.6445 46.8476 61.1485 30.1895 61.1485C13.5314 61.1485 0.0273438 47.6445 0.0273438 30.9864Z" fill="url(#paint0_linear_661_580)"/>
<g clip-path="url(#clip0_661_580)">
<path d="M44.5855 26.1034L34.9155 24.7341L30.5927 16.1952C30.4747 15.9614 30.2804 15.7722 30.0405 15.6571C29.4387 15.3677 28.7075 15.6089 28.4066 16.1952L24.0839 24.7341L14.4138 26.1034C14.1472 26.1405 13.9035 26.263 13.7169 26.4486C13.4912 26.6745 13.3669 26.9785 13.3712 27.2937C13.3755 27.6089 13.508 27.9096 13.7397 28.1296L20.7361 34.7759L19.0832 44.1609C19.0444 44.3792 19.0692 44.6037 19.1547 44.809C19.2403 45.0143 19.3831 45.1921 19.5671 45.3223C19.7511 45.4525 19.9688 45.5299 20.1957 45.5456C20.4225 45.5614 20.6493 45.5149 20.8504 45.4114L29.4997 40.9806L38.149 45.4114C38.3851 45.5339 38.6593 45.5747 38.9221 45.5302C39.5848 45.4189 40.0304 44.8066 39.9162 44.1609L38.2633 34.7759L45.2596 28.1296C45.4501 27.9478 45.5758 27.7103 45.6138 27.4505C45.7167 26.8011 45.252 26.1999 44.5855 26.1034ZM35.3192 33.8407L36.6941 41.6448L29.4997 37.9636L22.3052 41.6486L23.6801 33.8445L17.8606 28.3152L25.9044 27.1759L29.4997 20.0769L33.095 27.1759L41.1387 28.3152L35.3192 33.8407Z" fill="white"/>
</g>
<defs>
<linearGradient id="paint0_linear_661_580" x1="30.1895" y1="0.824219" x2="30.1895" y2="61.1485" gradientUnits="userSpaceOnUse">
<stop stop-color="#0076B2"/>
<stop offset="1" stop-color="#2CB8FF"/>
</linearGradient>
<clipPath id="clip0_661_580">
<rect width="34" height="34" fill="white" transform="translate(9.94531 13)"/>
</clipPath>
</defs>
</svg>
