<svg width="61" height="61" viewBox="0 0 61 61" fill="none" xmlns="http://www.w3.org/2000/svg">
<path d="M0.0270691 30.2566C0.0270691 13.5985 13.5311 0.0944824 30.1892 0.0944824C46.8473 0.0944824 60.3514 13.5985 60.3514 30.2566C60.3514 46.9147 46.8473 60.4188 30.1892 60.4188C13.5311 60.4188 0.0270691 46.9147 0.0270691 30.2566Z" fill="url(#paint0_linear_121_387)"/>
<g clip-path="url(#clip0_121_387)">
<path d="M49.2148 19.674C46.7904 18.6571 44.3642 18.2703 41.9392 18.2703C34.2411 18.2696 26.5436 22.1665 18.8454 22.1665C16.9148 22.1665 14.9854 21.9215 13.0548 21.309C12.8379 21.2403 12.6204 21.2078 12.4079 21.2078C11.3323 21.2078 10.3923 22.0403 10.3923 23.1959V43.0246C10.3923 43.814 10.8442 44.5621 11.5698 44.8659C13.9942 45.8834 16.4204 46.2703 18.8454 46.2703C26.5436 46.2703 34.2417 42.3734 41.9398 42.3734C43.8704 42.3734 45.7998 42.6184 47.7304 43.2309C47.9473 43.2996 48.1648 43.3321 48.3773 43.3321C49.4529 43.3321 50.3929 42.4996 50.3929 41.344V21.5159C50.3923 20.7259 49.9404 19.9784 49.2148 19.674ZM30.3923 38.2703C27.6304 38.2703 25.3923 35.5834 25.3923 32.2703C25.3923 28.9565 27.6311 26.2703 30.3923 26.2703C33.1536 26.2703 35.3923 28.9565 35.3923 32.2703C35.3923 35.5846 33.1529 38.2703 30.3923 38.2703Z" fill="white"/>
</g>
<defs>
<linearGradient id="paint0_linear_121_387" x1="30.1892" y1="0.0944824" x2="30.1892" y2="60.4188" gradientUnits="userSpaceOnUse">
<stop stop-color="#0076B2"/>
<stop offset="1" stop-color="#2CB8FF"/>
</linearGradient>
<clipPath id="clip0_121_387">
<rect width="40" height="32" fill="white" transform="translate(10.3923 16.2703)"/>
</clipPath>
</defs>
</svg>
