<svg width="61" height="62" viewBox="0 0 61 62" fill="none" xmlns="http://www.w3.org/2000/svg">
<path d="M0.446045 30.9864C0.446045 14.3283 13.9501 0.824219 30.6082 0.824219C47.2663 0.824219 60.7704 14.3283 60.7704 30.9864C60.7704 47.6445 47.2663 61.1485 30.6082 61.1485C13.9501 61.1485 0.446045 47.6445 0.446045 30.9864Z" fill="url(#paint0_linear_463_363)"/>
<path d="M45.7929 23.2058C45.6365 22.8291 45.3371 22.5298 44.9604 22.3733C44.7751 22.2943 44.576 22.2524 44.3746 22.25H36.6662C36.2574 22.25 35.8652 22.4124 35.5761 22.7015C35.287 22.9907 35.1246 23.3828 35.1246 23.7917C35.1246 24.2005 35.287 24.5927 35.5761 24.8818C35.8652 25.1709 36.2574 25.3333 36.6662 25.3333H40.6592L32.0412 33.9512L26.9692 28.8637C26.8258 28.7193 26.6553 28.6046 26.4675 28.5263C26.2796 28.448 26.0781 28.4077 25.8746 28.4077C25.6711 28.4077 25.4696 28.448 25.2817 28.5263C25.0938 28.6046 24.9233 28.7193 24.78 28.8637L15.53 38.1137C15.3855 38.2571 15.2708 38.4276 15.1925 38.6154C15.1143 38.8033 15.074 39.0048 15.074 39.2083C15.074 39.4118 15.1143 39.6134 15.1925 39.8012C15.2708 39.9891 15.3855 40.1596 15.53 40.3029C15.6733 40.4474 15.8438 40.5621 16.0317 40.6404C16.2196 40.7186 16.4211 40.7589 16.6246 40.7589C16.8281 40.7589 17.0296 40.7186 17.2175 40.6404C17.4053 40.5621 17.5758 40.4474 17.7192 40.3029L25.8746 32.1321L30.9467 37.2196C31.09 37.3641 31.2605 37.4788 31.4484 37.557C31.6362 37.6353 31.8377 37.6756 32.0412 37.6756C32.2448 37.6756 32.4463 37.6353 32.6341 37.557C32.822 37.4788 32.9925 37.3641 33.1358 37.2196L42.8329 27.5071V31.5C42.8329 31.9089 42.9953 32.301 43.2845 32.5901C43.5736 32.8792 43.9657 33.0417 44.3746 33.0417C44.7835 33.0417 45.1756 32.8792 45.4647 32.5901C45.7538 32.301 45.9162 31.9089 45.9162 31.5V23.7917C45.9138 23.5902 45.8719 23.3912 45.7929 23.2058Z" fill="white"/>
<defs>
<linearGradient id="paint0_linear_463_363" x1="30.6082" y1="0.824219" x2="30.6082" y2="61.1485" gradientUnits="userSpaceOnUse">
<stop stop-color="#0076B2"/>
<stop offset="1" stop-color="#2CB8FF"/>
</linearGradient>
</defs>
</svg>
