<svg width="61" height="62" viewBox="0 0 61 62" fill="none" xmlns="http://www.w3.org/2000/svg">
<path d="M0.5 30.9864C0.5 14.3283 14.0041 0.824219 30.6622 0.824219C47.3203 0.824219 60.8243 14.3283 60.8243 30.9864C60.8243 47.6445 47.3203 61.1485 30.6622 61.1485C14.0041 61.1485 0.5 47.6445 0.5 30.9864Z" fill="url(#paint0_linear_463_346)"/>
<g clip-path="url(#clip0_463_346)">
<path d="M45.2503 29.3332H42.0837V21.3332H43.667V18.6665H18.3337V21.3332H19.917V29.3332H16.7503C16.3304 29.3332 15.9277 29.4736 15.6307 29.7237C15.3338 29.9737 15.167 30.3129 15.167 30.6665V42.6665H46.8337V30.6665C46.8337 30.3129 46.6668 29.9737 46.3699 29.7237C46.073 29.4736 45.6703 29.3332 45.2503 29.3332ZM34.167 39.9998V34.6665H27.8337V39.9998H23.0837V21.3332H38.917V39.9998H34.167Z" fill="white"/>
<path d="M26.25 24H29.4167V26.6667H26.25V24ZM32.5833 24H35.75V26.6667H32.5833V24ZM26.25 29.3333H29.4167V32H26.25V29.3333ZM32.5833 29.3333H35.75V32H32.5833V29.3333Z" fill="white"/>
</g>
<defs>
<linearGradient id="paint0_linear_463_346" x1="30.6622" y1="0.824219" x2="30.6622" y2="61.1485" gradientUnits="userSpaceOnUse">
<stop stop-color="#0076B2"/>
<stop offset="1" stop-color="#2CB8FF"/>
</linearGradient>
<clipPath id="clip0_463_346">
<rect width="34" height="34" fill="white" transform="translate(14.4189 14)"/>
</clipPath>
</defs>
</svg>
