<svg width="61" height="62" viewBox="0 0 61 62" fill="none" xmlns="http://www.w3.org/2000/svg">
<path d="M0.297302 30.8919C0.297302 14.2338 13.8014 0.729736 30.4595 0.729736C47.1176 0.729736 60.6216 14.2338 60.6216 30.8919C60.6216 47.55 47.1176 61.0541 30.4595 61.0541C13.8014 61.0541 0.297302 47.55 0.297302 30.8919Z" fill="url(#paint0_linear_121_362)"/>
<g clip-path="url(#clip0_121_362)">
<path d="M22.0426 38.7805C21.8858 38.7805 21.7289 38.8038 21.5793 38.8529C20.7288 39.1325 19.8343 39.3118 18.8926 39.3118C17.9509 39.3118 17.0564 39.1325 16.2053 38.8529C16.0557 38.8038 15.8995 38.7805 15.7426 38.7805C11.6699 38.7805 8.37097 42.1327 8.39262 46.2592C8.40181 48.003 9.81865 49.4055 11.5426 49.4055H26.2426C27.9666 49.4055 29.3834 48.003 29.3926 46.2592C29.4143 42.1327 26.1153 38.7805 22.0426 38.7805ZM18.8926 36.6555C22.3721 36.6555 25.1926 33.8014 25.1926 30.2805C25.1926 26.7597 22.3721 23.9055 18.8926 23.9055C15.4132 23.9055 12.5926 26.7597 12.5926 30.2805C12.5926 33.8014 15.4132 36.6555 18.8926 36.6555ZM47.2426 15.4055H22.0426C20.3055 15.4055 18.8926 16.8831 18.8926 18.6986V21.7805C20.4296 21.7805 21.8523 22.2308 23.0926 22.9625V19.6555H46.1926V38.7805H41.9926V34.5305H33.5926V38.7805H28.5894C29.8428 39.8888 30.7629 41.3524 31.194 43.0305H47.2426C48.9797 43.0305 50.3926 41.553 50.3926 39.7374V18.6986C50.3926 16.8831 48.9797 15.4055 47.2426 15.4055Z" fill="white"/>
</g>
<defs>
<linearGradient id="paint0_linear_121_362" x1="30.4595" y1="0.729736" x2="30.4595" y2="61.0541" gradientUnits="userSpaceOnUse">
<stop stop-color="#0076B2"/>
<stop offset="1" stop-color="#2CB8FF"/>
</linearGradient>
<clipPath id="clip0_121_362">
<rect width="42" height="34" fill="white" transform="translate(8.39301 15.4055)"/>
</clipPath>
</defs>
</svg>
