<svg width="61" height="61" viewBox="0 0 61 61" fill="none" xmlns="http://www.w3.org/2000/svg">
<path d="M0.513672 30.5809C0.513672 13.9228 14.0177 0.418701 30.6758 0.418701C47.3339 0.418701 60.838 13.9228 60.838 30.5809C60.838 47.239 47.3339 60.743 30.6758 60.743C14.0177 60.743 0.513672 47.239 0.513672 30.5809Z" fill="url(#paint0_linear_661_543)"/>
<path d="M34.5137 18.4187C35.5026 18.4187 36.4693 18.7119 37.2915 19.2614C38.1138 19.8108 38.7546 20.5917 39.1331 21.5053C39.5115 22.4189 39.6105 23.4242 39.4176 24.3942C39.2247 25.3641 38.7485 26.255 38.0492 26.9542C37.3499 27.6535 36.459 28.1297 35.4891 28.3226C34.5192 28.5156 33.5139 28.4165 32.6003 28.0381C31.6866 27.6597 30.9057 27.0188 30.3563 26.1966C29.8069 25.3743 29.5137 24.4076 29.5137 23.4187C29.5137 22.0926 30.0405 20.8208 30.9781 19.8832C31.9158 18.9455 33.1876 18.4187 34.5137 18.4187ZM34.5137 16.4187C33.1292 16.4187 31.7758 16.8292 30.6247 17.5984C29.4735 18.3676 28.5763 19.4608 28.0465 20.7399C27.5167 22.019 27.3781 23.4265 27.6482 24.7843C27.9183 26.1422 28.585 27.3895 29.5639 28.3684C30.5429 29.3474 31.7902 30.0141 33.148 30.2842C34.5059 30.5543 35.9134 30.4157 37.1925 29.8859C38.4715 29.356 39.5648 28.4588 40.334 27.3077C41.1031 26.1565 41.5137 24.8032 41.5137 23.4187C41.5137 21.5622 40.7762 19.7817 39.4634 18.469C38.1507 17.1562 36.3702 16.4187 34.5137 16.4187Z" fill="white"/>
<path d="M44.5137 44.4187H42.5137V39.4187C42.5137 38.0926 41.9869 36.8208 41.0492 35.8832C40.1115 34.9455 38.8398 34.4187 37.5137 34.4187H31.5137C30.1876 34.4187 28.9158 34.9455 27.9781 35.8832C27.0405 36.8208 26.5137 38.0926 26.5137 39.4187V44.4187H24.5137V39.4187C24.5137 37.5622 25.2512 35.7817 26.5639 34.469C27.8767 33.1562 29.6572 32.4187 31.5137 32.4187H37.5137C39.3702 32.4187 41.1507 33.1562 42.4634 34.469C43.7762 35.7817 44.5137 37.5622 44.5137 39.4187V44.4187Z" fill="white"/>
<path d="M25.5137 22.4187H19.5137C18.718 22.4187 17.955 22.1026 17.3924 21.54C16.8297 20.9774 16.5137 20.2144 16.5137 19.4187V17.4187H18.5137V19.4187C18.5137 19.6839 18.619 19.9383 18.8066 20.1258C18.9941 20.3133 19.2485 20.4187 19.5137 20.4187H25.5137V22.4187Z" fill="white"/>
<path d="M18.5137 29.4187H16.5137V27.4187C16.5137 26.6231 16.8297 25.86 17.3924 25.2974C17.955 24.7348 18.718 24.4187 19.5137 24.4187H25.5137V26.4187H19.5137C19.2485 26.4187 18.9941 26.5241 18.8066 26.7116C18.619 26.8991 18.5137 27.1535 18.5137 27.4187V29.4187Z" fill="white"/>
<defs>
<linearGradient id="paint0_linear_661_543" x1="30.6758" y1="0.418701" x2="30.6758" y2="60.743" gradientUnits="userSpaceOnUse">
<stop stop-color="#0076B2"/>
<stop offset="1" stop-color="#2CB8FF"/>
</linearGradient>
</defs>
</svg>
