<?xml version="1.0" encoding="utf-8"?>
<!-- Generator: Adobe Illustrator 24.1.2, SVG Export Plug-In . SVG Version: 6.00 Build 0)  -->
<svg version="1.1" id="Слой_1" xmlns="http://www.w3.org/2000/svg" xmlns:xlink="http://www.w3.org/1999/xlink" x="0px" y="0px"
	 viewBox="0 0 365 99" style="enable-background:new 0 0 365 99;" xml:space="preserve">
<style type="text/css">
	.st0{fill:#F9B000;}
	.st1{fill:#00669A;}
</style>
<path class="st0" d="M70.7,46.8c-1,0-1.8,0.8-1.8,1.8s0.8,1.8,1.8,1.8s1.8-0.8,1.8-1.8S71.7,46.8,70.7,46.8"/>
<path class="st0" d="M70.7,44.9c1,0,1.8-0.8,1.8-1.8c0-1-0.8-1.8-1.8-1.8s-1.8,0.8-1.8,1.8C68.9,44.1,69.8,44.9,70.7,44.9"/>
<path class="st0" d="M84.8,52.6c-1.2-4-0.4-3.2-4.4-4.4c4-1.2,3.2-0.4,4.4-4.4c1.2,4,0.4,3.2,4.4,4.4C85.3,49.4,86.1,48.6,84.8,52.6
	 M86.3,36.8c-4.3-4.3-9.9-6.4-15.6-6.4c-5.7,0-11.3,2.1-15.6,6.4c-8.6,8.6-8.6,22.6,0,31.2l9.9,9.9l0.2-0.2c3.9-5.4,4.2-19,4.2-19
	s-2.7-2-5.2-0.1c-0.9-4.2,0.9-7,0.9-7c0-0.2,0-0.4,0-0.6c0-5.9,2.2-12.1,5.7-14.4c3.6,2.4,5.8,9,5.7,15c0,0,1.2,1.8,1.2,4.6
	c0,0.7-0.1,1.5-0.3,2.3c-2.5-1.8-5.2,0.1-5.2,0.1s0.3,13.6,4.2,19l0.2,0.2l9.9-9.9C94.9,59.4,94.9,45.4,86.3,36.8"/>
<path class="st0" d="M70.7,27.4c1.2,0,2.2-1,2.2-2.2V13.2c0-1.2-1-2.2-2.2-2.2s-2.2,1-2.2,2.2v12.1C68.6,26.5,69.6,27.4,70.7,27.4"
	/>
<path class="st0" d="M86.2,74.8c-0.6-1-1.9-1.4-2.9-0.8c-1,0.6-1.4,1.9-0.8,2.9l6.1,10.5c0.6,1,1.9,1.4,2.9,0.8
	c1-0.6,1.4-1.9,0.8-2.9L86.2,74.8z"/>
<path class="st0" d="M58.3,74c-1-0.6-2.3-0.2-2.9,0.8l-6.1,10.5c-0.6,1-0.2,2.4,0.8,2.9c1,0.6,2.3,0.2,2.9-0.8L59,76.9
	C59.6,75.9,59.3,74.6,58.3,74"/>
<path class="st0" d="M53.1,70c-0.8-0.8-2.2-0.8-3,0l-8.6,8.6c-0.8,0.8-0.8,2.2,0,3c0.8,0.8,2.2,0.8,3,0l8.6-8.6
	C53.9,72.2,53.9,70.9,53.1,70"/>
<path class="st0" d="M49.1,64.9c-0.6-1-1.9-1.4-2.9-0.8l-10.5,6.1c-1,0.6-1.4,1.9-0.8,2.9c0.6,1,1.9,1.4,2.9,0.8l10.5-6.1
	C49.4,67.2,49.7,65.9,49.1,64.9"/>
<path class="st0" d="M46.6,58.9c-0.3-1.1-1.5-1.8-2.6-1.5l-11.7,3.1c-1.1,0.3-1.8,1.5-1.5,2.6c0.3,1.1,1.5,1.8,2.6,1.5l11.7-3.1
	C46.3,61.2,46.9,60,46.6,58.9"/>
<path class="st0" d="M43.6,54.6c1.2,0,2.2-1,2.2-2.1c0-1.2-1-2.1-2.2-2.1H31.5c-1.2,0-2.1,1-2.1,2.1s1,2.1,2.1,2.1H43.6z"/>
<path class="st0" d="M32.3,44.3L44,47.4c1.1,0.3,2.3-0.4,2.6-1.5c0.3-1.1-0.4-2.3-1.5-2.6l-11.7-3.1c-1.1-0.3-2.3,0.4-2.6,1.5
	C30.5,42.8,31.1,44,32.3,44.3"/>
<path class="st0" d="M35.7,34.6l10.5,6.1c1,0.6,2.3,0.2,2.9-0.8s0.2-2.4-0.8-2.9l-10.5-6.1c-1-0.6-2.3-0.2-2.9,0.8
	C34.3,32.7,34.7,34,35.7,34.6"/>
<path class="st0" d="M55.3,30c0.6,1,1.9,1.4,2.9,0.8c1-0.6,1.4-1.9,0.8-2.9L53,17.3c-0.6-1-1.9-1.4-2.9-0.8c-1,0.6-1.4,1.9-0.8,2.9
	L55.3,30z"/>
<path class="st0" d="M50,34.8c0.8,0.8,2.2,0.8,3,0c0.8-0.8,0.8-2.2,0-3l-8.6-8.6c-0.8-0.8-2.2-0.8-3,0c-0.8,0.8-0.8,2.2,0,3L50,34.8
	z"/>
<path class="st0" d="M61.7,26.8c0.3,1.1,1.5,1.8,2.6,1.5c1.1-0.3,1.8-1.5,1.5-2.6l-3.1-11.7c-0.3-1.1-1.5-1.8-2.6-1.5
	c-1.1,0.3-1.8,1.5-1.5,2.6L61.7,26.8z"/>
<path class="st0" d="M91.4,70c-0.8-0.8-2.2-0.8-3,0c-0.8,0.8-0.8,2.2,0,3l8.6,8.6c0.8,0.8,2.2,0.8,3,0c0.8-0.8,0.8-2.2,0-3L91.4,70z
	"/>
<path class="st0" d="M105.8,70.1l-10.5-6.1c-1-0.6-2.3-0.2-2.9,0.8c-0.6,1-0.2,2.4,0.8,2.9l10.5,6.1c1,0.6,2.3,0.2,2.9-0.8
	C107.2,72.1,106.8,70.7,105.8,70.1"/>
<path class="st0" d="M109.2,60.5l-11.7-3.1c-1.1-0.3-2.3,0.4-2.6,1.5c-0.3,1.1,0.4,2.3,1.5,2.6l11.7,3.1c1.1,0.3,2.3-0.4,2.6-1.5
	C111,62,110.3,60.8,109.2,60.5"/>
<path class="st0" d="M110,50.2H97.8c-1.2,0-2.2,1-2.2,2.1s1,2.1,2.2,2.1H110c1.2,0,2.2-1,2.2-2.1S111.2,50.2,110,50.2"/>
<path class="st0" d="M94.8,45.9c0.3,1.1,1.5,1.8,2.6,1.5l11.7-3.1c1.1-0.3,1.8-1.5,1.5-2.6c-0.3-1.1-1.5-1.8-2.6-1.5l-11.7,3.1
	C95.2,43.6,94.5,44.8,94.8,45.9"/>
<path class="st0" d="M92.3,39.9c0.6,1,1.9,1.4,2.9,0.8l10.5-6.1c1-0.6,1.4-1.9,0.8-2.9c-0.6-1-1.9-1.4-2.9-0.8L93.1,37
	C92.1,37.6,91.8,38.9,92.3,39.9"/>
<path class="st0" d="M88.4,34.8c0.8,0.8,2.2,0.8,3,0l8.6-8.6c0.8-0.8,0.8-2.2,0-3c-0.8-0.8-2.2-0.8-3,0l-8.6,8.6
	C87.6,32.5,87.6,33.9,88.4,34.8"/>
<path class="st0" d="M83.2,30.8c1,0.6,2.3,0.2,2.9-0.8l6.1-10.5c0.6-1,0.2-2.3-0.8-2.9c-1-0.6-2.3-0.2-2.9,0.8l-6.1,10.5
	C81.8,28.9,82.2,30.2,83.2,30.8"/>
<path class="st0" d="M77.2,28.3c1.1,0.3,2.3-0.4,2.6-1.5L83,15.1c0.3-1.1-0.4-2.3-1.5-2.6c-1.1-0.3-2.3,0.4-2.6,1.5l-3.1,11.7
	C75.4,26.8,76.1,28,77.2,28.3"/>
<path class="st1" d="M323.1,43.2c-0.2,0.6-0.5,1.1-0.9,1.5c-0.4,0.4-0.9,0.8-1.5,1.1c-0.6,0.3-1.2,0.4-2,0.4h-0.5v-9.1h0.5
	c0.8,0,1.5,0.1,2,0.4c0.6,0.3,1.1,0.6,1.4,1c0.4,0.4,0.7,0.9,0.8,1.4c0.2,0.5,0.3,1.1,0.3,1.6C323.4,42,323.3,42.6,323.1,43.2
	 M328.3,37.9c-0.5-1.3-1.1-2.4-2-3.4c-0.9-1-2-1.8-3.3-2.4c-1.4-0.6-2.9-0.9-4.7-0.9h-2.8c-0.4,0-0.7,0.1-1.1,0.2
	c-0.4,0.2-0.7,0.4-1,0.6c-0.3,0.3-0.5,0.6-0.7,0.9c-0.2,0.4-0.3,0.7-0.3,1.1V49c0,0.9,0.3,1.6,0.8,2.1c0.5,0.5,1.3,0.8,2.2,0.8h3.2
	c1.7,0,3.2-0.3,4.5-0.9c1.3-0.6,2.3-1.4,3.2-2.3c0.9-1,1.5-2,1.9-3.3c0.4-1.2,0.7-2.5,0.7-3.8C329,40.4,328.8,39.2,328.3,37.9
	 M307.1,43.2c1-0.4,1.8-1.1,2.5-2.1c0.7-1,1-2.2,1-3.6c0-0.8-0.1-1.6-0.4-2.3c-0.3-0.8-0.7-1.4-1.3-2c-0.6-0.6-1.3-1.1-2.2-1.4
	c-0.9-0.4-1.9-0.5-3.1-0.5h-6.2c-1.8,0-2.8,1-2.8,2.9v14.9c0,1.9,1,2.9,2.9,2.9c1.9,0,2.8-1,2.8-2.9V36.7h3.1c0.6,0,1.1,0.1,1.4,0.3
	c0.3,0.2,0.4,0.6,0.4,1.1c0,0.6-0.1,1-0.4,1.3c-0.3,0.3-0.7,0.4-1.2,0.4h-0.4c-0.7,0-1.2,0.2-1.6,0.7c-0.4,0.4-0.6,1-0.6,1.8
	c0,0.4,0,0.8,0.1,1.1c0.1,0.3,0.2,0.6,0.3,0.7l3.5,6.4c0.3,0.5,0.6,0.9,1.1,1.1c0.4,0.2,0.9,0.4,1.3,0.4c0.4,0,0.7-0.1,1.1-0.2
	c0.4-0.1,0.7-0.3,1-0.6c0.3-0.2,0.5-0.5,0.7-0.9c0.2-0.4,0.3-0.7,0.3-1.1c0-0.5-0.2-1.1-0.6-1.8L307.1,43.2z M282.2,43.4l1.5-3.7
	l1.3,3.7H282.2z M292.7,48.2l-6.4-15.3c-0.2-0.5-0.5-0.9-0.9-1.3c-0.4-0.3-1-0.5-1.7-0.5c-0.8,0-1.4,0.2-1.7,0.5
	c-0.4,0.3-0.7,0.7-0.9,1.2l-7,15.3c-0.1,0.3-0.2,0.7-0.2,1.1c0,0.4,0.1,0.8,0.3,1.1c0.2,0.3,0.4,0.6,0.7,0.9c0.3,0.2,0.6,0.4,1,0.5
	c0.4,0.1,0.7,0.2,1.1,0.2c0.5,0,1-0.2,1.4-0.5c0.5-0.3,0.8-0.8,1.1-1.4l0.9-2.3h6.1l0.8,2.3c0.2,0.6,0.5,1.1,1,1.4
	c0.4,0.3,1,0.5,1.5,0.5c0.4,0,0.7-0.1,1.1-0.2c0.4-0.1,0.7-0.3,1-0.6c0.3-0.2,0.5-0.5,0.7-0.9c0.2-0.3,0.3-0.7,0.3-1.1
	C292.9,48.9,292.8,48.6,292.7,48.2 M274.9,32.8c-0.2-0.4-0.4-0.6-0.6-0.9c-0.3-0.2-0.6-0.4-0.9-0.5s-0.7-0.2-1-0.2
	c-0.6,0-1.1,0.2-1.5,0.5c-0.4,0.3-0.7,0.8-0.9,1.5l-2.5,10.1l-2.6-10c-0.2-0.7-0.5-1.2-1-1.6c-0.5-0.4-1-0.5-1.6-0.5
	c-0.6,0-1.1,0.2-1.6,0.5s-0.8,0.9-1,1.6l-2.7,10L254,33.1c-0.2-0.7-0.5-1.2-1-1.5c-0.5-0.3-1-0.5-1.6-0.5c-0.4,0-0.7,0.1-1,0.2
	c-0.3,0.1-0.6,0.3-0.9,0.5c-0.3,0.2-0.5,0.5-0.6,0.9c-0.2,0.3-0.3,0.7-0.3,1.1c0,0.2,0,0.3,0.1,0.5c0.1,0.2,0.1,0.3,0.2,0.5
	l5.1,15.2c0.2,0.7,0.6,1.1,1.1,1.5c0.5,0.3,1.1,0.5,1.7,0.5c0.5,0,1-0.2,1.6-0.5c0.5-0.3,0.9-0.8,1.1-1.5l2.6-7.6l2.7,7.6
	c0.2,0.7,0.6,1.1,1.1,1.5c0.5,0.3,1.1,0.5,1.7,0.5c0.5,0,1-0.2,1.6-0.5c0.5-0.3,0.9-0.8,1.1-1.5L275,35c0.1-0.2,0.1-0.4,0.1-0.5
	c0-0.2,0-0.3,0-0.5C275.1,33.5,275,33.1,274.9,32.8 M243.6,43.2c1-0.4,1.8-1.1,2.4-2.1c0.7-1,1-2.2,1-3.6c0-0.8-0.1-1.6-0.4-2.3
	s-0.7-1.4-1.3-2c-0.6-0.6-1.3-1.1-2.2-1.4c-0.9-0.4-1.9-0.5-3.1-0.5h-6.2c-1.8,0-2.8,1-2.8,2.9v14.9c0,1.9,1,2.9,2.9,2.9
	c1.9,0,2.8-1,2.8-2.9V36.7h3.1c0.6,0,1.1,0.1,1.4,0.3c0.3,0.2,0.4,0.6,0.4,1.1c0,0.6-0.1,1-0.4,1.3c-0.3,0.3-0.7,0.4-1.2,0.4h-0.4
	c-0.7,0-1.2,0.2-1.6,0.7c-0.4,0.4-0.6,1-0.6,1.8c0,0.4,0,0.8,0.1,1.1c0.1,0.3,0.2,0.6,0.3,0.7l3.5,6.4c0.3,0.5,0.6,0.9,1.1,1.1
	c0.4,0.2,0.9,0.4,1.3,0.4c0.4,0,0.8-0.1,1.1-0.2c0.4-0.1,0.7-0.3,1-0.6c0.3-0.2,0.5-0.5,0.7-0.9c0.2-0.4,0.3-0.7,0.3-1.1
	c0-0.5-0.2-1.1-0.6-1.8L243.6,43.2z M223,43.5c-0.3,0.6-0.6,1.1-1,1.5c-0.4,0.4-0.9,0.8-1.5,1c-0.6,0.2-1.2,0.4-1.9,0.4
	s-1.3-0.1-1.9-0.4c-0.6-0.2-1.1-0.6-1.5-1c-0.4-0.4-0.8-0.9-1-1.5c-0.3-0.6-0.4-1.2-0.4-1.9s0.1-1.3,0.4-1.9c0.3-0.6,0.6-1.1,1-1.5
	c0.4-0.4,0.9-0.8,1.5-1c0.6-0.3,1.2-0.4,1.9-0.4s1.3,0.1,1.9,0.4c0.6,0.3,1.1,0.6,1.5,1c0.4,0.4,0.8,0.9,1,1.5
	c0.3,0.6,0.4,1.2,0.4,1.9S223.3,42.9,223,43.5 M228.3,37.5c-0.6-1.3-1.3-2.4-2.3-3.3c-0.9-1-2.1-1.7-3.3-2.3
	c-1.3-0.5-2.7-0.8-4.1-0.8s-2.8,0.3-4.1,0.8c-1.3,0.6-2.4,1.3-3.3,2.3c-1,1-1.7,2.1-2.3,3.3c-0.5,1.3-0.8,2.6-0.8,4.1
	s0.3,2.8,0.8,4.1c0.6,1.3,1.3,2.4,2.3,3.4c1,1,2.1,1.7,3.3,2.3c1.3,0.6,2.6,0.8,4.1,0.8s2.8-0.3,4.1-0.8c1.3-0.6,2.4-1.3,3.3-2.3
	c0.9-1,1.7-2.1,2.3-3.4c0.6-1.3,0.8-2.6,0.8-4.1S228.8,38.8,228.3,37.5 M204,37c0.9,0,1.6-0.3,2.1-0.9c0.5-0.6,0.8-1.2,0.8-2
	c0-0.8-0.3-1.5-0.8-2c-0.5-0.6-1.2-0.9-2.1-0.9h-9.7c-1.9,0-2.8,1-2.8,2.9v14.9c0,0.9,0.3,1.6,0.8,2.1c0.6,0.5,1.2,0.7,2,0.7
	c0.8,0,1.4-0.2,2-0.7c0.6-0.5,0.9-1.2,0.9-2.1v-4.6h5.6c0.9,0,1.6-0.3,2-0.8c0.5-0.5,0.7-1.2,0.7-1.9s-0.2-1.4-0.7-1.9
	c-0.5-0.6-1.1-0.8-2-0.8h-5.6v-2L204,37L204,37z M182.7,32.9c-0.2-0.3-0.4-0.6-0.7-0.9c-0.3-0.2-0.6-0.4-0.9-0.6
	c-0.4-0.1-0.7-0.2-1.1-0.2c-0.4,0-0.9,0.1-1.3,0.4c-0.4,0.2-0.8,0.6-1.1,1.1l-2.6,4.4l-2.6-4.4c-0.3-0.5-0.7-0.9-1.1-1.1
	c-0.4-0.2-0.9-0.3-1.3-0.3s-0.8,0.1-1.1,0.2c-0.4,0.2-0.7,0.4-0.9,0.6c-0.3,0.3-0.5,0.6-0.6,0.9c-0.2,0.4-0.3,0.7-0.3,1.1
	c0,0.5,0.2,0.9,0.5,1.4l4.6,7.5v6.2c0,0.9,0.3,1.6,0.8,2.1c0.6,0.5,1.2,0.7,2,0.7c0.8,0,1.4-0.2,2-0.7s0.9-1.2,0.9-2.1V43l4.6-7.5
	c0.3-0.5,0.5-1,0.5-1.6C182.9,33.6,182.9,33.2,182.7,32.9 M158.2,43.4l1.5-3.7l1.3,3.7H158.2z M168.7,48.2l-6.4-15.3
	c-0.2-0.5-0.5-0.9-0.9-1.3c-0.4-0.3-0.9-0.5-1.7-0.5c-0.8,0-1.4,0.2-1.7,0.5c-0.4,0.3-0.7,0.7-0.9,1.2l-7,15.3
	c-0.1,0.3-0.2,0.7-0.2,1.1c0,0.4,0.1,0.8,0.3,1.1c0.2,0.3,0.4,0.6,0.7,0.9c0.3,0.2,0.6,0.4,1,0.5c0.4,0.1,0.7,0.2,1.1,0.2
	c0.5,0,1-0.2,1.4-0.5s0.8-0.8,1.1-1.4l0.9-2.3h6.1l0.8,2.3c0.2,0.6,0.5,1.1,1,1.4c0.4,0.3,1,0.5,1.5,0.5c0.4,0,0.8-0.1,1.1-0.2
	c0.4-0.1,0.7-0.3,1-0.6c0.3-0.2,0.5-0.5,0.7-0.9c0.2-0.3,0.3-0.7,0.3-1.1C168.9,48.9,168.8,48.6,168.7,48.2 M150.9,32.8
	c-0.2-0.4-0.4-0.6-0.6-0.9c-0.3-0.2-0.6-0.4-0.9-0.5c-0.3-0.1-0.7-0.2-1-0.2c-0.6,0-1.1,0.2-1.5,0.5c-0.4,0.3-0.8,0.8-0.9,1.5
	l-2.5,10.1l-2.6-10c-0.2-0.7-0.5-1.2-1-1.6c-0.5-0.4-1-0.5-1.6-0.5c-0.6,0-1.1,0.2-1.6,0.5s-0.8,0.9-1,1.6l-2.7,10L130,33.1
	c-0.2-0.7-0.5-1.2-1-1.5c-0.5-0.3-1-0.5-1.6-0.5c-0.3,0-0.7,0.1-1,0.2c-0.3,0.1-0.6,0.3-0.9,0.5c-0.3,0.2-0.5,0.5-0.6,0.9
	c-0.2,0.3-0.2,0.7-0.2,1.1c0,0.2,0,0.3,0.1,0.5c0.1,0.2,0.1,0.3,0.2,0.5l5.1,15.2c0.2,0.7,0.6,1.1,1.1,1.5c0.5,0.3,1.1,0.5,1.7,0.5
	c0.5,0,1-0.2,1.6-0.5c0.5-0.3,0.9-0.8,1.2-1.5l2.6-7.6l2.7,7.6c0.2,0.7,0.6,1.1,1.1,1.5c0.5,0.3,1.1,0.5,1.7,0.5
	c0.5,0,1-0.2,1.6-0.5c0.5-0.3,0.9-0.8,1.2-1.5L151,35c0.1-0.2,0.1-0.4,0.1-0.5c0-0.2,0-0.3,0-0.5C151.1,33.5,151.1,33.1,150.9,32.8"
	/>
<path class="st0" d="M300.5,64.6c-1,0-1.7-0.7-1.7-1.8c0-1.1,0.7-1.8,1.7-1.8c1,0,1.7,0.7,1.7,1.8C302.1,63.9,301.5,64.6,300.5,64.6
	 M300.6,59.4c-2.2,0-3.6,1.4-3.6,3.4v5.6h1.9v-3.1c0.5,0.5,1.1,0.8,2,0.8c1.9,0,3.2-1.4,3.2-3.4C304,60.8,302.7,59.4,300.6,59.4
	 M292.9,59.4c-1,0-1.8,0.4-2.4,1.1c-0.5-0.7-1.2-1.1-2.2-1.1c-0.8,0-1.6,0.3-2,0.9v-0.8h-1.8v6.5h1.9v-3.3c0-1.2,0.6-1.7,1.4-1.7
	c0.8,0,1.3,0.5,1.3,1.5v3.5h1.9v-3.3c0-1.2,0.6-1.7,1.5-1.7c0.8,0,1.3,0.5,1.3,1.5v3.5h1.9v-3.8C295.5,60.4,294.4,59.4,292.9,59.4
	 M280.8,59.6v2.5h-2.8v-2.5H276v6.5h1.9v-2.4h2.8v2.4h1.9v-6.5H280.8z M271.3,60.9c0.8,0,1.4,0.4,1.5,1.1l-3.2,0.6
	C269.7,61.5,270.4,60.9,271.3,60.9 M271.6,64.7c-0.9,0-1.5-0.3-1.8-1l4.9-0.9c0-2.1-1.5-3.3-3.4-3.3c-2,0-3.5,1.4-3.5,3.4
	c0,2,1.5,3.4,3.7,3.4c1.2,0,2.1-0.4,2.7-1.1l-1-1.1C272.8,64.5,272.3,64.7,271.6,64.7 M266.2,64.6v-5h-1.9v5h-2.6v-5h-1.9v6.5h5.6
	v1.4h1.8v-3L266.2,64.6L266.2,64.6z M252.6,59.6v3.2c0,1.2-0.7,1.8-1.5,1.8c-0.8,0-1.3-0.5-1.3-1.6v-3.4h-1.9v3.7
	c0,2,1.2,2.9,2.8,2.9c0.8,0,1.5-0.3,2-0.9v0.8h1.8v-6.5H252.6z M252.1,57c0,0.6-0.3,0.9-0.9,0.9c-0.6,0-0.9-0.3-0.9-0.9H249
	c0,1.3,0.7,1.9,2.1,1.9c1.4,0,2.2-0.6,2.2-1.9H252.1z M244.4,66.1h1.9v-6.5h-1.9V66.1z M240.5,64.9c-0.8,0-1.2-0.5-1.2-1.2v-0.6
	c0.2-0.4,0.7-0.6,1.2-0.6c0.8,0,1.2,0.5,1.2,1.1C241.7,64.4,241.4,64.9,240.5,64.9 M241.1,61.3c-0.9,0-1.5,0.2-1.8,0.5v-2.2h-1.9v4
	c0,1.8,1,2.7,3.1,2.7c1.9,0,3.1-0.9,3.1-2.6C243.7,62.1,242.7,61.3,241.1,61.3 M233.9,59.6v2.5H231v-2.5h-1.9v6.5h1.9v-2.4h2.9v2.4
	h1.9v-6.5H233.9z M224.7,64.9c-0.8,0-1.3-0.5-1.3-1.2v-0.6c0.2-0.4,0.7-0.6,1.3-0.6c0.8,0,1.2,0.4,1.2,1.1
	C226,64.5,225.5,64.9,224.7,64.9 M225.3,61.3c-0.8,0-1.5,0.2-1.9,0.5v-2.2h-1.9v4c0,1.8,1.1,2.7,3.2,2.7c2,0,3.2-0.9,3.2-2.6
	C227.9,62.1,226.9,61.3,225.3,61.3 M214.3,59.6l-0.1,2.6c-0.1,1.3-0.1,2.4-1,2.4c-0.1,0-0.2,0-0.3,0l-0.1,1.6c0.4,0.1,0.7,0.1,1,0.1
	c1.6,0,2-1.6,2.1-4l0.1-1.1h2.1v5h1.9v-6.5L214.3,59.6L214.3,59.6z M208.9,60.9c0.8,0,1.4,0.4,1.5,1.1l-3.2,0.6
	C207.3,61.5,208,60.9,208.9,60.9 M209.2,64.7c-0.9,0-1.5-0.3-1.8-1l4.9-0.9c0-2.1-1.5-3.3-3.4-3.3c-2,0-3.5,1.4-3.5,3.4
	c0,2,1.5,3.4,3.7,3.4c1.2,0,2.1-0.4,2.7-1.1l-1-1.1C210.4,64.5,209.9,64.7,209.2,64.7 M201.6,59.4c-1,0-1.8,0.4-2.4,1.1
	c-0.5-0.7-1.2-1.1-2.1-1.1c-0.9,0-1.6,0.3-2.1,0.9v-0.8h-1.8v6.5h1.9v-3.3c0-1.2,0.6-1.7,1.4-1.7c0.8,0,1.3,0.5,1.3,1.5v3.5h1.9
	v-3.3c0-1.2,0.6-1.7,1.4-1.7c0.8,0,1.2,0.5,1.2,1.5v3.5h1.9v-3.8C204.3,60.4,203.2,59.4,201.6,59.4 M187.9,64.6
	c-0.9,0-1.7-0.7-1.7-1.8c0-1.1,0.7-1.8,1.7-1.8c0.9,0,1.7,0.7,1.7,1.8C189.6,64,188.9,64.6,187.9,64.6 M189.6,59.6v0.7
	c-0.5-0.5-1.2-0.8-2-0.8c-1.8,0-3.3,1.3-3.3,3.4c0,2.1,1.4,3.4,3.3,3.4c0.9,0,1.6-0.3,2.1-0.9v0.8h1.8v-6.5L189.6,59.6L189.6,59.6z
	 M180.6,64.8H179v-1.4h1.6c0.7,0,1,0.2,1,0.7C181.7,64.6,181.3,64.8,180.6,64.8 M179,60.9h1.4c0.7,0,1,0.2,1,0.7
	c0,0.5-0.3,0.7-1,0.7H179V60.9z M182.3,62.7c0.6-0.3,1-0.8,1-1.4c0-1.1-1-1.7-2.6-1.7h-3.4v6.5h3.5c1.8,0,2.7-0.7,2.7-1.9
	C183.4,63.5,183.1,62.9,182.3,62.7 M172.4,64.6c-0.9,0-1.7-0.7-1.7-1.8c0-1.1,0.7-1.8,1.7-1.8s1.7,0.7,1.7,1.8
	C174.1,64,173.3,64.6,172.4,64.6 M172.4,59.4c-2.1,0-3.6,1.4-3.6,3.4c0,2,1.5,3.4,3.6,3.4c2.1,0,3.6-1.4,3.6-3.4
	C176,60.9,174.5,59.4,172.4,59.4 M166.7,62.7c0.6-0.3,1.1-0.8,1.1-1.4c0-1.1-1.3-1.8-3.1-1.8c-0.9,0-1.8,0.2-2.7,0.6l0.5,1.3
	c0.7-0.3,1.4-0.4,2.1-0.4c0.8,0,1.3,0.2,1.3,0.7c0,0.4-0.4,0.6-1,0.6h-1.2v1.2h1.4c0.7,0,1,0.2,1,0.6c0,0.5-0.6,0.8-1.4,0.8
	c-0.8,0-1.6-0.2-2.3-0.5l-0.5,1.3c0.9,0.4,1.9,0.6,2.9,0.6c1.9,0,3.3-0.8,3.3-2.1C168,63.5,167.5,62.9,166.7,62.7 M157.2,64.6
	c-1,0-1.7-0.7-1.7-1.8c0-1.1,0.7-1.8,1.7-1.8c0.9,0,1.7,0.7,1.7,1.8C158.9,64,158.2,64.6,157.2,64.6 M158.9,59.6v0.7
	c-0.5-0.5-1.1-0.8-1.9-0.8c-1.9,0-3.3,1.3-3.3,3.4c0,2.1,1.4,3.4,3.3,3.4c0.9,0,1.6-0.3,2-0.9v0.8h1.8v-6.5L158.9,59.6L158.9,59.6z
	 M149.3,64.6c-1,0-1.6-0.7-1.6-1.8c0-1.1,0.7-1.8,1.6-1.8c1,0,1.7,0.7,1.7,1.8C150.9,63.9,150.3,64.6,149.3,64.6 M149.3,59.4
	c-2.2,0-3.6,1.4-3.6,3.4v5.6h1.9v-3.1c0.5,0.5,1.1,0.8,2,0.8c1.9,0,3.2-1.4,3.2-3.4C152.8,60.8,151.4,59.4,149.3,59.4 M141.1,64.8
	c-1,0-1.6-0.7-1.6-1.7c0-1,0.7-1.6,1.6-1.6s1.6,0.6,1.6,1.6C142.8,64.1,142.1,64.8,141.1,64.8 M141.6,60c-1,0-1.8,0.4-2.3,1
	c0.1-1.3,0.8-1.9,2.3-2.2l2.8-0.6l-0.3-1.6l-3.1,0.6c-2.4,0.5-3.5,2.1-3.5,4.7c0,2.9,1.5,4.3,3.7,4.3c2.1,0,3.6-1.3,3.6-3.2
	C144.7,61.2,143.5,60,141.6,60 M132.9,64.6c-0.9,0-1.7-0.7-1.7-1.8c0-1.1,0.7-1.8,1.7-1.8s1.7,0.7,1.7,1.8
	C134.6,64,133.8,64.6,132.9,64.6 M132.9,59.4c-2.1,0-3.6,1.4-3.6,3.4c0,2,1.5,3.4,3.6,3.4c2.1,0,3.6-1.4,3.6-3.4
	C136.5,60.9,135,59.4,132.9,59.4"/>
</svg>
