<svg width="23" height="22" viewBox="0 0 23 22" fill="blue" xmlns="http://www.w3.org/2000/svg">
<path d="M17.641 3.806C17.3681 3.806 17.1013 3.88342 16.8743 4.02846C16.6474 4.1735 16.4705 4.37966 16.366 4.62086C16.2616 4.86206 16.2343 5.12746 16.2875 5.38352C16.3408 5.63957 16.4722 5.87478 16.6652 6.05938C16.8582 6.24399 17.1041 6.3697 17.3718 6.42064C17.6395 6.47157 17.9169 6.44543 18.1691 6.34552C18.4213 6.24561 18.6368 6.07643 18.7884 5.85935C18.9401 5.64228 19.021 5.38707 19.021 5.126C19.021 4.77591 18.8756 4.44017 18.6168 4.19262C18.358 3.94507 18.007 3.806 17.641 3.806ZM22.931 6.468C22.9086 5.55533 22.7299 4.65234 22.402 3.795C22.1096 3.06145 21.6545 2.39721 21.068 1.848C20.4985 1.28417 19.8025 0.851594 19.0325 0.583C18.1386 0.259777 17.1935 0.084931 16.238 0.0659999C15.019 -6.14673e-08 14.628 0 11.5 0C8.372 0 7.981 -6.14673e-08 6.762 0.0659999C5.80653 0.084931 4.86144 0.259777 3.9675 0.583C3.19893 0.854313 2.50347 1.28652 1.932 1.848C1.34254 2.3927 0.890303 3.05848 0.6095 3.795C0.271585 4.65008 0.0887915 5.55407 0.0689999 6.468C-6.42613e-08 7.634 0 8.008 0 11C0 13.992 -6.42613e-08 14.366 0.0689999 15.532C0.0887915 16.4459 0.271585 17.3499 0.6095 18.205C0.890303 18.9415 1.34254 19.6073 1.932 20.152C2.50347 20.7135 3.19893 21.1457 3.9675 21.417C4.86144 21.7402 5.80653 21.9151 6.762 21.934C7.981 22 8.372 22 11.5 22C14.628 22 15.019 22 16.238 21.934C17.1935 21.9151 18.1386 21.7402 19.0325 21.417C19.8025 21.1484 20.4985 20.7158 21.068 20.152C21.6571 19.6048 22.1126 18.94 22.402 18.205C22.7299 17.3477 22.9086 16.4447 22.931 15.532C22.931 14.366 23 13.992 23 11C23 8.008 23 7.634 22.931 6.468ZM20.861 15.4C20.8526 16.0982 20.7204 16.7901 20.47 17.446C20.2864 17.9247 19.9915 18.3573 19.6075 18.711C19.2345 19.0746 18.7832 19.3561 18.285 19.536C17.5993 19.7755 16.876 19.902 16.146 19.91C14.996 19.965 14.5705 19.976 11.546 19.976C8.5215 19.976 8.096 19.976 6.946 19.91C6.18802 19.9236 5.43328 19.8119 4.715 19.58C4.23865 19.3909 3.80806 19.1101 3.45 18.755C3.0683 18.4016 2.77707 17.9687 2.599 17.49C2.31823 16.8247 2.16251 16.1171 2.139 15.4C2.139 14.3 2.07 13.893 2.07 11C2.07 8.107 2.07 7.7 2.139 6.6C2.14415 5.88616 2.28039 5.17874 2.5415 4.51C2.74395 4.0457 3.0547 3.63182 3.45 3.3C3.79939 2.92179 4.23118 2.62141 4.715 2.42C5.41598 2.17805 6.1548 2.05159 6.9 2.046C8.05 2.046 8.4755 1.98 11.5 1.98C14.5245 1.98 14.95 1.98 16.1 2.046C16.83 2.05401 17.5533 2.18047 18.239 2.42C18.7616 2.60552 19.2306 2.90713 19.6075 3.3C19.9844 3.6379 20.2788 4.05101 20.47 4.51C20.7256 5.17983 20.8579 5.88696 20.861 6.6C20.9185 7.7 20.93 8.107 20.93 11C20.93 13.893 20.9185 14.3 20.861 15.4ZM11.5 5.357C10.3337 5.35917 9.19421 5.69198 8.22555 6.31336C7.2569 6.93474 6.50254 7.81682 6.05778 8.84813C5.61302 9.87944 5.49783 11.0137 5.72676 12.1076C5.95569 13.2015 6.51847 14.206 7.34399 14.9941C8.1695 15.7822 9.22071 16.3185 10.3648 16.5354C11.5089 16.7522 12.6945 16.6398 13.7718 16.2124C14.8491 15.785 15.7698 15.0617 16.4175 14.1339C17.0653 13.2062 17.411 12.1156 17.411 11C17.4125 10.2576 17.2606 9.52227 16.9639 8.83625C16.6673 8.15024 16.2317 7.52709 15.6824 7.00266C15.1331 6.47822 14.4807 6.06285 13.763 5.78042C13.0452 5.498 12.2761 5.3541 11.5 5.357ZM11.5 14.663C10.7426 14.663 10.0022 14.4482 9.37244 14.0457C8.74269 13.6432 8.25185 13.0711 7.962 12.4018C7.67216 11.7324 7.59632 10.9959 7.74408 10.2854C7.89184 9.57483 8.25657 8.92215 8.79213 8.40987C9.3277 7.89759 10.0101 7.54872 10.7529 7.40738C11.4958 7.26605 12.2657 7.33859 12.9655 7.61583C13.6652 7.89307 14.2633 8.36257 14.6841 8.96495C15.1049 9.56732 15.3295 10.2755 15.3295 11C15.3295 11.481 15.2304 11.9574 15.038 12.4018C14.8455 12.8462 14.5635 13.25 14.2079 13.5901C13.8523 13.9303 13.4301 14.2001 12.9655 14.3842C12.5009 14.5683 12.0029 14.663 11.5 14.663Z" fill="#2D3A6E"/>
</svg>
