<svg width="39" height="38" viewBox="0 0 39 38" fill="none" xmlns="http://www.w3.org/2000/svg">
<path d="M19.4533 17.6281C18.9823 17.6281 18.6055 18.0075 18.6055 18.4817C18.6055 18.9559 18.9823 19.3352 19.4533 19.3352C19.9243 19.3352 20.3011 18.9559 20.3011 18.4817C20.3011 18.0075 19.9243 17.6281 19.4533 17.6281Z" fill="#F9B000"/>
<path d="M19.4533 16.727C19.9243 16.727 20.3011 16.3476 20.3011 15.8734C20.3011 15.3993 19.9243 15.0199 19.4533 15.0199C18.9823 15.0199 18.6055 15.3993 18.6055 15.8734C18.6055 16.3476 19.0294 16.727 19.4533 16.727Z" fill="#F9B000"/>
<path d="M26.0955 20.3782C25.5303 18.4814 25.9071 18.8608 24.0231 18.2918C25.9071 17.7227 25.5303 18.1021 26.0955 16.2053C26.6608 18.1021 26.2839 17.7227 28.168 18.2918C26.331 18.8608 26.7079 18.4814 26.0955 20.3782ZM26.8021 12.886C24.7767 10.8469 22.139 9.85114 19.4542 9.85114C16.7694 9.85114 14.1318 10.8469 12.1064 12.886C8.05568 16.964 8.05568 23.6027 12.1064 27.6808L16.7694 32.3753L16.8636 32.2804C18.7006 29.7198 18.8419 23.2708 18.8419 23.2708C18.8419 23.2708 17.5702 22.3224 16.3926 23.2233C15.9687 21.2317 16.8165 19.904 16.8165 19.904C16.8165 19.8092 16.8165 19.7143 16.8165 19.6195C16.8165 16.8218 17.8528 13.8818 19.5013 12.7911C21.197 13.9292 22.2332 17.0589 22.1861 19.904C22.1861 19.904 22.7513 20.7576 22.7513 22.0853C22.7513 22.4172 22.7042 22.7966 22.61 23.1759C21.4325 22.3224 20.1607 23.2233 20.1607 23.2233C20.1607 23.2233 20.3021 29.6724 22.139 32.233L22.2332 32.3278L26.8963 27.6333C30.8528 23.6027 30.8528 16.964 26.8021 12.886Z" fill="#F9B000"/>
<path d="M19.4522 8.42861C20.0175 8.42861 20.4885 7.95441 20.4885 7.38538V1.69508C20.4885 1.12605 20.0175 0.651855 19.4522 0.651855C18.887 0.651855 18.416 1.12605 18.416 1.69508V7.4328C18.4631 8.00183 18.9341 8.42861 19.4522 8.42861Z" fill="#F9B000"/>
<path d="M26.7525 30.9054C26.4699 30.4312 25.8576 30.2416 25.3865 30.5261C24.9155 30.8106 24.7271 31.427 25.0097 31.9012L27.8829 36.8803C28.1655 37.3544 28.7778 37.5441 29.2489 37.2596C29.7199 36.9751 29.9083 36.3586 29.6257 35.8844L26.7525 30.9054Z" fill="#F9B000"/>
<path d="M13.6121 30.5261C13.1411 30.2416 12.5288 30.4312 12.2462 30.9054L9.37302 35.8844C9.09041 36.3586 9.27881 37.0225 9.74983 37.2596C10.2208 37.5441 10.8332 37.3544 11.1158 36.8803L13.9419 31.9012C14.2245 31.427 14.0832 30.8106 13.6121 30.5261Z" fill="#F9B000"/>
<path d="M11.1624 28.6292C10.7856 28.2499 10.1262 28.2499 9.74935 28.6292L5.69862 32.7073C5.32181 33.0866 5.32181 33.7505 5.69862 34.1299C6.07544 34.5092 6.73486 34.5092 7.11167 34.1299L11.1624 30.0518C11.5392 29.6725 11.5392 29.056 11.1624 28.6292Z" fill="#F9B000"/>
<path d="M9.27822 26.2109C8.99561 25.7367 8.38329 25.547 7.91228 25.8316L2.96663 28.7241C2.49561 29.0086 2.30721 29.6251 2.58981 30.0993C2.87242 30.5735 3.48474 30.7632 3.95576 30.4786L8.90141 27.5861C9.41952 27.3016 9.56083 26.6851 9.27822 26.2109Z" fill="#F9B000"/>
<path d="M8.1018 23.3657C7.96049 22.8441 7.39528 22.5121 6.87716 22.6544L1.36629 24.1244C0.848177 24.2666 0.518467 24.8357 0.659771 25.3573C0.801076 25.8789 1.36629 26.2108 1.88441 26.0686L7.39528 24.5986C7.96049 24.4563 8.2431 23.8873 8.1018 23.3657Z" fill="#F9B000"/>
<path d="M6.6884 21.3267C7.25362 21.3267 7.72463 20.8525 7.72463 20.3309C7.72463 19.7619 7.25362 19.3351 6.6884 19.3351H0.98913C0.423913 19.3351 0 19.8093 0 20.3309C0 20.8525 0.471014 21.3267 0.98913 21.3267H6.6884Z" fill="#F9B000"/>
<path d="M1.36558 16.4424L6.87644 17.9124C7.39456 18.0547 7.95978 17.7228 8.10108 17.2011C8.24239 16.6795 7.91268 16.1105 7.39456 15.9682L1.88369 14.4982C1.36558 14.356 0.80036 14.6879 0.659056 15.2095C0.517752 15.7311 0.80036 16.3002 1.36558 16.4424Z" fill="#F9B000"/>
<path d="M2.96663 11.8428L7.91228 14.7354C8.38329 15.0199 8.99561 14.8303 9.27822 14.3561C9.56082 13.8819 9.37242 13.218 8.9014 12.9809L3.95575 10.0883C3.48474 9.80381 2.87242 9.99349 2.58981 10.4677C2.30721 10.9419 2.49561 11.5583 2.96663 11.8428Z" fill="#F9B000"/>
<path d="M12.1991 9.66149C12.4817 10.1357 13.094 10.3254 13.565 10.0408C14.0361 9.75633 14.2245 9.13988 13.9419 8.66569L11.1158 3.63925C10.8332 3.16506 10.2208 2.97538 9.74983 3.2599C9.27881 3.54441 9.09041 4.16086 9.37302 4.63506L12.1991 9.66149Z" fill="#F9B000"/>
<path d="M9.70247 11.9376C10.0793 12.317 10.7387 12.317 11.1155 11.9376C11.4923 11.5583 11.4923 10.8944 11.1155 10.515L7.06479 6.43698C6.68798 6.05763 6.02856 6.05763 5.65175 6.43698C5.27494 6.81633 5.27494 7.4802 5.65175 7.85956L9.70247 11.9376Z" fill="#F9B000"/>
<path d="M15.2137 8.14412C15.355 8.66574 15.9202 8.99767 16.4383 8.85541C16.9564 8.71315 17.2861 8.14412 17.1448 7.62251L15.6847 2.07447C15.5434 1.55286 14.9782 1.22092 14.46 1.36318C13.9419 1.50544 13.6122 2.07447 13.7535 2.59608L15.2137 8.14412Z" fill="#F9B000"/>
<path d="M29.2035 28.6292C28.8267 28.2499 28.1672 28.2499 27.7904 28.6292C27.4136 29.0086 27.4136 29.6725 27.7904 30.0518L31.8411 34.1299C32.218 34.5092 32.8774 34.5092 33.2542 34.1299C33.631 33.7505 33.631 33.0866 33.2542 32.7073L29.2035 28.6292Z" fill="#F9B000"/>
<path d="M35.9854 28.6766L31.0397 25.784C30.5687 25.4995 29.9564 25.6892 29.6738 26.1634C29.3912 26.6376 29.5796 27.3014 30.0506 27.5385L34.9963 30.4311C35.4673 30.7156 36.0796 30.5259 36.3622 30.0517C36.6448 29.625 36.4564 28.9611 35.9854 28.6766Z" fill="#F9B000"/>
<path d="M37.5867 24.1244L32.0758 22.6544C31.5577 22.5121 30.9925 22.8441 30.8512 23.3657C30.7099 23.8873 31.0396 24.4563 31.5577 24.5986L37.0686 26.0686C37.5867 26.2108 38.1519 25.8789 38.2932 25.3573C38.4345 24.8357 38.1048 24.2666 37.5867 24.1244Z" fill="#F9B000"/>
<path d="M37.9643 19.2402H32.2179C31.6527 19.2402 31.1816 19.7144 31.1816 20.236C31.1816 20.7576 31.6527 21.2318 32.2179 21.2318H37.9643C38.5295 21.2318 39.0005 20.7576 39.0005 20.236C39.0005 19.7144 38.5295 19.2402 37.9643 19.2402Z" fill="#F9B000"/>
<path d="M30.8043 17.2011C30.9456 17.7228 31.5108 18.0547 32.0289 17.9124L37.5398 16.4424C38.0579 16.3002 38.3876 15.7311 38.2463 15.2095C38.105 14.6879 37.5398 14.356 37.0217 14.4982L31.5108 15.9682C30.9927 16.1105 30.663 16.6795 30.8043 17.2011Z" fill="#F9B000"/>
<path d="M29.6255 14.3561C29.9082 14.8303 30.5205 15.0199 30.9915 14.7354L35.9371 11.8428C36.4081 11.5583 36.5966 10.9419 36.3139 10.4677C36.0313 9.99349 35.419 9.80381 34.948 10.0883L30.0024 12.9809C29.5313 13.2654 29.39 13.8819 29.6255 14.3561Z" fill="#F9B000"/>
<path d="M27.7904 11.9376C28.1672 12.317 28.8267 12.317 29.2035 11.9376L33.2542 7.85956C33.631 7.4802 33.631 6.81633 33.2542 6.43698C32.8774 6.05763 32.218 6.05763 31.8411 6.43698L27.7904 10.515C27.4136 10.847 27.4136 11.5108 27.7904 11.9376Z" fill="#F9B000"/>
<path d="M25.3416 10.0408C25.8126 10.3253 26.425 10.1356 26.7076 9.66144L29.5808 4.68242C29.8634 4.20823 29.675 3.59178 29.2039 3.30726C28.7329 3.02275 28.1206 3.21242 27.838 3.68662L24.9648 8.66563C24.6822 9.13983 24.8706 9.75628 25.3416 10.0408Z" fill="#F9B000"/>
<path d="M22.5138 8.85541C23.0319 8.99767 23.5971 8.66574 23.7384 8.14412L25.2456 2.59608C25.387 2.07447 25.0572 1.50544 24.5391 1.36318C24.021 1.22092 23.4558 1.55286 23.3145 2.07447L21.8543 7.62251C21.6659 8.14412 21.9956 8.71315 22.5138 8.85541Z" fill="#F9B000"/>
</svg>
