<svg width="578" height="558" viewBox="0 0 578 558" fill="none" xmlns="http://www.w3.org/2000/svg">
<path opacity="0.3" d="M509.87 234.933C497.165 138.056 445.072 19.0388 342.155 6.58307C342.155 6.58307 264.017 -4.48805 186.99 12.2912C141.274 22.2507 101.188 51.8953 75.8226 94.5026C50.4575 137.11 41.9846 189.065 52.2673 238.595C58.9454 270.765 63.459 304.06 62.2201 337.118C60.6581 378.808 57.7166 422.644 73.539 461.521C96.721 518.484 153.284 535.263 202.638 540.614C220.826 542.586 239.081 543.381 257.284 545.057C292.205 548.272 331.367 543.067 365.024 532.478C536.551 478.507 522.575 331.809 509.87 234.933Z" fill="url(#paint0_linear_661_464)"/>
<path d="M71.5312 473.238C80.6836 473.238 88.0908 464.346 88.0908 453.372C88.0908 442.397 80.6836 433.506 71.5312 433.506H260.464V473.238H71.5312Z" fill="#F8F8F8"/>
<path d="M244.39 453.372C244.39 442.397 236.983 433.506 227.831 433.506H54.1387V419.634H491.565C502.219 419.634 510.864 429.992 510.864 442.778V462.065C510.864 474.85 502.219 485.209 491.565 485.209H54.1387V473.22H227.831C236.983 473.238 244.39 464.328 244.39 453.372Z" fill="#FBB428"/>
<path d="M452.948 485.209C463.603 485.209 472.248 474.85 472.248 462.065V442.778C472.248 429.992 463.603 419.634 452.948 419.634H436.328C446.982 419.634 455.627 429.992 455.627 442.778V462.065C455.627 474.85 446.982 485.209 436.328 485.209H452.948Z" fill="url(#paint1_linear_661_464)"/>
<path d="M293.521 485.209C304.175 485.209 312.82 474.85 312.82 462.065V442.778C312.82 429.992 304.175 419.634 293.521 419.634H276.9C287.554 419.634 296.2 429.992 296.2 442.778V462.065C296.2 474.85 287.554 485.209 276.9 485.209H293.521Z" fill="url(#paint2_linear_661_464)"/>
<path d="M220.301 452.34H144.221V454.404H220.301V452.34Z" fill="#008EF8"/>
<path d="M200.577 442.796H168.066V444.86H200.577V442.796Z" fill="#008EF8"/>
<path d="M142.435 444.208H118.793V446.273H142.435V444.208Z" fill="#008EF8"/>
<path d="M128.452 454.622H107.164V456.686H128.452V454.622Z" fill="#008EF8"/>
<path d="M95.5358 444.208H86.627V446.273H95.5358V444.208Z" fill="#008EF8"/>
<path d="M358.744 405.943C352.291 405.943 347.055 395.946 347.055 383.632C347.055 371.299 352.291 361.321 358.744 361.321H225.314V405.961H358.744V405.943Z" fill="#F8F8F8"/>
<path d="M236.639 383.614C236.639 371.281 241.874 361.302 248.328 361.302H371.002V345.71H62.074C54.5451 345.71 48.457 357.354 48.457 371.715V393.375C48.457 407.736 54.5654 419.38 62.074 419.38H371.002V405.925H248.328C241.874 405.943 236.639 395.946 236.639 383.614Z" fill="#0095E0"/>
<path d="M307.401 382.599H253.664V384.664H307.401V382.599Z" fill="#008EF8"/>
<path d="M333.58 385.153H318.543V387.218H333.58V385.153Z" fill="#008EF8"/>
<path d="M348.068 373.472H341.777V375.537H348.068V373.472Z" fill="#008EF8"/>
<path d="M454.554 412.668C453.316 412.668 452.302 411.799 452.261 410.694C450.252 364.949 432.759 317.52 405.464 283.781C404.713 282.858 404.957 281.572 405.992 280.902C407.027 280.232 408.468 280.449 409.218 281.373C437.021 315.727 454.859 364.026 456.888 410.531C456.929 411.672 455.954 412.614 454.676 412.668C454.615 412.668 454.595 412.668 454.554 412.668Z" fill="url(#paint3_linear_661_464)"/>
<path d="M397.976 292.782C398.503 290.573 399.112 288.363 399.802 286.136C403.841 273.115 410.152 261.579 417.762 252.234L429.816 256.508L422.957 246.421C426.711 242.6 430.689 239.286 434.809 236.533C431.907 234.922 429.005 233.437 426.062 232.151L407.331 245.172L408.61 226.501C392.618 223.15 377.297 225.034 365.75 233.074C350.651 243.578 345.375 262.213 349.454 282.514L364.086 283.148L351.443 290.283C355.157 302.145 361.935 314.296 371.736 325.524C373.421 327.444 375.146 329.291 376.911 331.066L423.038 298.994L397.976 292.782Z" fill="url(#paint4_linear_661_464)"/>
<path d="M464.762 260.819C455.893 250.659 445.584 242.51 434.829 236.515C430.709 239.268 426.711 242.564 422.977 246.403L429.837 256.49L417.782 252.216C410.172 261.561 403.861 273.097 399.823 286.118C399.133 288.345 398.524 290.555 397.996 292.764L423.059 298.958L469.51 266.65C468.009 264.694 466.426 262.738 464.762 260.819Z" fill="url(#paint5_linear_661_464)"/>
<path d="M464.454 412.687C463.399 412.687 462.466 412.053 462.222 411.093C450.066 364.841 453.313 313.011 470.908 272.445C471.374 271.377 472.694 270.852 473.891 271.268C475.068 271.685 475.677 272.862 475.21 273.93C457.94 313.735 454.754 364.66 466.707 410.151C466.991 411.256 466.22 412.361 464.982 412.632C464.799 412.669 464.617 412.687 464.454 412.687Z" fill="url(#paint6_linear_661_464)"/>
<path d="M519.532 266.342L499.705 261.435L515.271 251.474C509.913 238.906 500.68 229.815 488.463 226.791C472.472 222.843 454.938 230.123 440.753 244.611L447.612 254.698L435.558 250.424C427.948 259.768 421.636 271.304 417.598 284.325C416.908 286.553 416.299 288.762 415.771 290.971L513.789 315.184C514.601 313.047 515.372 310.874 516.062 308.647C520.709 293.742 521.663 279.091 519.532 266.342Z" fill="url(#paint7_linear_661_464)"/>
<path d="M492.967 283.691L494.408 291.877L487.874 286.372C480.527 290.627 473.384 296.477 467.113 303.666L513.809 315.202C514.62 313.065 515.392 310.892 516.081 308.665C519.247 298.469 520.668 288.418 520.587 279.019C512.449 277.335 502.708 279.073 492.967 283.691Z" fill="url(#paint8_linear_661_464)"/>
<path d="M462.406 404.175C462.224 404.175 462.041 404.157 461.838 404.121C460.6 403.849 459.849 402.727 460.154 401.622C468.027 373.371 480.873 347.401 497.25 326.503C497.981 325.561 499.422 325.344 500.457 325.996C501.491 326.648 501.755 327.934 501.025 328.857C484.952 349.339 472.37 374.856 464.618 402.6C464.375 403.542 463.441 404.175 462.406 404.175Z" fill="url(#paint9_linear_661_464)"/>
<path d="M541.593 326.43L530.208 318.788L543.257 315.673C543.521 306.184 540.253 298.125 533.232 293.416C524.059 287.259 510.523 288.164 497.028 294.575L498.469 302.761L491.935 297.255C484.223 301.729 476.714 307.94 470.22 315.637C469.104 316.959 468.069 318.281 467.055 319.621L523.349 357.416C524.506 356.184 525.662 354.917 526.758 353.613C534.206 344.775 539.198 335.322 541.593 326.43Z" fill="url(#paint10_linear_661_464)"/>
<path d="M446.557 420.836H487.55L497.128 347.89H436.979L446.557 420.836Z" fill="#2D3A6E"/>
<path d="M182.591 308.877H79.5352V341.266C79.5847 348.252 84.6433 355.238 94.7356 360.568C114.92 371.229 147.553 371.229 167.613 360.568C177.656 355.238 182.64 348.252 182.591 341.266V308.877Z" fill="#00669A"/>
<path opacity="0.1" d="M79.5352 324.096L131.063 351.314L182.591 323.915V308.877H79.5352V324.096Z" fill="#2D3A6E"/>
<path d="M226.53 287.239V293.771L131.062 344.51L131.087 337.978L226.53 287.239Z" fill="#13AFFF"/>
<path d="M131.088 337.978L131.063 344.51L35 293.771L35.0248 287.239L131.088 337.978Z" fill="#0084C8"/>
<path d="M226.531 287.239L131.088 337.978L35.0254 287.239L130.468 236.5L226.531 287.239Z" fill="#00669A"/>
<path d="M145.815 284.131C148.072 287.193 146.906 290.822 142.244 293.295C135.971 296.629 125.705 296.629 119.357 293.295C118.935 293.068 118.539 292.841 118.191 292.592C118.985 293.68 120.2 294.678 121.837 295.563C128.16 298.897 138.426 298.897 144.724 295.563C150.601 292.433 150.948 287.488 145.815 284.131Z" fill="#2D3A6E"/>
<path d="M144.381 295.722C142.571 296.629 140.488 297.242 138.257 297.627L138.207 297.695L172.575 315.841V349.115H177.535V313.232L144.381 295.722Z" fill="#FCBA3A"/>
<path d="M177.358 348.139H177.011H173.44H173.093C173.093 348.139 163.72 360.251 169.894 372.386C171.332 372.386 172.473 372.386 173.415 372.386H173.44C173.515 372.386 174.06 372.386 177.061 372.386C177.061 372.386 177.061 372.386 177.085 372.386C178.003 372.386 179.168 372.386 180.606 372.386C186.731 360.251 177.358 348.139 177.358 348.139Z" fill="#FCBA3A"/>
<path d="M178.602 370.39C178.825 369.279 178.726 367.94 178.801 366.557C178.825 365.854 178.825 365.128 178.726 364.402C178.652 363.676 178.578 362.928 178.528 362.202C178.478 361.453 178.305 360.75 178.181 360.024C178.032 359.321 177.908 358.618 177.784 357.938C177.387 356.622 177.139 355.375 176.743 354.377C176.073 352.313 175.453 351.042 175.453 351.042C175.453 351.042 175.974 352.381 176.47 354.49C176.767 355.533 176.941 356.781 177.214 358.096C177.288 358.754 177.362 359.457 177.462 360.161C177.536 360.864 177.66 361.567 177.635 362.293C177.635 363.018 177.66 363.722 177.66 364.425C177.71 365.128 177.66 365.808 177.561 366.489C177.387 367.804 177.387 369.052 177.09 370.072C176.842 371.025 176.668 371.796 176.519 372.386C176.693 372.386 176.867 372.386 177.065 372.386C177.065 372.386 177.065 372.386 177.09 372.386C177.462 372.386 177.883 372.386 178.305 372.386C178.379 371.819 178.478 371.184 178.602 370.39Z" fill="#13AFFF"/>
<path d="M173.394 370.072C173.097 369.074 173.121 367.804 172.923 366.489C172.824 365.831 172.799 365.128 172.824 364.425C172.824 363.722 172.849 362.996 172.849 362.293C172.824 361.567 172.948 360.864 173.022 360.161C173.097 359.457 173.196 358.754 173.27 358.096C173.543 356.781 173.716 355.511 174.014 354.49C174.51 352.381 175.031 351.042 175.031 351.042C175.031 351.042 174.411 352.313 173.741 354.377C173.344 355.397 173.097 356.645 172.7 357.938C172.576 358.618 172.427 359.299 172.278 360.024C172.154 360.75 171.956 361.453 171.931 362.202C171.857 362.95 171.782 363.676 171.733 364.402C171.634 365.128 171.634 365.854 171.658 366.557C171.733 367.963 171.609 369.301 171.857 370.39C171.981 371.184 172.08 371.819 172.179 372.386C172.601 372.386 173.047 372.386 173.394 372.386H173.419C173.444 372.386 173.592 372.386 173.964 372.386C173.816 371.796 173.617 371.025 173.394 370.072Z" fill="#13AFFF"/>
<path d="M181.626 368.643C181.75 367.94 181.824 367.215 181.799 366.421C181.849 365.649 181.775 364.856 181.7 364.062C181.651 363.268 181.427 362.474 181.303 361.703C180.56 358.573 179.097 355.851 177.882 353.968C176.642 352.086 175.625 351.042 175.625 351.042C175.625 351.042 176.542 352.199 177.634 354.173C178.7 356.146 179.94 358.958 180.386 361.952C180.46 362.701 180.634 363.449 180.609 364.198C180.634 364.946 180.659 365.649 180.56 366.353C180.535 367.056 180.411 367.714 180.237 368.303C180.113 368.916 179.964 369.505 179.766 370.004C179.444 371.048 179.022 371.819 178.7 372.363C178.675 372.386 178.675 372.386 178.675 372.409C179.245 372.409 179.865 372.409 180.584 372.409C180.708 372.159 180.808 371.91 180.907 371.637C181.006 371.297 181.13 370.98 181.229 370.594C181.427 370.004 181.527 369.347 181.626 368.643Z" fill="#13AFFF"/>
<path d="M175.229 351.042L174.361 372.386C174.758 372.386 175.304 372.386 176.097 372.386L175.229 351.042Z" fill="#13AFFF"/>
<path d="M171.756 372.341C171.434 371.796 171.037 371.025 170.69 369.982C170.467 369.483 170.343 368.916 170.219 368.281C170.045 367.668 169.946 367.01 169.897 366.33C169.797 365.627 169.797 364.924 169.847 364.175C169.822 363.427 169.996 362.701 170.07 361.93C170.541 358.936 171.781 356.123 172.847 354.15C173.938 352.177 174.856 351.02 174.856 351.02C174.856 351.02 173.864 352.086 172.599 353.946C171.384 355.828 169.921 358.55 169.177 361.68C169.029 362.474 168.806 363.245 168.781 364.039C168.682 364.833 168.632 365.627 168.682 366.398C168.657 367.169 168.731 367.918 168.855 368.621C168.954 369.324 169.054 369.982 169.252 370.571C169.351 370.957 169.45 371.274 169.574 371.615C169.698 371.864 169.773 372.114 169.897 372.386C170.591 372.386 171.236 372.386 171.806 372.386C171.781 372.363 171.781 372.363 171.756 372.341Z" fill="#13AFFF"/>
<path d="M170.391 348.139C170.391 345.69 172.548 343.716 175.226 343.716C177.904 343.716 180.061 345.69 180.061 348.139C180.061 350.589 177.904 352.562 175.226 352.562C172.548 352.562 170.391 350.589 170.391 348.139Z" fill="#FCBA3A"/>
<defs>
<linearGradient id="paint0_linear_661_464" x1="48" y1="3" x2="532.856" y2="541.847" gradientUnits="userSpaceOnUse">
<stop stop-color="#9DDAF9"/>
<stop offset="1" stop-color="white"/>
</linearGradient>
<linearGradient id="paint1_linear_661_464" x1="454.288" y1="419.634" x2="454.288" y2="485.209" gradientUnits="userSpaceOnUse">
<stop stop-color="#0095E0"/>
<stop offset="1" stop-color="#00669A"/>
</linearGradient>
<linearGradient id="paint2_linear_661_464" x1="294.86" y1="419.634" x2="294.86" y2="485.209" gradientUnits="userSpaceOnUse">
<stop stop-color="#0095E0"/>
<stop offset="1" stop-color="#00669A"/>
</linearGradient>
<linearGradient id="paint3_linear_661_464" x1="401.916" y1="301.657" x2="480.55" y2="328.658" gradientUnits="userSpaceOnUse">
<stop stop-color="#1AB2FF"/>
<stop offset="1" stop-color="#BAE8FF"/>
</linearGradient>
<linearGradient id="paint4_linear_661_464" x1="348.125" y1="224.921" x2="443.313" y2="324.995" gradientUnits="userSpaceOnUse">
<stop stop-color="#00669A"/>
<stop offset="1" stop-color="white"/>
</linearGradient>
<linearGradient id="paint5_linear_661_464" x1="433.753" y1="236.515" x2="433.753" y2="298.958" gradientUnits="userSpaceOnUse">
<stop stop-color="#0095E0"/>
<stop offset="1" stop-color="#00669A"/>
</linearGradient>
<linearGradient id="paint6_linear_661_464" x1="465.164" y1="271.125" x2="465.164" y2="424.012" gradientUnits="userSpaceOnUse">
<stop stop-color="#2CB8FF"/>
<stop offset="0.416667" stop-color="#9DDEFF"/>
<stop offset="1" stop-color="#F8FDFF"/>
</linearGradient>
<linearGradient id="paint7_linear_661_464" x1="468.192" y1="225.727" x2="468.192" y2="315.184" gradientUnits="userSpaceOnUse">
<stop stop-color="#0095E0"/>
<stop offset="0.37" stop-color="#00A7FD"/>
<stop offset="1" stop-color="white"/>
</linearGradient>
<linearGradient id="paint8_linear_661_464" x1="493.852" y1="278.389" x2="493.852" y2="318.147" gradientUnits="userSpaceOnUse">
<stop stop-color="#2CB8FF"/>
<stop offset="0.416667" stop-color="#9DDEFF"/>
<stop offset="1" stop-color="#F8FDFF"/>
</linearGradient>
<linearGradient id="paint9_linear_661_464" x1="480.763" y1="325.621" x2="480.763" y2="404.175" gradientUnits="userSpaceOnUse">
<stop stop-color="#00669A"/>
<stop offset="0.450562" stop-color="#007DBD"/>
<stop offset="1" stop-color="white"/>
</linearGradient>
<linearGradient id="paint10_linear_661_464" x1="467.055" y1="289.251" x2="524.413" y2="371.814" gradientUnits="userSpaceOnUse">
<stop stop-color="#00669A"/>
<stop offset="1" stop-color="white"/>
</linearGradient>
</defs>
</svg>
