<svg width="519" height="561" viewBox="0 0 519 561" fill="none" xmlns="http://www.w3.org/2000/svg">
<path d="M316.662 429.934C316.662 429.719 316.65 429.497 316.555 429.274C311.464 416.223 290.626 409.529 290.626 409.529L280.599 410.035C274.832 421.537 271.117 427.158 272.043 430.302C272.067 430.386 272.114 430.47 272.15 430.562C280.421 431.038 297.438 431.352 316.662 429.934Z" fill="url(#paint0_linear_661_1050)"/>
<path d="M298.955 402.82L294.585 412.007C294.266 412.678 293.085 413.184 291.644 413.246C289.884 413.318 287.391 413.359 284.875 413.199C282.619 413.055 281.048 412.053 281.45 410.98L284.485 402.825L298.955 402.825L298.955 402.82Z" fill="url(#paint1_linear_661_1050)"/>
<path d="M159.684 429.808C159.737 429.703 159.781 429.605 159.86 429.508C163.701 424.559 173.494 414.703 192.842 410.426L202.125 410.159C202.125 410.159 206.257 416.776 206.336 429.038C204.217 429.84 200.112 430.699 192.183 430.901C179.938 431.217 165.398 430.245 159.684 429.808Z" fill="url(#paint2_linear_661_1050)"/>
<path d="M203.268 402.205C203.126 402.613 201.425 408.786 200.752 411.181C200.598 411.748 199.653 412.192 198.46 412.254C196.334 412.363 192.897 412.466 189.896 412.197C188.278 412.053 187.097 411.372 187.097 410.582L187.097 400.889L203.268 402.205Z" fill="url(#paint3_linear_661_1050)"/>
<path d="M290.628 282.182C290.628 282.182 310.59 359.703 299.499 408.151C299.499 408.151 286.198 408.151 279.536 407.181C279.536 407.181 258.795 331.389 252.085 309.701C251.837 308.886 249.156 308.845 248.79 309.655C240.51 327.9 208.003 399.455 204.129 406.216C204.129 406.216 193.037 408.151 184.167 406.216C184.167 406.216 201.908 302.533 215.209 284.123L290.628 282.182Z" fill="url(#paint4_linear_661_1050)"/>
<path d="M235.462 215.556C225.026 219.568 197.485 222.84 189.553 219.698C190.724 213.58 188.009 213.282 186.958 207.227C186.958 207.227 194.293 200.422 199.428 199.538C203.822 198.781 212.492 190.829 237.106 189.554C243.586 189.223 260.688 207.907 235.462 215.556Z" fill="url(#paint5_linear_661_1050)"/>
<path d="M250.531 195.599C252.443 200.21 255.917 214.489 222.12 222.106C216.957 211.686 215.167 191.49 215.167 191.49C215.167 191.49 243.399 178.398 250.531 195.599Z" fill="#3E6BC6"/>
<path d="M155.268 173.539C158.357 176.447 164.119 179.213 166.114 179.919L172.721 174.893C172.838 166.37 166.934 158.85 166.07 158.18C163.825 156.439 162.877 155.482 162.487 155.682C162.098 155.882 160.635 157.134 163.338 160.259C169.253 167.106 161.485 165.247 153.837 154.017C152.266 151.707 147.314 153.824 146.948 156.413C146.279 161.179 146.437 165.225 155.268 173.539Z" fill="url(#paint6_linear_661_1050)"/>
<path d="M274.673 173.661L263.947 188.625C263.947 188.625 254.561 197.873 242.563 192.84C242.332 191.659 247.633 182.711 247.633 182.711L274.673 173.661Z" fill="url(#paint7_linear_661_1050)"/>
<path d="M243.006 188.843C243.006 188.843 251.151 198.473 263.948 188.625C263.948 188.625 280.592 190.651 282.297 217.384C284.955 259.095 296.783 285.44 296.783 285.44C296.783 285.44 248.395 311.263 211.367 287.673C211.14 283.917 215.628 200.179 243.006 188.843Z" fill="#264591"/>
<path d="M230.545 128.625C218.537 146.923 219.806 169.276 232.618 177.809C247.39 187.644 272.269 182.178 284.278 163.88C296.286 145.582 293.988 122.854 279.151 113.12C264.314 103.383 242.555 110.323 230.545 128.625Z" fill="url(#paint8_linear_661_1050)"/>
<path d="M283.457 167.685C274.939 162.85 277.586 150.881 276.805 135.093C263.584 144.274 230.161 124.063 230.161 124.063C230.161 124.063 233.054 100.458 260.696 100.17C287.064 99.8878 325.23 136.942 283.457 167.685Z" fill="black"/>
<path d="M258.864 161.041C260.442 162.076 262.559 161.638 263.593 160.06C264.628 158.483 264.19 156.365 262.612 155.331C261.035 154.296 258.918 154.734 257.883 156.312C256.849 157.889 257.287 160.006 258.864 161.041Z" fill="black"/>
<path d="M233.934 144.916C235.511 145.95 237.629 145.512 238.663 143.935C239.698 142.357 239.26 140.24 237.682 139.206C236.105 138.171 233.988 138.609 232.953 140.186C231.913 141.767 232.356 143.881 233.934 144.916Z" fill="black"/>
<path d="M232.463 136.188C232.929 136.496 233.548 136.553 234.083 136.291C235.568 135.565 236.892 135.412 238.012 135.84C239.95 136.576 240.884 138.807 240.895 138.827C241.238 139.66 242.192 140.067 243.028 139.728C243.865 139.389 244.273 138.445 243.94 137.605C243.881 137.461 242.49 134.051 239.213 132.785C237.201 132.008 234.989 132.196 232.645 133.342C231.833 133.741 231.493 134.722 231.891 135.538C232.024 135.814 232.227 136.031 232.463 136.188Z" fill="black"/>
<path d="M267.753 159.308C268.052 159.507 268.42 159.605 268.809 159.57C269.71 159.484 270.371 158.684 270.285 157.782C269.96 154.349 268.769 151.815 266.746 150.252C264.137 148.233 261.129 148.689 261.004 148.708C260.11 148.854 259.501 149.693 259.645 150.59C259.788 151.479 260.624 152.084 261.511 151.949C261.575 151.942 263.321 151.726 264.772 152.873C266.028 153.863 266.785 155.621 267.021 158.093C267.068 158.605 267.349 159.042 267.753 159.308Z" fill="black"/>
<path d="M280.394 161.049C274.759 162.926 271.317 167.836 272.707 172.016C274.098 176.193 279.799 178.059 285.435 176.178C291.07 174.301 294.512 169.391 293.122 165.211C291.731 161.034 286.033 159.173 280.394 161.049Z" fill="url(#paint9_linear_661_1050)"/>
<path d="M277.572 171.247C277.69 171.326 277.827 171.38 277.971 171.408C278.567 171.517 279.135 171.124 279.244 170.528C279.607 168.552 280.406 167.301 281.625 166.805C283.504 166.037 286.061 167.094 287.675 168.233C288.167 168.581 288.851 168.463 289.198 167.971C289.546 167.479 289.428 166.795 288.936 166.447C286.772 164.919 283.496 163.681 280.798 164.781C279.454 165.328 277.722 166.702 277.091 170.136C277.012 170.58 277.216 171.016 277.572 171.247Z" fill="#DE623C"/>
<path d="M246.769 170.652C247.53 170.23 247.565 169.09 246.818 168.815C244.928 168.114 241.84 166.883 239.061 165.397C236.283 163.911 233.548 162.021 231.918 160.836C231.278 160.368 230.347 161.031 230.414 161.895C230.629 164.559 231.659 168.981 235.921 171.261C240.179 173.544 244.428 171.95 246.769 170.652Z" fill="url(#paint10_linear_661_1050)"/>
<path d="M243.955 151.378C243.955 151.378 240.556 153.938 237.515 155.012C237.676 157.575 241.713 160.221 241.713 160.221L240.37 155.901C240.369 155.905 243.344 153.432 243.955 151.378Z" fill="#DE623C"/>
<path d="M269.029 223.393C262.943 232.773 242.588 251.608 234.325 253.732C231.672 248.098 229.303 249.451 224.895 245.172C224.895 245.172 226.829 235.357 230.462 231.621C233.569 228.423 235.911 216.896 255.074 201.395C260.119 197.312 284.941 202.38 269.029 223.393Z" fill="url(#paint11_linear_661_1050)"/>
<path d="M269.487 198.391C273.741 200.994 284.947 210.508 262.086 236.535C251.784 231.14 238.466 215.855 238.466 215.855C238.466 215.855 253.607 188.67 269.487 198.391Z" fill="#3E6BC6"/>
<path d="M178.59 236.613C182.802 237.099 189.079 235.875 191.101 235.245L193.398 227.27C188.401 220.367 179.173 217.864 178.079 217.843C175.238 217.79 173.91 217.587 173.713 217.982C173.517 218.372 173.09 220.251 177.13 221.146C185.963 223.102 178.624 226.254 165.784 221.814C163.142 220.902 160.438 225.557 161.692 227.852C163.999 232.07 166.542 235.222 178.59 236.613Z" fill="url(#paint12_linear_661_1050)"/>
<path d="M189.018 226.724C200.819 228.385 214.643 232.893 227.3 236.272C233.426 239.608 238.735 248.071 235.223 252.656C233.786 254.635 230.029 256.359 227.589 257.109C212.03 254.049 197.879 244.886 185.765 234.552L189.018 226.724Z" fill="url(#paint13_linear_661_1050)"/>
<path d="M171.009 173.082C180.31 180.538 189.891 191.472 199.049 200.842C202.614 206.838 202.858 216.825 197.497 218.973C195.252 219.94 191.138 219.503 188.656 218.903C176.841 208.325 169.356 193.225 164.216 178.155L171.009 173.082Z" fill="url(#paint14_linear_661_1050)"/>
<path d="M431.618 6.17483C431.486 6.24243 431.373 6.28107 431.222 6.31004C431.693 6.69636 432.24 7.02474 432.862 7.35312C433.842 7.86499 432.315 8.63764 431.335 8.12576C430.638 7.76841 430.016 7.39175 429.507 6.96679C428.207 7.62354 426.907 8.28029 425.625 8.93704C426.605 9.20747 427.434 9.82559 427.792 10.3181C428.282 10.9846 426.191 11.255 425.701 10.5886C425.606 10.4534 425.38 10.2988 425.192 10.1926C425.041 10.1057 424.909 10.0187 424.739 9.95114C424.664 9.91251 424.626 9.90285 424.589 9.89319C424.306 9.93182 424.023 9.92217 423.778 9.86422C422.648 10.4437 421.498 11.0039 420.367 11.5834C421.328 12.0373 422.308 12.4816 422.666 13.1673C423.025 13.853 420.933 14.1331 420.575 13.4377C420.33 12.9838 419.557 12.6651 418.841 12.356C418.031 12.7713 417.22 13.1769 416.41 13.6019C416.41 13.7081 416.41 13.8047 416.41 13.9013C416.278 13.8723 416.165 13.8337 416.052 13.7854L416.014 13.8047C415.769 13.9303 415.486 13.9786 415.223 13.9689C414.563 14.3069 413.903 14.6546 413.263 15.0023L415.486 16.1516C416.466 16.6539 414.94 17.4362 413.96 16.9339L411.755 15.7943C409.55 16.9436 407.345 18.0833 405.159 19.2422C406.818 19.1939 408.137 19.6479 408.608 21.0773C408.834 21.7726 406.742 22.0527 406.516 21.3477C406.365 20.8744 406.139 20.2274 404.933 20.295C404.123 20.3432 403.35 20.5461 402.634 20.7779C402.672 20.7875 402.709 20.7972 402.747 20.8165L403.501 21.2125C404.481 21.7147 402.954 22.497 401.974 21.9851L401.221 21.5891C401.126 21.5409 401.089 21.4926 401.032 21.4443C400.052 21.9658 399.072 22.4873 398.092 23.0089C399.148 23.8298 399.845 24.7667 401.183 25.5007C402.125 26.0222 400.599 26.7949 399.656 26.2733C398.318 25.549 397.64 24.6218 396.604 23.8105C394.587 24.8826 392.571 25.9643 390.573 27.0363C390.705 27.0653 390.818 27.0846 390.95 27.1136C392.043 27.384 392.326 28.1566 393.023 28.6009C393.871 29.1514 392.363 29.9337 391.496 29.3736C390.856 28.9583 390.498 28.3208 389.574 28.0601C387.709 29.1418 386.352 30.4263 384.543 31.5273L386.898 32.7442C387.878 33.2465 386.352 34.0288 385.372 33.5265L382.338 31.9523C382.13 31.8364 382.036 31.7108 382.036 31.5949C379.454 32.9664 376.873 34.3378 374.253 35.6996C374.404 35.7286 374.536 35.7672 374.668 35.8348L378.719 37.9306C379.699 38.4425 378.173 39.2152 377.193 38.7033L373.141 36.6075C373.028 36.5399 372.934 36.4819 372.896 36.4143C371.257 37.2642 369.655 38.1238 367.996 38.9641C364.114 40.944 360.458 43.0301 356.821 45.1259C356.991 45.0969 357.142 45.0583 357.292 45.0197C357.632 44.9521 358.084 45.039 358.329 45.1645L362.381 47.2604C363.361 47.7722 361.834 48.5449 360.854 48.0427L357.311 46.2076C354.861 46.7485 352.826 47.7046 350.942 48.6608L354.221 50.3606C355.201 50.8725 353.655 51.6451 352.694 51.1429L349.302 49.3851C348.039 50.0709 346.777 50.7566 345.476 51.4326C344.723 51.819 344.007 52.2246 343.29 52.6206C343.309 52.6206 343.309 52.6206 343.328 52.6206C345.25 52.9876 346.683 53.7796 348.096 54.5136C349.076 55.0158 347.549 55.7981 346.569 55.2959C345.552 54.7743 344.515 54.1369 343.234 53.7989C342.48 53.5961 341.82 53.6347 341.217 53.7892C340.482 54.2142 339.747 54.6295 339.013 55.0448L343.008 57.1116C343.988 57.6138 342.461 58.3961 341.481 57.8843L337.561 55.8561C336.563 56.3969 335.545 56.9378 334.452 57.4496C333.397 57.9422 332.341 58.4444 331.286 58.937C332.982 59.3426 334.659 60.1249 335.828 60.7334C336.808 61.2356 335.281 62.0179 334.301 61.506C333.265 60.9652 331.173 59.7676 329.496 59.7676C328.516 60.2312 327.517 60.6948 326.537 61.1583L331.719 63.8433C332.699 64.3455 331.173 65.1278 330.193 64.6159L324.954 61.902C324.407 62.1628 323.861 62.4139 323.314 62.6843C336.054 69.5995 346.532 77.5192 357.594 85.1394C362.399 88.4521 367.337 91.7359 372.67 94.8361C373.782 95.4832 378.531 98.6511 382.055 99.897C382.809 100.438 383.657 100.94 384.58 101.423C384.599 101.433 384.637 101.442 384.656 101.452C384.279 101.452 383.921 101.433 383.544 101.384C385.56 102.592 387.596 103.751 390.14 104.726C393.852 101.259 394.644 96.9609 396.246 93.1556C398.036 88.9157 400.41 84.6951 402.389 80.4745C406.61 71.5311 409.362 62.4622 413.941 53.5671C418.294 45.0776 422.233 36.4336 426.021 27.8766C427.83 23.8202 428.829 19.7251 430.261 15.6494C430.261 15.6011 430.28 15.5528 430.318 15.5045C430.355 15.4176 430.374 15.3307 430.412 15.2341C430.506 15.1955 430.563 15.1375 430.657 15.0892C432.428 13.1093 433.597 10.9652 434.464 8.84046C434.878 7.79739 434.501 6.75431 434.803 5.73056C434.935 5.24765 435.161 4.62953 435.312 4.05005C433.729 4.58124 432.824 5.46979 431.618 6.17483ZM366.451 41.0309C367.544 41.649 368.015 42.4893 368.845 43.1846L369.994 42.6052C370.22 42.4893 370.484 42.441 370.729 42.4506C370.616 42.5375 370.522 42.6245 370.446 42.721C370.654 42.4603 370.183 42.8756 370.126 42.9239C369.994 43.0205 369.636 43.2233 369.429 43.3585C369.033 43.5903 368.618 43.8124 368.204 44.0345C368.034 44.1311 367.902 44.2277 367.808 44.3243C366.583 43.571 366.206 42.5375 364.925 41.8132C363.982 41.282 365.528 40.4997 366.451 41.0309ZM405.14 34.6179C404.801 34.8014 404.481 34.9849 404.142 35.1684C395.982 42.1222 394.87 51.1429 392.363 58.9949C391.101 62.9644 390.517 67.2043 387.143 70.9034C383.77 74.6024 383.073 78.765 379.436 82.3965C379.549 82.5124 379.53 82.6476 379.454 82.7732C379.172 82.6766 378.889 82.6186 378.569 82.5993C378.173 82.4158 377.777 82.2323 377.381 82.0391C377.438 81.9909 377.494 81.9426 377.532 81.8943C372.218 79.953 368.543 76.8238 365.245 74.0133C361.024 70.4398 355.088 67.3492 352.185 63.399C351.733 62.7712 353.542 62.5105 354.164 63.032C362.984 58.3672 370.145 52.9779 379.059 48.3614C387.445 44.0152 394.154 38.9351 402.37 34.5117C402.389 34.502 402.389 34.4827 402.408 34.473C402.427 34.4537 402.464 34.4441 402.483 34.4247C402.521 34.4054 402.54 34.3765 402.577 34.3475L403.595 33.8259C404.613 33.3334 406.12 34.1157 405.14 34.6179Z" fill="url(#paint15_linear_661_1050)"/>
<path d="M436.195 2.65058C434.065 2.91134 432.878 3.59707 431.672 4.36972C431.577 4.39869 431.464 4.42766 431.351 4.47595C426.282 6.96774 421.345 9.48851 416.407 12.0479C416.407 11.9706 416.407 11.8837 416.407 11.7968L410.923 14.5783C410.81 14.6363 410.754 14.6942 410.697 14.7522C407.022 16.6645 403.366 18.5864 399.729 20.5277C398.033 21.1651 396.488 21.8992 395.583 22.3531C395.263 22.5076 395.225 22.6911 395.319 22.8553L395.319 22.865C386.217 27.7423 377.171 32.6389 367.881 37.4197C360.041 41.4568 352.88 45.7836 345.229 49.9173C343.212 51.0086 341.158 52.071 339.104 53.1334C338.84 53.2397 338.576 53.3459 338.331 53.4521C338.181 53.5197 338.105 53.597 338.049 53.6743C337.596 53.9061 337.182 54.1379 336.729 54.3697C336.428 54.4276 336.164 54.5532 336.051 54.7174C333.394 56.0791 330.699 57.4216 328.004 58.7641C327.231 58.909 326.497 59.2277 325.893 59.7878C325.893 59.7975 325.893 59.8072 325.875 59.8168C325.272 60.1162 324.687 60.406 324.103 60.7054C324.084 60.715 324.047 60.7247 324.028 60.744C323.255 61.1207 322.501 61.4973 321.729 61.8837C321.634 61.8354 321.559 61.7871 321.465 61.7484C320.504 61.2366 318.958 62.0189 319.938 62.5211C334.656 70.2765 346.227 79.4034 358.948 87.9798C364.225 91.534 369.69 95.0592 375.777 98.2753C376.418 98.6134 377.284 99.1156 378.302 99.6178C378.17 99.7917 378.189 100.004 378.509 100.188C382.222 102.245 385.275 104.447 389.854 106.04C390.344 106.214 391.041 106.079 391.324 105.838C395.187 102.592 395.508 98.8548 397.637 95.3006C398.862 93.2724 399.296 91.0511 400.502 88.9843C401.708 86.9078 402.876 84.8409 403.63 82.7065C407.003 73.087 410.904 63.3034 415.917 53.8674C418.273 49.4344 420.025 44.924 421.966 40.4523C424.021 35.7102 426.772 31.0743 428.807 26.3322C430.24 22.9712 431.106 19.5716 432.199 16.1912C432.52 16.027 432.652 15.7856 432.407 15.5634C432.444 15.4765 432.463 15.3799 432.501 15.293C433.405 14.4914 435.818 10.2998 436.1 9.7879C436.571 8.92833 437.156 7.86594 436.93 6.96774C436.59 5.6639 437.476 4.47595 437.514 3.20109C437.551 2.83408 436.873 2.57331 436.195 2.65058ZM434.725 5.75082C434.423 6.77458 434.8 7.81765 434.385 8.86073C433.519 10.9855 432.35 13.1296 430.579 15.1095C430.503 15.1578 430.428 15.2061 430.334 15.2544C430.296 15.3413 430.277 15.4282 430.239 15.5248C430.202 15.5731 430.202 15.6214 430.183 15.6697C428.751 19.7551 427.752 23.8404 425.943 27.8968C422.136 36.4539 418.216 45.0979 413.863 53.5874C409.284 62.4825 406.532 71.5611 402.311 80.4948C400.332 84.7057 397.939 88.9263 396.167 93.1759C394.565 96.9812 393.774 101.279 390.061 104.746C387.517 103.771 385.482 102.612 383.466 101.405C383.843 101.453 384.201 101.472 384.578 101.472C384.559 101.463 384.521 101.463 384.502 101.443C383.579 100.96 382.712 100.468 381.977 99.9172C378.472 98.6617 373.704 95.5035 372.592 94.8564C367.259 91.7561 362.321 88.4724 357.516 85.1597C346.472 77.5394 335.976 69.6198 323.236 62.7046C323.783 62.4438 324.329 62.1831 324.876 61.9223L330.115 64.6362C331.095 65.1384 332.621 64.3658 331.641 63.8636L326.459 61.1786C327.439 60.715 328.419 60.2514 329.418 59.7878C331.095 59.7878 333.187 60.9855 334.223 61.5263C335.203 62.0382 336.729 61.2559 335.75 60.7537C334.562 60.1355 332.904 59.3629 331.208 58.9573C332.263 58.4647 333.318 57.9721 334.374 57.4699C335.448 56.958 336.484 56.4268 337.483 55.8763L341.403 57.9045C342.383 58.4164 343.91 57.6341 342.93 57.1319L338.934 55.065C339.669 54.6497 340.404 54.2248 341.139 53.8095C341.742 53.6646 342.402 53.626 343.156 53.8191C344.456 54.1572 345.492 54.7946 346.491 55.3162C347.471 55.8184 348.998 55.0457 348.018 54.5338C346.604 53.7998 345.172 52.9982 343.25 52.6409C343.231 52.6409 343.231 52.6409 343.212 52.6409C343.928 52.2449 344.644 51.8392 345.398 51.4529C346.699 50.7865 347.98 50.1008 349.224 49.4054L352.616 51.1632C353.596 51.6654 355.122 50.8927 354.142 50.3809L350.863 48.681C352.767 47.7249 354.783 46.7591 357.233 46.2279L360.776 48.0629C361.756 48.5651 363.282 47.7925 362.302 47.2806L358.251 45.1848C358.006 45.0593 357.572 44.9723 357.214 45.0399C357.045 45.0689 356.894 45.1075 356.743 45.1462C360.38 43.0504 364.036 40.9642 367.918 38.9843C369.577 38.1441 371.179 37.2845 372.818 36.4346C372.875 36.5022 372.95 36.5698 373.063 36.6277L377.115 38.7236C378.095 39.2354 379.621 38.4531 378.641 37.9509L374.59 35.8551C374.458 35.7875 374.326 35.7489 374.175 35.7199C376.794 34.3581 379.376 32.9866 381.958 31.6152C381.958 31.7311 382.033 31.8566 382.26 31.9725L385.294 33.5468C386.274 34.049 387.8 33.2764 386.82 32.7645L384.464 31.5476C386.274 30.4466 387.63 29.162 389.496 28.0803C390.42 28.3411 390.778 28.9785 391.418 29.3938C392.285 29.954 393.812 29.1717 392.945 28.6212C392.248 28.1769 391.965 27.4043 390.872 27.1338C390.74 27.1049 390.627 27.0855 390.495 27.0566C392.511 25.9749 394.528 24.9028 396.525 23.8308C397.562 24.642 398.24 25.5692 399.578 26.2936C400.521 26.8151 402.066 26.0328 401.105 25.5209C399.767 24.7869 399.07 23.8501 398.014 23.0291C398.994 22.5076 399.974 21.9861 400.954 21.4645C401.011 21.5128 401.048 21.5611 401.142 21.6094L401.896 22.0054C402.876 22.5076 404.403 21.735 403.423 21.2327L402.669 20.8368C402.631 20.8174 402.594 20.8174 402.556 20.7981C403.272 20.5663 404.045 20.3635 404.855 20.3152C406.061 20.2476 406.287 20.8947 406.438 21.368C406.664 22.073 408.756 21.7929 408.53 21.0975C408.059 19.6681 406.74 19.2142 405.081 19.2625C407.267 18.1035 409.472 16.9639 411.677 15.8146L413.882 16.9542C414.862 17.4564 416.388 16.6838 415.408 16.1719L413.185 15.0226C413.844 14.6846 414.504 14.3369 415.144 13.9892C415.408 13.9988 415.691 13.9505 415.936 13.825L415.974 13.8057C416.087 13.854 416.2 13.8926 416.332 13.9216C416.332 13.8153 416.332 13.7187 416.332 13.6222C417.142 13.2069 417.952 12.7916 418.763 12.3763C419.479 12.6853 420.252 13.0041 420.497 13.458C420.855 14.1437 422.946 13.8733 422.588 13.1876C422.23 12.5018 421.25 12.0576 420.289 11.6036C421.42 11.0241 422.569 10.4543 423.7 9.88449C423.945 9.94243 424.228 9.96175 424.511 9.91346C424.548 9.92312 424.586 9.93278 424.661 9.97141C424.831 10.0487 424.963 10.1259 425.114 10.2129C425.302 10.3191 425.509 10.4736 425.622 10.6088C426.112 11.2656 428.204 10.9952 427.714 10.3384C427.356 9.84585 426.527 9.22774 425.547 8.95731C426.847 8.30056 428.129 7.64381 429.429 6.98706C429.957 7.40236 430.579 7.78868 431.257 8.14603C432.237 8.65791 433.764 7.8756 432.784 7.37338C432.162 7.04501 431.596 6.71663 431.144 6.33031C431.276 6.30133 431.408 6.2627 431.54 6.19509C432.746 5.49005 433.65 4.60151 435.158 4.08963C435.083 4.6498 434.857 5.25826 434.725 5.75082Z" fill="#2D3A6E"/>
<path d="M403.627 33.8364L402.591 34.358C402.553 34.3773 402.534 34.4063 402.497 34.4352C402.478 34.4546 402.44 34.4642 402.421 34.4835C402.402 34.4932 402.402 34.5125 402.384 34.5222C394.167 38.9359 387.458 44.0257 379.072 48.3719C370.158 52.9884 362.997 58.3873 354.177 63.0425C353.556 62.521 351.746 62.7914 352.199 63.4095C355.101 67.3597 361.037 70.4406 365.258 74.0238C368.556 76.8343 372.25 79.9635 377.546 81.9048C377.489 81.9531 377.433 82.0013 377.395 82.0496C377.791 82.2428 378.186 82.4263 378.582 82.6098C378.884 82.6291 379.185 82.6967 379.468 82.7836C379.543 82.6484 379.562 82.5229 379.449 82.407C383.067 78.7755 383.783 74.6226 387.157 70.9139C390.53 67.2148 391.095 62.9749 392.377 59.0054C394.883 51.1534 395.976 42.1327 404.155 35.1789C404.494 34.9954 404.815 34.8119 405.154 34.6284C406.115 34.1165 404.607 33.3342 403.627 33.8364ZM390.907 56.9772C389.512 61.2268 388.683 65.6116 385.819 69.6873C384.443 71.6286 382.898 73.2704 381.899 75.2986C380.975 77.2109 380.014 79.0943 378.507 80.881C373.588 79.0363 370.29 76.0809 367.162 73.4732C363.393 70.3247 358.173 67.4949 355.157 64.1146C364.241 59.3917 371.515 53.8577 380.617 49.1349C387.194 45.7256 392.735 41.8527 398.784 38.2116C394.054 44.103 392.942 50.8057 390.907 56.9772Z" fill="#2D3A6E"/>
<path d="M368.843 43.1849C367.995 42.4896 367.542 41.6493 366.449 41.0312C365.507 40.5 363.981 41.2823 364.923 41.8135C366.204 42.5379 366.581 43.5713 367.806 44.3246C367.919 44.228 368.032 44.1314 368.202 44.0349C368.617 43.8127 369.012 43.5906 369.427 43.3588C369.653 43.2236 370.011 43.0111 370.124 42.9242C370.181 42.8759 370.652 42.4702 370.445 42.7214C370.52 42.6248 370.633 42.5378 370.727 42.4509C370.482 42.4413 370.218 42.4896 369.992 42.6055L368.843 43.1849Z" fill="#2D3A6E"/>
<path d="M275.8 60.1775L282.499 62.0803L286.996 52.438L297.159 54.1062L301.798 47.3977L305.463 49.5749L299.261 58.5447L289.628 56.9649L284.95 66.9967L274.869 64.1292L275.8 60.1775Z" fill="url(#paint16_linear_661_1050)"/>
<path d="M57.0426 336.305L63.7415 338.208L68.2376 328.566L78.4007 330.234L83.0402 323.525L86.7051 325.703L80.5031 334.668L70.8704 333.093L66.1926 343.124L56.1109 340.257L57.0426 336.305Z" fill="url(#paint17_linear_661_1050)"/>
<path d="M325.254 540.428C325.254 540.428 428.284 524.471 450.693 507.563C473.103 490.654 450.923 483.03 450.923 483.03C450.923 483.03 502.679 458.457 502.082 441.747C501.485 425.038 475.769 433.534 475.769 433.534C475.769 433.534 519.379 387.477 509.053 378.733C489.821 362.44 439.408 410.316 439.408 410.316C439.408 410.316 454.377 387.548 438.61 383.946C414.834 378.512 397.284 434.654 397.284 434.654C397.284 434.654 401.742 412.484 385.348 415.435C355.934 420.737 325.254 540.428 325.254 540.428Z" fill="url(#paint18_linear_661_1050)"/>
<path d="M385.352 415.44C401.788 412.688 397.287 434.659 397.287 434.659C397.287 434.659 414.837 378.517 438.613 383.951C454.381 387.553 439.411 410.32 439.411 410.32C439.411 410.32 489.83 362.445 509.057 378.738L325.601 540.459C328.865 525.007 357.796 420.051 385.352 415.44Z" fill="url(#paint19_linear_661_1050)"/>
<path d="M295.94 553.589C295.94 553.589 350.201 502.488 377.522 497.164C404.848 491.841 399.931 509.847 399.931 509.847C399.931 509.847 454.143 465.94 466.705 476.578C479.267 487.216 465.678 497.487 465.678 497.487C465.678 497.487 510.836 490.075 517.3 503.802C527.234 524.892 452.968 536.367 452.968 536.367C452.968 536.367 484.088 538.362 476.873 551.585C465.988 571.529 295.94 553.589 295.94 553.589Z" fill="#2D3A6E"/>
<path d="M517.299 503.802C510.834 490.079 465.676 497.487 465.676 497.487C465.676 497.487 479.265 487.216 466.704 476.578C454.142 465.94 401.611 503.877 401.611 503.877C401.611 503.877 413.996 481.955 386.67 487.274C359.344 492.597 295.929 553.589 295.929 553.589L517.299 503.802Z" fill="url(#paint20_linear_661_1050)"/>
<path d="M209.556 26.5404C227.818 29.3239 233.246 51.5248 218.061 61.4549C215.333 63.2382 213.445 65.9198 212.643 68.9201L209.876 79.2484C209.116 82.0938 206.121 83.9213 202.996 83.4434L196.077 82.3902C192.952 81.9123 190.749 79.2971 191.012 76.3721C191.973 65.7119 193.158 61.8443 189.416 57.0873C178.475 43.179 191.289 23.7526 209.556 26.5404Z" fill="url(#paint21_linear_661_1050)"/>
<path d="M207.694 71.6725C208.884 62.539 210.552 52.8965 211.12 50.1618C221.589 50.6972 217.609 40.4752 212.778 44.6304C211.402 45.8163 210.752 47.4227 210.322 49.1794C206.844 48.8874 203.447 47.9714 200.346 46.4889C200.513 44.2365 200.752 42.5284 200.073 41.0859C199.046 38.9087 196.069 38.3157 194.855 40.4353C194.402 41.2319 194.32 42.2497 194.65 43.0949C195.352 44.8959 197.464 46.0863 199.309 47.02C198.759 54.2816 197.995 61.6008 197.034 68.805L198.023 68.92C198.969 61.8309 199.724 54.6312 200.274 47.4846C203.351 48.9006 206.696 49.7857 210.122 50.0866C209.405 53.5825 207.823 62.9815 206.705 71.5574L207.694 71.6725ZM216.094 48.0068C215.162 48.936 213.605 49.3432 211.33 49.2458C211.722 47.6926 212.305 46.2987 213.461 45.3074C216.056 43.0683 217.652 46.4491 216.094 48.0068ZM199.165 41.4575C199.739 42.67 199.519 44.2233 199.39 46.0066C197.894 45.2189 196.155 44.2321 195.596 42.7895C195.199 41.7762 195.644 40.3468 196.757 40.0813C196.877 40.0504 198.764 40.6079 199.165 41.4575Z" fill="#FAE0B2"/>
<path d="M212.725 68.6637C212.701 68.7478 212.667 68.8318 212.643 68.9204L209.877 79.2487C209.117 82.094 206.121 83.9216 202.996 83.4437L196.078 82.3905C192.953 81.9126 190.75 79.2973 191.013 76.3723C191.438 71.6286 191.911 68.2345 191.973 65.5042L212.725 68.6637Z" fill="#96D9C9"/>
<path d="M223.097 18.8279L228.558 9.59702C229.088 8.70314 228.735 7.58357 227.77 7.09238C226.805 6.60119 225.596 6.92865 225.065 7.82253L219.604 17.0534C219.074 17.9473 219.427 19.0668 220.392 19.558C221.362 20.0536 222.566 19.7173 223.097 18.8279Z" fill="#FAE0B2"/>
<path d="M235.034 41.1613L246.941 40.1966C248.035 40.1081 248.848 39.2142 248.752 38.1964C248.657 37.183 247.691 36.4308 246.592 36.5193L234.69 37.484C233.596 37.5725 232.784 38.4663 232.879 39.4841C232.97 40.4975 233.935 41.2498 235.034 41.1613Z" fill="#FAE0B2"/>
<path d="M246.836 74.9606C247.61 74.2349 247.6 73.0667 246.816 72.3498C243.887 69.6726 240.672 67.2387 237.251 65.1235C236.338 64.5571 235.101 64.7872 234.489 65.6324C233.877 66.4776 234.126 67.6238 235.038 68.1902C238.249 70.1771 241.269 72.4604 244.016 74.9739C244.8 75.6908 246.061 75.6908 246.836 74.9606Z" fill="#FAE0B2"/>
<path d="M193.685 18.3275C194.751 18.0664 195.382 17.0531 195.095 16.0707C193.747 11.3977 192.921 6.57875 192.639 1.74649C192.577 0.728702 191.64 -0.0545502 190.541 0.00297677C189.442 0.0560785 188.601 0.927826 188.659 1.94561C188.955 7.0301 189.825 12.1058 191.244 17.0265C191.53 18.0133 192.629 18.5886 193.685 18.3275Z" fill="#FAE0B2"/>
<path d="M181.425 32.5013C181.74 31.5233 181.148 30.4967 180.092 30.2002L167.717 26.7442C166.661 26.4521 165.552 27.0008 165.232 27.9788C164.917 28.9523 165.509 29.9834 166.565 30.2754L178.941 33.7315C179.992 34.028 181.105 33.4792 181.425 32.5013Z" fill="#FAE0B2"/>
<path d="M161.092 62.9996C161.269 62.9996 161.451 62.9775 161.632 62.9288C165.918 61.8137 170.09 60.2649 174.027 58.3267C174.997 57.8488 175.365 56.7336 174.849 55.8309C174.333 54.9326 173.124 54.5874 172.154 55.0654C168.47 56.8797 164.566 58.3267 160.552 59.371C159.492 59.6454 158.875 60.6632 159.176 61.6455C159.425 62.4686 160.223 62.9996 161.092 62.9996Z" fill="#FAE0B2"/>
<path d="M32.662 556.532H333.037C344.51 556.532 353.812 547.598 353.812 536.579V524.715C353.812 513.692 344.51 504.762 333.037 504.762H32.662C46.4039 519.188 46.6379 541.239 33.2163 555.935L32.662 556.532Z" fill="#A87003"/>
<path d="M37.2978 510.692H203.901C215.373 510.692 224.676 519.626 224.676 530.649C224.676 541.668 215.378 550.602 203.901 550.602H37.2834C45.0717 538.358 45.0526 522.901 37.2978 510.692Z" fill="#FAE0B2"/>
<path d="M138.186 468.799C137.751 468.042 138.416 467.161 139.424 467.161H298.362C310.819 467.161 320.92 475.578 320.92 485.964C320.92 496.345 310.819 504.766 298.362 504.766H139.381C138.368 504.766 137.699 503.881 138.143 503.12C144.436 492.252 144.417 479.618 138.186 468.799Z" fill="#86B1F2"/>
<path d="M139.19 470.662H217.962C232.583 470.662 244.438 477.715 244.438 486.415C244.438 495.115 232.583 502.169 217.962 502.169H138.674C144.093 492.146 144.241 480.729 139.19 470.662Z" fill="url(#paint22_linear_661_1050)"/>
<path d="M159.536 478.132H169.795C172.002 478.132 173.789 478.818 173.789 479.663V479.8H159.536V478.132Z" fill="#A87003"/>
<path d="M150.784 481.973C150.784 479.849 153.464 478.132 156.766 478.132H169.93C167.421 478.132 165.39 479.437 165.39 481.048L165.453 522.242L158.18 516.945L150.765 522.242L150.784 481.973Z" fill="url(#paint23_linear_661_1050)"/>
<path d="M167.412 465.808H259.892C268.091 465.808 274.742 458.502 274.742 449.488C274.742 440.474 268.096 433.168 259.892 433.168H167.412C174.479 442.217 174.756 455.488 168.071 464.883L167.412 465.808Z" fill="#FAE0B2"/>
<path d="M274.726 449.483C274.726 440.469 267.922 433.163 259.527 433.163H165.647C165.207 433.163 164.854 432.778 164.859 432.309C164.863 431.844 165.212 431.473 165.647 431.473H314.576C323.84 431.473 331.352 439.535 331.352 449.487C331.352 459.435 323.84 467.502 314.576 467.502H165.647C165.217 467.502 164.863 467.126 164.859 466.666C164.854 466.197 165.207 465.812 165.647 465.812H259.527C267.922 465.807 274.726 458.497 274.726 449.483Z" fill="url(#paint24_linear_661_1050)"/>
<path d="M183.554 441.182H193.812C196.02 441.182 197.807 441.854 197.807 442.686V442.819H183.554V441.182Z" fill="#2D3A6E"/>
<path d="M174.803 444.952C174.803 442.872 177.484 441.182 180.786 441.182H193.949C191.441 441.182 189.41 442.46 189.41 444.04L189.472 484.437L182.2 479.242L174.784 484.437L174.803 444.952Z" fill="url(#paint25_linear_661_1050)"/>
<path d="M381.769 254.913L472.964 239.186C474.794 238.872 476.003 237.239 475.664 235.544L464.239 178.73C463.9 177.035 462.137 175.915 460.307 176.229L369.112 191.956C367.282 192.271 366.073 193.903 366.412 195.598L377.837 252.413C378.176 254.108 379.939 255.227 381.769 254.913Z" fill="url(#paint26_linear_661_1050)"/>
<path d="M425.178 189.961L452.939 185.173C454.769 184.859 455.978 183.226 455.638 181.531L453.899 172.884C453.56 171.189 451.797 170.07 449.967 170.384L422.206 175.172C420.376 175.486 419.167 177.119 419.506 178.814L421.246 187.461C421.585 189.155 423.348 190.275 425.178 189.961Z" fill="url(#paint27_linear_661_1050)"/>
<path d="M377.617 252.74C378.09 254.293 379.767 255.258 381.482 254.962L473.27 239.133C474.975 238.836 476.165 237.394 476.012 235.788L471.21 184.858C471.129 183.982 470.646 183.177 469.891 182.641C469.132 182.11 468.167 181.898 467.235 182.057L365.261 199.643C364.329 199.802 363.512 200.32 363.01 201.068C362.508 201.816 362.37 202.718 362.628 203.564L377.617 252.74Z" fill="#FAE0B2"/>
<path d="M89.5253 182.226L105.14 186.178L108.504 168.65L103.396 167.809L101.026 180.155L90.8919 177.589L89.5253 182.226Z" fill="url(#paint28_linear_661_1050)"/>
<path d="M438.537 296.043C434.629 295.746 428.623 297.344 425.933 299.034C425.526 299.384 422.43 300.525 419.215 305.464L419.941 305.928C423.338 302.636 425.622 301.897 428.341 301.145C432.823 300.078 437.343 300.875 437.715 301.061L438.537 296.043Z" fill="#2D3A6E"/>
<path d="M419.573 305.694C419.573 305.694 443.402 309.376 441.18 326.616C438.958 343.856 413.821 357.265 391.387 346.604C361.204 332.262 373.125 295.795 394.608 292.976C416.085 290.157 419.573 305.694 419.573 305.694Z" fill="url(#paint29_linear_661_1050)"/>
<path d="M409.462 298.105C409.462 298.105 403.245 292.193 389.623 297.569C376.001 302.946 375.016 328.023 387.162 326.567C399.318 325.111 419.176 301.72 409.462 298.105Z" fill="#F48C7F"/>
<path d="M98.7888 288.086L116.726 246.41C117.629 244.312 116.525 241.936 114.26 241.1L49.7178 217.275C47.453 216.438 44.8871 217.46 43.9841 219.558L26.0471 261.234C25.144 263.331 26.2477 265.708 28.5125 266.544L93.0551 290.369C95.3199 291.206 97.8858 290.183 98.7888 288.086Z" fill="#FAE0B2"/>
<path d="M37.9009 263.987L54.0174 226.537C54.2754 225.935 53.9601 225.253 53.3103 225.014C52.6604 224.775 51.9245 225.067 51.6665 225.669L35.55 263.119C35.292 263.721 35.6073 264.403 36.2571 264.641C36.9069 264.88 37.6429 264.588 37.9009 263.987Z" fill="url(#paint30_linear_661_1050)"/>
<path d="M45.5789 259.053L58.8143 228.302C59.0723 227.7 58.7569 227.019 58.107 226.78C57.4572 226.541 56.7214 226.833 56.4634 227.435L43.2281 258.185C42.9701 258.787 43.2854 259.468 43.9352 259.707C44.585 259.951 45.3208 259.659 45.5789 259.053Z" fill="url(#paint31_linear_661_1050)"/>
<path d="M47.4907 267.527L63.6073 230.077C63.8653 229.475 63.5499 228.793 62.9001 228.554C62.2503 228.315 61.5145 228.607 61.2565 229.209L45.1399 266.659C44.8819 267.261 45.1973 267.943 45.8471 268.182C46.4969 268.42 47.2327 268.128 47.4907 267.527Z" fill="url(#paint32_linear_661_1050)"/>
<path d="M55.9639 260.752L68.4061 231.847C68.6641 231.245 68.3488 230.564 67.6989 230.325C67.0491 230.086 66.3133 230.378 66.0553 230.979L53.6131 259.885C53.3551 260.486 53.6704 261.168 54.3202 261.407C54.9701 261.646 55.7059 261.354 55.9639 260.752Z" fill="url(#paint33_linear_661_1050)"/>
<path d="M38.3349 222.541L38.6598 221.788C38.7792 221.51 39.1042 221.368 39.3861 221.474L45.5116 223.736C45.7935 223.837 45.9273 224.147 45.8078 224.426L45.4829 225.178C45.3635 225.457 45.0386 225.598 44.7566 225.492L38.6311 223.231C38.3492 223.129 38.2155 222.82 38.3349 222.541Z" fill="#2D3A6E"/>
<path d="M36.9462 225.767L37.2711 225.014C37.3906 224.735 37.7155 224.594 37.9974 224.7L44.1229 226.961C44.4049 227.063 44.5386 227.373 44.4191 227.652L44.0943 228.404C43.9748 228.683 43.6499 228.824 43.368 228.718L37.2424 226.457C36.9605 226.355 36.8268 226.045 36.9462 225.767Z" fill="#2D3A6E"/>
<path d="M35.5594 228.992L35.8843 228.24C36.0037 227.961 36.3287 227.82 36.6106 227.926L42.7361 230.187C43.018 230.289 43.1519 230.599 43.0324 230.878L42.7074 231.63C42.588 231.909 42.2631 232.05 41.9812 231.944L35.8557 229.683C35.569 229.581 35.44 229.271 35.5594 228.992Z" fill="#2D3A6E"/>
<path d="M34.1669 232.219L34.4918 231.466C34.6113 231.188 34.9362 231.046 35.2181 231.152L41.3437 233.414C41.6256 233.52 41.7593 233.825 41.6398 234.104L41.315 234.861C41.1955 235.139 40.8706 235.281 40.5887 235.175L34.4631 232.913C34.1812 232.807 34.0475 232.498 34.1669 232.219Z" fill="#2D3A6E"/>
<path d="M32.7821 235.445L33.1071 234.692C33.2265 234.413 33.5514 234.272 33.8333 234.378L39.9588 236.639C40.2407 236.746 40.3745 237.055 40.2551 237.33L39.9302 238.082C39.8108 238.361 39.4858 238.502 39.2039 238.396L33.0784 236.135C32.7917 236.033 32.6626 235.723 32.7821 235.445Z" fill="#2D3A6E"/>
<path d="M31.3934 238.67L31.7183 237.918C31.8377 237.639 32.1627 237.498 32.4446 237.604L38.5701 239.865C38.852 239.971 38.9859 240.277 38.8664 240.556L38.5414 241.308C38.422 241.587 38.097 241.728 37.8151 241.622L31.6897 239.361C31.4078 239.259 31.2739 238.949 31.3934 238.67Z" fill="#2D3A6E"/>
<path d="M30.0068 241.896L30.3317 241.144C30.4511 240.865 30.776 240.724 31.0579 240.83L37.1835 243.091C37.4654 243.197 37.5991 243.503 37.4797 243.781L37.1548 244.534C37.0353 244.812 36.7104 244.954 36.4285 244.848L30.303 242.587C30.0163 242.485 29.8873 242.175 30.0068 241.896Z" fill="#2D3A6E"/>
<path d="M28.6161 245.123L28.9411 244.37C29.0605 244.091 29.3854 243.95 29.6673 244.056L35.7928 246.317C36.0747 246.424 36.2085 246.729 36.0891 247.008L35.7641 247.76C35.6446 248.039 35.3198 248.18 35.0379 248.074L28.9124 245.813C28.6304 245.711 28.4966 245.401 28.6161 245.123Z" fill="#2D3A6E"/>
<path d="M27.2314 248.348L27.5563 247.596C27.6757 247.317 28.0006 247.175 28.2825 247.282L34.4081 249.543C34.69 249.649 34.8237 249.954 34.7043 250.233L34.3794 250.986C34.26 251.264 33.935 251.406 33.6531 251.3L27.5276 249.038C27.2409 248.937 27.1119 248.627 27.2314 248.348Z" fill="#2D3A6E"/>
<path d="M25.8427 251.574L26.1676 250.822C26.2871 250.543 26.612 250.401 26.8939 250.507L33.0193 252.769C33.3012 252.875 33.4351 253.18 33.3156 253.459L32.9908 254.211C32.8713 254.49 32.5464 254.632 32.2645 254.526L26.1389 252.264C25.857 252.162 25.7233 251.853 25.8427 251.574Z" fill="#2D3A6E"/>
<path d="M24.4559 254.8L24.7808 254.043C24.9002 253.765 25.2252 253.623 25.5071 253.729L31.6326 255.99C31.9145 256.097 32.0484 256.402 31.9289 256.681L31.6039 257.433C31.4845 257.712 31.1595 257.853 30.8776 257.747L24.7522 255.486C24.4655 255.389 24.3364 255.079 24.4559 254.8Z" fill="#2D3A6E"/>
<path d="M23.0634 258.026L23.3883 257.274C23.5078 256.995 23.8327 256.853 24.1146 256.959L30.2401 259.221C30.522 259.322 30.6558 259.632 30.5363 259.911L30.2114 260.663C30.092 260.942 29.7671 261.084 29.4852 260.977L23.3596 258.716C23.0777 258.61 22.944 258.305 23.0634 258.026Z" fill="#2D3A6E"/>
<path d="M6.14153 254.707L31.757 288.489C31.8143 288.564 31.8573 288.648 31.8908 288.737L34.4996 296.158C34.8054 297.021 33.7255 297.733 32.9419 297.189L26.0854 292.401C25.9994 292.343 25.9277 292.272 25.8655 292.193L0.183247 258.323C-0.146442 257.889 -0.0173912 257.292 0.465195 257.004L4.77505 254.455C5.23375 254.19 5.83095 254.3 6.14153 254.707Z" fill="#A87003"/>
<path d="M25.8989 292.228L25.961 292.312L32.5786 296.932L34.3848 295.813L31.9097 288.777C29.9698 289.759 27.6476 290.768 25.8989 292.228Z" fill="url(#paint34_linear_661_1050)"/>
<path d="M137.12 67.0564C133.431 69.7823 127.019 78.5529 118.834 84.7083C114.046 88.3104 110.357 87.3944 104.246 88.0758C75.2527 91.3195 83.1079 96.8111 79.6294 97.351C80.6185 99.4573 89.6491 117.238 91.3358 120.835C92.8935 124.15 95.5835 125.637 99.4825 125.136C105.479 124.371 111.528 123.796 117.434 122.614C132.566 119.574 140.985 112.565 151.831 104.051C154.708 101.794 155.415 98.975 153.924 95.7845C146.986 80.9248 137.87 68.4238 137.12 67.0564Z" fill="url(#paint35_linear_661_1050)"/>
<path d="M76.4913 118.747C76.6203 124.597 76.1378 125.774 78.8518 124.885C80.4859 124.349 82.0674 123.654 83.6107 122.915C84.7001 122.393 84.7432 121.707 83.8592 120.884C82.5739 119.685 81.2503 118.521 79.9602 117.357C80.9015 115.061 79.8217 112.392 77.5043 111.136C77.0313 110.879 77.3753 111.423 73.3378 102.816C86.6926 101.29 96.1103 100.268 112.404 98.4134C116.761 97.9178 120.631 96.3513 124 93.7405C135.635 84.722 147.269 75.708 158.899 66.6807C160.476 65.4549 160.677 63.6627 159.425 62.2821C158.469 61.2245 157.198 61.1758 155.832 61.3351C152.114 61.7688 115.662 65.9594 111.959 66.3621C107.095 66.8887 102.814 68.5835 99.0536 71.4997C87.6244 80.3632 76.1617 89.2003 64.7181 98.0461C63.1461 99.2586 62.7209 100.374 63.2751 101.723C63.8819 103.206 65.2055 103.914 67.2075 103.516C68.6505 103.228 69.2908 103.631 69.7877 104.87C72.0334 110.468 73.6006 111.707 73.0559 113.751C72.6354 115.331 74.6613 118.061 76.4913 118.747Z" fill="#86B1F2"/>
<path d="M111.938 384.738L105.296 390.605C89.5807 404.487 76.7659 420.931 67.4964 439.114L66.4786 441.11C66.4786 441.11 49.0815 442.534 46.6543 427.967C61.9155 412.005 74.4819 394.969 84.8504 376.016L87.9944 369.205L111.938 384.738Z" fill="url(#paint36_linear_661_1050)"/>
<path d="M88.0087 369.188C87.1534 370.321 91.8217 374.701 98.4298 378.972C105.038 383.242 111.12 385.835 111.976 384.702C112.831 383.569 108.134 379.135 101.521 374.865C94.9083 370.595 88.8592 368.05 88.0087 369.188Z" fill="#86B1F2"/>
<path d="M87.9805 369.227L87.9996 369.205C87.9996 369.205 101.24 379.587 106.701 380.644L105.014 382.768C103.022 381.768 100.757 380.472 98.4255 378.967C91.8938 374.75 87.259 370.422 87.9805 369.227Z" fill="#2D3A6E"/>
<path d="M70.2885 399.367C70.2646 401.155 71.0053 408.882 84.8809 412.103C83.9682 413.254 83.07 414.417 82.1908 415.59C73.4087 413.187 69.4572 409.01 67.6845 405.828C67.4026 405.324 67.0633 404.651 66.8387 404.129C68.0094 402.554 69.1609 400.969 70.2885 399.367Z" fill="#A87003"/>
<path d="M83.6331 409.819L104.055 409.142L99.2144 412.948L102.105 417.807L82.7778 413.245L83.6331 409.819Z" fill="#A87003"/>
<path d="M81.7761 414.218L89.0293 425.923L83.9262 424.126L81.9625 427.843L78.5508 415.533L81.7761 414.218Z" fill="#A87003"/>
<path d="M79.0041 417.391C82.5877 417.626 85.7078 415.041 85.9706 411.621C86.2334 408.2 83.5386 405.235 79.9502 405.001C76.3667 404.766 73.2465 407.35 72.9837 410.771C72.7209 414.192 75.4157 417.157 79.0041 417.391Z" fill="url(#paint37_linear_661_1050)"/>
<path d="M447.094 95.9404L442.651 104.087L432.607 103.786L428.321 113.238L417.733 109.866L412.377 120.358L402.214 118.367L395.281 127.682L399.084 130.111L404.273 123.146L415 125.253L420.146 115.163L430.911 118.593L435.641 108.163L445.446 108.455L449.569 100.905L455.962 102.348L457.057 98.184L447.094 95.9404Z" fill="url(#paint38_linear_661_1050)"/>
<defs>
<linearGradient id="paint0_linear_661_1050" x1="271.91" y1="420.246" x2="316.66" y2="420.246" gradientUnits="userSpaceOnUse">
<stop stop-color="#09005D"/>
<stop offset="1" stop-color="#1A0F91"/>
</linearGradient>
<linearGradient id="paint1_linear_661_1050" x1="286.732" y1="393.977" x2="288.448" y2="428.247" gradientUnits="userSpaceOnUse">
<stop stop-color="#FF928E"/>
<stop offset="1" stop-color="#FEB3B1"/>
</linearGradient>
<linearGradient id="paint2_linear_661_1050" x1="206.34" y1="420.56" x2="159.688" y2="420.56" gradientUnits="userSpaceOnUse">
<stop stop-color="#09005D"/>
<stop offset="1" stop-color="#1A0F91"/>
</linearGradient>
<linearGradient id="paint3_linear_661_1050" x1="193.058" y1="398.315" x2="194.663" y2="430.372" gradientUnits="userSpaceOnUse">
<stop stop-color="#FF928E"/>
<stop offset="1" stop-color="#FEB3B1"/>
</linearGradient>
<linearGradient id="paint4_linear_661_1050" x1="244.409" y1="397.301" x2="242.502" y2="260.569" gradientUnits="userSpaceOnUse">
<stop stop-color="#09005D"/>
<stop offset="1" stop-color="#1A0F91"/>
</linearGradient>
<linearGradient id="paint5_linear_661_1050" x1="223.552" y1="185.543" x2="212.211" y2="226.09" gradientUnits="userSpaceOnUse">
<stop stop-color="#FDDA94"/>
<stop offset="1" stop-color="#FFFDF9"/>
</linearGradient>
<linearGradient id="paint6_linear_661_1050" x1="162.623" y1="155.646" x2="156.58" y2="177.252" gradientUnits="userSpaceOnUse">
<stop stop-color="#FDDA94"/>
<stop offset="1" stop-color="#FFFDF9"/>
</linearGradient>
<linearGradient id="paint7_linear_661_1050" x1="262.235" y1="170.183" x2="254.889" y2="196.45" gradientUnits="userSpaceOnUse">
<stop stop-color="#FDDA94"/>
<stop offset="1" stop-color="#FFFDF9"/>
</linearGradient>
<linearGradient id="paint8_linear_661_1050" x1="267.825" y1="108.658" x2="246.974" y2="183.207" gradientUnits="userSpaceOnUse">
<stop stop-color="#FDDA94"/>
<stop offset="1" stop-color="#FFFDF9"/>
</linearGradient>
<linearGradient id="paint9_linear_661_1050" x1="285.323" y1="160.003" x2="280.506" y2="177.225" gradientUnits="userSpaceOnUse">
<stop stop-color="#FDDA94"/>
<stop offset="1" stop-color="#FFFDF9"/>
</linearGradient>
<linearGradient id="paint10_linear_661_1050" x1="234.316" y1="164.667" x2="234.029" y2="175.821" gradientUnits="userSpaceOnUse">
<stop stop-color="#FFC444"/>
<stop offset="0.9964" stop-color="#F36F56"/>
</linearGradient>
<linearGradient id="paint11_linear_661_1050" x1="257.966" y1="198.782" x2="241.997" y2="255.878" gradientUnits="userSpaceOnUse">
<stop stop-color="#FDDA94"/>
<stop offset="1" stop-color="#FFFDF9"/>
</linearGradient>
<linearGradient id="paint12_linear_661_1050" x1="179.73" y1="218.202" x2="174.688" y2="236.228" gradientUnits="userSpaceOnUse">
<stop stop-color="#FDDA94"/>
<stop offset="1" stop-color="#FFFDF9"/>
</linearGradient>
<linearGradient id="paint13_linear_661_1050" x1="215.186" y1="231.639" x2="207.938" y2="250.592" gradientUnits="userSpaceOnUse">
<stop stop-color="#FDDA94"/>
<stop offset="1" stop-color="#FFFDF9"/>
</linearGradient>
<linearGradient id="paint14_linear_661_1050" x1="187.852" y1="177.793" x2="177.247" y2="215.712" gradientUnits="userSpaceOnUse">
<stop stop-color="#FDDA94"/>
<stop offset="1" stop-color="#FFFDF9"/>
</linearGradient>
<linearGradient id="paint15_linear_661_1050" x1="379.313" y1="4.05005" x2="379.313" y2="104.726" gradientUnits="userSpaceOnUse">
<stop stop-color="#FEE9C1"/>
<stop offset="1" stop-color="#FDDA94"/>
</linearGradient>
<linearGradient id="paint16_linear_661_1050" x1="290.166" y1="47.3977" x2="290.166" y2="66.9967" gradientUnits="userSpaceOnUse">
<stop stop-color="#BAE8FF"/>
<stop offset="1" stop-color="#5AC7FF"/>
</linearGradient>
<linearGradient id="paint17_linear_661_1050" x1="71.408" y1="323.525" x2="71.408" y2="343.124" gradientUnits="userSpaceOnUse">
<stop stop-color="#BAE8FF"/>
<stop offset="1" stop-color="#5AC7FF"/>
</linearGradient>
<linearGradient id="paint18_linear_661_1050" x1="417.944" y1="375.352" x2="417.944" y2="540.428" gradientUnits="userSpaceOnUse">
<stop stop-color="#BAE8FF"/>
<stop offset="1" stop-color="#5AC7FF"/>
</linearGradient>
<linearGradient id="paint19_linear_661_1050" x1="417.329" y1="375.356" x2="417.329" y2="540.459" gradientUnits="userSpaceOnUse">
<stop stop-color="#1AB2FF"/>
<stop offset="1" stop-color="#BAE8FF"/>
</linearGradient>
<linearGradient id="paint20_linear_661_1050" x1="406.614" y1="474.696" x2="406.614" y2="553.589" gradientUnits="userSpaceOnUse">
<stop stop-color="#0095E0"/>
<stop offset="1" stop-color="#00669A"/>
</linearGradient>
<linearGradient id="paint21_linear_661_1050" x1="206.132" y1="26.2708" x2="206.132" y2="83.5192" gradientUnits="userSpaceOnUse">
<stop stop-color="#FDDA94"/>
<stop stop-color="#FDDA94"/>
<stop offset="0.979167" stop-color="#FCC455"/>
<stop offset="1" stop-color="#FDDA94" stop-opacity="0"/>
</linearGradient>
<linearGradient id="paint22_linear_661_1050" x1="191.556" y1="470.662" x2="191.556" y2="502.169" gradientUnits="userSpaceOnUse">
<stop stop-color="#FDDA94"/>
<stop stop-color="#FDDA94"/>
<stop offset="0.979167" stop-color="#FCC455"/>
<stop offset="1" stop-color="#FDDA94" stop-opacity="0"/>
</linearGradient>
<linearGradient id="paint23_linear_661_1050" x1="160.351" y1="532.034" x2="160.351" y2="469.597" gradientUnits="userSpaceOnUse">
<stop stop-color="#FFC444"/>
<stop offset="0.9964" stop-color="#F36F56"/>
</linearGradient>
<linearGradient id="paint24_linear_661_1050" x1="248.105" y1="431.473" x2="248.105" y2="467.502" gradientUnits="userSpaceOnUse">
<stop stop-color="#0095E0"/>
<stop offset="1" stop-color="#00669A"/>
</linearGradient>
<linearGradient id="paint25_linear_661_1050" x1="184.367" y1="441.182" x2="184.367" y2="484.437" gradientUnits="userSpaceOnUse">
<stop stop-color="#1AB2FF"/>
<stop offset="1" stop-color="#BAE8FF"/>
</linearGradient>
<linearGradient id="paint26_linear_661_1050" x1="421.038" y1="176.177" x2="421.038" y2="254.966" gradientUnits="userSpaceOnUse">
<stop stop-color="#FDDA94"/>
<stop stop-color="#FDDA94"/>
<stop offset="0.979167" stop-color="#FCC455"/>
<stop offset="1" stop-color="#FDDA94" stop-opacity="0"/>
</linearGradient>
<linearGradient id="paint27_linear_661_1050" x1="437.572" y1="170.331" x2="437.572" y2="190.014" gradientUnits="userSpaceOnUse">
<stop stop-color="#FDDA94"/>
<stop stop-color="#FDDA94"/>
<stop offset="0.979167" stop-color="#FCC455"/>
<stop offset="1" stop-color="#FDDA94" stop-opacity="0"/>
</linearGradient>
<linearGradient id="paint28_linear_661_1050" x1="99.0146" y1="167.809" x2="99.0146" y2="186.178" gradientUnits="userSpaceOnUse">
<stop stop-color="#BAE8FF"/>
<stop offset="1" stop-color="#5AC7FF"/>
</linearGradient>
<linearGradient id="paint29_linear_661_1050" x1="407.285" y1="363.228" x2="407.285" y2="281.457" gradientUnits="userSpaceOnUse">
<stop stop-color="#FFC444"/>
<stop offset="0.9964" stop-color="#F36F56"/>
</linearGradient>
<linearGradient id="paint30_linear_661_1050" x1="44.7837" y1="224.931" x2="44.7837" y2="264.725" gradientUnits="userSpaceOnUse">
<stop stop-color="#0095E0"/>
<stop offset="1" stop-color="#00669A"/>
</linearGradient>
<linearGradient id="paint31_linear_661_1050" x1="51.0212" y1="226.697" x2="51.0212" y2="259.793" gradientUnits="userSpaceOnUse">
<stop stop-color="#0095E0"/>
<stop offset="1" stop-color="#00669A"/>
</linearGradient>
<linearGradient id="paint32_linear_661_1050" x1="54.3736" y1="228.471" x2="54.3736" y2="268.265" gradientUnits="userSpaceOnUse">
<stop stop-color="#0095E0"/>
<stop offset="1" stop-color="#00669A"/>
</linearGradient>
<linearGradient id="paint33_linear_661_1050" x1="61.0096" y1="230.241" x2="61.0096" y2="261.49" gradientUnits="userSpaceOnUse">
<stop stop-color="#0095E0"/>
<stop offset="1" stop-color="#00669A"/>
</linearGradient>
<linearGradient id="paint34_linear_661_1050" x1="30.1418" y1="288.777" x2="30.1418" y2="296.932" gradientUnits="userSpaceOnUse">
<stop stop-color="#FDDA94"/>
<stop stop-color="#FDDA94"/>
<stop offset="0.979167" stop-color="#FCC455"/>
<stop offset="1" stop-color="#FDDA94" stop-opacity="0"/>
</linearGradient>
<linearGradient id="paint35_linear_661_1050" x1="117.157" y1="67.0564" x2="117.157" y2="125.231" gradientUnits="userSpaceOnUse">
<stop stop-color="#0095E0"/>
<stop offset="1" stop-color="#00669A"/>
</linearGradient>
<linearGradient id="paint36_linear_661_1050" x1="79.2959" y1="369.205" x2="79.2959" y2="441.148" gradientUnits="userSpaceOnUse">
<stop stop-color="#0095E0"/>
<stop offset="1" stop-color="#00669A"/>
</linearGradient>
<linearGradient id="paint37_linear_661_1050" x1="79.4795" y1="420.163" x2="79.4795" y2="402.583" gradientUnits="userSpaceOnUse">
<stop stop-color="#FFC444"/>
<stop offset="0.9964" stop-color="#F36F56"/>
</linearGradient>
<linearGradient id="paint38_linear_661_1050" x1="426.169" y1="95.9404" x2="426.169" y2="130.111" gradientUnits="userSpaceOnUse">
<stop stop-color="#FDDA94"/>
<stop stop-color="#FDDA94"/>
<stop offset="0.979167" stop-color="#FCC455"/>
<stop offset="1" stop-color="#FDDA94" stop-opacity="0"/>
</linearGradient>
</defs>
</svg>
