<svg width="149" height="140" viewBox="0 0 149 140" fill="none" xmlns="http://www.w3.org/2000/svg">
<g opacity="0.97">
<path d="M75.1451 60.8168L75.1431 60.8167C74.8154 60.7951 74.4952 60.7089 74.201 60.5629C73.9068 60.417 73.6444 60.2142 73.429 59.9664C73.2135 59.7185 73.0492 59.4305 72.9457 59.1188C72.8421 58.8072 72.8012 58.4781 72.8255 58.1506L72.8255 58.1506L72.8256 58.1485C72.8601 57.6553 73.0401 57.1834 73.3428 56.7924C73.6455 56.4014 74.0574 56.109 74.5263 55.9521C74.9952 55.7952 75.5001 55.7809 75.9771 55.911C76.4541 56.041 76.8819 56.3096 77.2063 56.6828C77.5307 57.056 77.7371 57.5169 77.7995 58.0074C77.8619 58.4979 77.7775 58.9959 77.5569 59.4384C77.3362 59.8809 76.9893 60.2481 76.5601 60.4934C76.1308 60.7388 75.6384 60.8513 75.1451 60.8168Z" stroke="#FBAE17"/>
<path d="M98.0765 101.267L80.9295 116.162C79.5558 113.892 78.5684 110.826 77.868 107.461C77.1559 104.041 76.7475 100.347 76.5202 96.9365C76.2929 93.5275 76.2473 90.4102 76.2585 88.1448C76.2641 87.0124 76.2839 86.0936 76.3023 85.4585C76.3111 85.155 76.3196 84.9163 76.326 84.7501C76.4519 84.6833 76.6273 84.5953 76.8441 84.4993C77.3254 84.2861 78.0041 84.0359 78.7948 83.8853C80.3727 83.5848 82.362 83.684 84.1569 85.2299L84.7267 85.7206L84.9588 85.0053C86.2354 81.0716 85.9896 76.8039 84.2733 73.0448C84.7336 68.0221 84.2312 62.6917 82.8992 58.0501C81.5588 53.3793 79.3588 49.3407 76.3858 47.0459L76.1217 46.842L75.8321 47.0077C72.5814 48.8671 69.838 52.5594 67.8546 56.9975C65.8836 61.4079 64.6352 66.6161 64.3918 71.6545C62.1691 75.1382 61.3317 79.3302 62.0484 83.4033L62.1787 84.1439L62.8112 83.7372C64.8039 82.4562 66.7876 82.6349 68.3083 83.152C69.0703 83.4112 69.7076 83.7534 70.1545 84.0315C70.3559 84.1568 70.5173 84.2683 70.6327 84.352C70.616 84.5174 70.5911 84.755 70.5576 85.0568C70.4874 85.6883 70.3791 86.6009 70.2271 87.7231C69.9229 89.9679 69.4439 93.0485 68.7444 96.3928C68.0447 99.7384 67.1262 103.339 65.945 106.627C64.7831 109.862 63.3787 112.76 61.7024 114.817L46.7957 97.6815C46.7954 97.6811 46.7951 97.6808 46.7948 97.6804C40.5248 90.3969 37.3942 80.9269 38.0876 71.3415C38.7809 61.7555 43.2423 52.8343 50.4958 46.5289C57.7493 40.2236 67.2046 37.0472 76.7937 37.6947C86.3822 38.3421 95.3242 42.7601 101.664 49.9824C107.959 57.272 111.114 66.7554 110.443 76.3632C109.771 85.9713 105.326 94.9235 98.0772 101.266C98.077 101.266 98.0768 101.267 98.0765 101.267ZM97.2057 75.9999L97.5752 77.588L98.1595 76.0658C98.4739 75.2469 98.7272 74.5494 98.9421 73.9554L98.9775 73.8576C99.1772 73.3054 99.3415 72.8513 99.4932 72.4684C99.8182 71.6486 100.056 71.2387 100.367 70.9679C100.678 70.6971 101.117 70.5174 101.974 70.308C102.375 70.2099 102.849 70.1093 103.426 69.9868L103.523 69.9662C104.141 69.8349 104.867 69.6799 105.722 69.481L107.31 69.1116L105.788 68.5272C104.969 68.2128 104.272 67.9596 103.678 67.7447L103.581 67.7098C103.028 67.5098 102.574 67.3454 102.191 67.1936C101.371 66.8686 100.962 66.6305 100.692 66.32C100.422 66.0095 100.243 65.571 100.035 64.714C99.9384 64.3137 99.8389 63.841 99.7179 63.2659L99.6966 63.1651C99.5665 62.5469 99.4127 61.821 99.2154 60.9663L98.8486 59.3776L98.2617 60.8988C97.9458 61.7176 97.6913 62.415 97.4752 63.0089L97.4399 63.106C97.239 63.6585 97.0738 64.1126 96.9213 64.4955C96.5948 65.3152 96.356 65.7248 96.0452 65.995C95.7345 66.2651 95.2966 66.4439 94.4412 66.6517C94.0415 66.7489 93.5695 66.8484 92.9953 66.9696L92.8951 66.9908C92.2781 67.121 91.5535 67.2748 90.7002 67.4723L89.1146 67.8392L90.6328 68.4258C91.4501 68.7416 92.1461 68.9961 92.7389 69.212L92.8318 69.2459C93.385 69.4474 93.8395 69.613 94.2226 69.7659C95.0405 70.0923 95.4495 70.3314 95.7198 70.6429C95.9903 70.9547 96.1697 71.3941 96.379 72.2514C96.4767 72.6519 96.577 73.1247 96.6991 73.6997L96.7206 73.8008C96.8519 74.4191 97.0069 75.1451 97.2057 75.9999Z" stroke="#FBAE17"/>
<path d="M74.8423 65.0221L74.8443 65.0222C75.4968 65.0758 76.1019 65.3843 76.5284 65.881C76.955 66.3777 77.1685 67.0225 77.1228 67.6756L77.1227 67.6776C77.0899 68.1731 76.9104 68.6476 76.6069 69.0407C76.3035 69.4337 75.8898 69.7275 75.4188 69.8846C74.9477 70.0416 74.4405 70.0548 73.9619 69.9225C73.4833 69.7901 73.0549 69.5183 72.7314 69.1416C72.4079 68.7648 72.2039 68.3003 72.1455 67.8072C72.087 67.3141 72.1767 66.8147 72.4032 66.3728C72.6296 65.9309 72.9826 65.5664 73.417 65.3258C73.8514 65.0853 74.3476 64.9795 74.8423 65.0221Z" stroke="#FBAE17"/>
<path d="M79.4304 30.9512C78.8099 31.4906 78.0006 31.7614 77.1804 31.7041C76.3602 31.6467 75.5964 31.2659 75.057 30.6454C74.5177 30.0249 74.2468 29.2155 74.3042 28.3954L75.7163 8.2007C75.7737 7.38053 76.1545 6.61673 76.775 6.07734C77.3955 5.53795 78.2049 5.26714 79.025 5.32449C79.8452 5.38184 80.609 5.76266 81.1484 6.38316C81.6878 7.00366 81.9586 7.81302 81.9012 8.63319L80.4891 28.8279C80.4317 29.648 80.0509 30.4118 79.4304 30.9512Z" stroke="#FBAE17"/>
<path d="M96.8523 113.206L96.8565 113.216L96.8611 113.225L105.752 131.446L105.756 131.455L105.761 131.465C105.961 131.832 106.083 132.237 106.122 132.653C106.161 133.069 106.115 133.489 105.988 133.887C105.86 134.285 105.654 134.654 105.38 134.97C105.106 135.286 104.772 135.543 104.396 135.727C104.02 135.91 103.611 136.016 103.194 136.037C102.776 136.059 102.359 135.995 101.966 135.851L101.794 136.32L101.966 135.851C101.574 135.707 101.215 135.485 100.91 135.198C100.606 134.911 100.363 134.566 100.195 134.183L100.191 134.174L100.187 134.164L91.2959 115.944L91.2912 115.934L91.2861 115.925C91.087 115.557 90.9643 115.153 90.9254 114.737C90.8865 114.32 90.9322 113.901 91.0597 113.502C91.1873 113.104 91.394 112.736 91.6676 112.42C91.9412 112.104 92.2759 111.846 92.6515 111.663C93.0272 111.479 93.4361 111.374 93.8537 111.352C94.2712 111.331 94.6888 111.394 95.0812 111.538C95.4737 111.683 95.8329 111.905 96.1372 112.191L96.48 111.827L96.1372 112.191C96.4416 112.478 96.6848 112.823 96.8523 113.206Z" stroke="#FBAE17"/>
<path d="M50.6334 108.819L50.6321 108.818C49.9508 108.361 49.1162 108.193 48.3111 108.35C47.506 108.507 46.7962 108.977 46.3369 109.657L50.6334 108.819ZM50.6334 108.819C50.9755 109.047 51.2688 109.34 51.4964 109.682C51.724 110.024 51.8813 110.408 51.9591 110.812C52.0369 111.216 52.0337 111.631 51.9497 112.033C51.8656 112.435 51.7025 112.817 51.4696 113.155L51.4674 113.159L40.13 129.929L40.124 129.937L40.1184 129.946C39.8993 130.303 39.6103 130.611 39.269 130.852C38.9277 131.094 38.5411 131.263 38.1324 131.352L38.2379 131.84L38.1324 131.352C37.7237 131.44 37.3014 131.444 36.8909 131.365C36.4804 131.286 36.0902 131.125 35.7437 130.891C35.3972 130.657 35.1016 130.355 34.8747 130.004C34.6478 129.653 34.4943 129.259 34.4234 128.847C34.3525 128.435 34.3657 128.013 34.4621 127.606C34.5586 127.199 34.7364 126.816 34.9847 126.48L34.991 126.471L34.997 126.463L46.3367 109.657L50.6334 108.819Z" stroke="#FBAE17"/>
<path d="M38.0529 101.218L38.0533 101.218C38.6736 100.679 39.4824 100.409 40.3019 100.466C41.1201 100.523 41.8822 100.903 42.4214 101.521C42.9399 102.136 43.1984 102.93 43.1423 103.733C43.0861 104.537 42.7196 105.286 42.1203 105.824L26.7693 119.169C26.1439 119.624 25.3703 119.83 24.6007 119.744C23.8246 119.658 23.1098 119.282 22.5989 118.692C22.0881 118.101 21.8189 117.34 21.8451 116.559C21.8711 115.785 22.186 115.049 22.7274 114.495L38.0529 101.218Z" stroke="#FBAE17"/>
<path d="M34.5261 90.7611C35.3012 91.0288 35.9386 91.5927 36.2989 92.3294C36.6562 93.0674 36.7066 93.917 36.4389 94.6922C36.1711 95.4675 35.6068 96.1052 34.8698 96.4653L16.6593 105.351C15.9289 105.668 15.1047 105.691 14.3574 105.416C13.6069 105.141 12.992 104.586 12.6411 103.867C12.2903 103.149 12.2306 102.322 12.4745 101.561C12.7174 100.803 13.2426 100.167 13.9411 99.7858L32.1625 90.9014C32.1628 90.9013 32.163 90.9012 32.1632 90.9011C32.9013 90.5438 33.751 90.4934 34.5261 90.7611Z" stroke="#FBAE17"/>
<path d="M29.2104 79.4374L29.2105 79.4374C30.0167 79.2818 30.8517 79.4523 31.5323 79.9116C32.2123 80.3704 32.6826 81.08 32.8403 81.8849C32.9888 82.6885 32.814 83.5182 32.3539 84.1936C31.8933 84.8696 31.1843 85.3362 30.3812 85.4916L30.3809 85.4917L10.4788 89.3568L10.4677 89.359L10.4568 89.3616C10.0496 89.4599 9.62671 89.4747 9.21366 89.405C8.80061 89.3354 8.40596 89.1827 8.05354 88.9563C7.70112 88.7299 7.39825 88.4344 7.1632 88.0877C6.92815 87.741 6.76581 87.3502 6.68598 86.939C6.60615 86.5278 6.61048 86.1047 6.69871 85.6952C6.78695 85.2857 6.95726 84.8984 7.19936 84.5565C7.44145 84.2147 7.75032 83.9255 8.1073 83.7063L7.84571 83.2802L8.1073 83.7063C8.46428 83.4872 8.86197 83.3426 9.27636 83.2815L9.28723 83.2798L9.29802 83.2778L29.2104 79.4374Z" stroke="#FBAE17"/>
<path d="M31.079 73.0047C30.4585 73.5441 29.6492 73.8149 28.829 73.7575L8.59841 72.3429C7.77824 72.2855 7.01445 71.9047 6.47506 71.2842C5.93566 70.6637 5.66486 69.8544 5.72221 69.0342C5.77956 68.214 6.16037 67.4502 6.78087 66.9108C7.40138 66.3714 8.21073 66.1006 9.0309 66.158L29.2615 67.5726C30.0817 67.63 30.8455 68.0108 31.3849 68.6313C31.9242 69.2518 32.1951 70.0612 32.1377 70.8813C32.0804 71.7015 31.6995 72.4653 31.079 73.0047Z" stroke="#FBAE17"/>
<path d="M11.249 55.4035L11.2283 55.3964L11.2072 55.3911C10.7911 55.2871 10.4011 55.0978 10.0619 54.8353C9.72271 54.5728 9.44168 54.2428 9.23659 53.8661C9.03149 53.4894 8.90679 53.0743 8.87038 52.6469C8.83397 52.2196 8.88663 51.7893 9.02504 51.3833C9.16345 50.9774 9.38459 50.6046 9.67448 50.2885C9.96437 49.9724 10.3167 49.7199 10.7092 49.5469C11.1017 49.374 11.5258 49.2844 11.9547 49.2837C12.3836 49.2831 12.8079 49.3715 13.2009 49.5433L13.2194 49.5514L13.2385 49.5579L32.3979 56.1515C33.1353 56.446 33.7317 57.0124 34.0639 57.7339L34.5181 57.5249L34.0639 57.7339C34.3975 58.4588 34.4389 59.2843 34.1793 60.0389C33.9197 60.7934 33.3791 61.4187 32.6701 61.7848C31.9644 62.1492 31.1458 62.2287 30.3834 62.0073L11.249 55.4035Z" stroke="#FBAE17"/>
<path d="M34.9484 51.0722C34.9483 51.0721 34.9483 51.0721 34.9483 51.0721L18.1397 39.7376C17.501 39.2627 17.0694 38.5602 16.9344 37.7756C16.7988 36.9877 16.9729 36.1778 17.4203 35.5151C17.8678 34.8525 18.554 34.3884 19.3355 34.2197C20.1139 34.0517 20.9269 34.1897 21.6061 34.6049L38.4159 45.9276C38.4159 45.9277 38.4159 45.9277 38.416 45.9277C39.0981 46.3876 39.5697 47.0995 39.7269 47.907C39.8841 48.7145 39.7141 49.5515 39.2543 50.2337C38.7945 50.9159 38.0825 51.3875 37.2749 51.5447C36.4674 51.7019 35.6305 51.5319 34.9484 51.0722Z" stroke="#FBAE17"/>
<path d="M51.6028 34.491L51.5985 34.4811L51.5937 34.4713L42.6989 16.3106L42.6943 16.3014L42.6895 16.2924C42.4903 15.9248 42.3676 15.5207 42.3287 15.1044C42.2898 14.6881 42.3355 14.2683 42.463 13.8701C42.5906 13.4719 42.7974 13.1037 43.0709 12.7875C43.3445 12.4713 43.6792 12.2138 44.0549 12.0303C44.4305 11.8468 44.8395 11.7412 45.257 11.7199C45.6746 11.6986 46.0921 11.7619 46.4845 11.9061C46.877 12.0503 47.2362 12.2724 47.5406 12.5591C47.8449 12.8457 48.0882 13.191 48.2556 13.5741L48.26 13.584L48.2647 13.5937L57.1596 31.7544L57.1641 31.7636L57.169 31.7726C57.3681 32.1402 57.4908 32.5443 57.5297 32.9606C57.5687 33.3769 57.523 33.7968 57.3954 34.1949C57.2678 34.5931 57.0611 34.9613 56.7875 35.2775C56.5139 35.5937 56.1793 35.8512 55.8036 36.0347C55.4279 36.2182 55.019 36.3238 54.6014 36.3451C54.1839 36.3665 53.7663 36.3031 53.3739 36.1589C52.9815 36.0147 52.6223 35.7926 52.3179 35.5059C52.0135 35.2193 51.7703 34.874 51.6028 34.491Z" stroke="#FBAE17"/>
<path d="M33.511 22.2669L33.52 22.2786L33.5296 22.2897L46.8827 37.6506C47.3788 38.2784 47.613 39.0738 47.5361 39.8706C47.4589 40.6708 47.0738 41.4097 46.4621 41.9313C45.8504 42.453 45.06 42.7167 44.2576 42.6667C43.4573 42.6168 42.7075 42.2587 42.1656 41.6678L28.8659 26.3553L28.8558 26.3437L28.845 26.3327C28.5487 26.0312 28.3171 25.6722 28.1646 25.278C28.0121 24.8837 27.9419 24.4623 27.9582 24.0399C27.9745 23.6175 28.0771 23.2028 28.2595 22.8215C28.442 22.4401 28.7006 22.1001 29.0193 21.8224C29.3381 21.5447 29.7102 21.3351 30.1129 21.2065C30.5157 21.0779 30.9404 21.0331 31.3612 21.0747C31.7819 21.1163 32.1896 21.2436 32.5593 21.4486C32.929 21.6536 33.2529 21.9321 33.511 22.2669Z" stroke="#FBAE17"/>
<path d="M62.5496 29.9799L62.5479 29.9687L62.5458 29.9576L58.6823 10.0638C58.5574 9.27267 58.7436 8.46377 59.202 7.80673C59.6619 7.14754 60.3599 6.69275 61.1486 6.5383C61.9374 6.38384 62.7554 6.54179 63.43 6.97884C64.1021 7.41431 64.5795 8.09294 64.7624 8.87243L68.6249 28.7774L68.6271 28.7885L68.6297 28.7995C68.728 29.2066 68.7428 29.6295 68.6731 30.0426C68.6035 30.4556 68.4509 30.8503 68.2244 31.2027C67.998 31.5551 67.7025 31.858 67.3558 32.093L67.6364 32.5069L67.3558 32.093C67.0091 32.3281 66.6183 32.4904 66.2071 32.5703C65.7959 32.6501 65.3728 32.6458 64.9633 32.5575C64.5538 32.4693 64.1665 32.299 63.8246 32.0569C63.4828 31.8148 63.1936 31.5059 62.9744 31.1489C62.7553 30.792 62.6107 30.3943 62.5496 29.9799Z" stroke="#FBAE17"/>
<path d="M104.219 105.081C105.004 105.113 105.747 105.442 106.298 106.001L119.627 121.334C120.104 121.958 120.326 122.74 120.248 123.521C120.171 124.307 119.796 125.034 119.2 125.553C118.604 126.072 117.833 126.344 117.044 126.313C116.259 126.283 115.516 125.956 114.963 125.399L101.623 110.054C101.149 109.429 100.929 108.647 101.008 107.866C101.087 107.08 101.464 106.354 102.061 105.837C102.658 105.319 103.43 105.049 104.219 105.081Z" stroke="#FBAE17"/>
<path d="M113.51 96.5893L130.194 107.84L130.298 107.917C130.941 108.392 131.376 109.097 131.512 109.885C131.647 110.673 131.473 111.483 131.026 112.146C130.578 112.808 129.892 113.272 129.11 113.441C128.332 113.609 127.519 113.471 126.84 113.056L110.043 101.722L110.034 101.716L110.026 101.711C109.67 101.492 109.361 101.203 109.12 100.861C108.879 100.52 108.709 100.133 108.62 99.7247C108.532 99.316 108.528 98.8937 108.607 98.4832C108.686 98.0727 108.847 97.6824 109.081 97.3359C109.315 96.9894 109.617 96.6939 109.968 96.467C110.319 96.2401 110.713 96.0865 111.125 96.0156C111.537 95.9447 111.959 95.9579 112.366 96.0544C112.773 96.1509 113.156 96.3286 113.492 96.577L113.501 96.5834L113.51 96.5893Z" stroke="#FBAE17"/>
<path d="M137.236 92.2238L137.247 92.2274L137.258 92.2306C137.659 92.3489 138.033 92.5474 138.356 92.8141C138.679 93.0808 138.945 93.4102 139.137 93.7824C139.329 94.1546 139.444 94.5619 139.474 94.9796C139.505 95.3974 139.45 95.817 139.314 96.2131C139.177 96.6092 138.962 96.9736 138.681 97.2842C138.4 97.5948 138.059 97.8453 137.679 98.0205C137.298 98.1956 136.886 98.2919 136.467 98.3034C136.049 98.3149 135.632 98.2414 135.242 98.0873L135.232 98.0832L135.221 98.0795L116.051 91.4822L116.04 91.4785L116.029 91.4753C115.627 91.357 115.254 91.1586 114.931 90.8919C114.608 90.6252 114.342 90.2958 114.15 89.9236C113.958 89.5514 113.843 89.1441 113.813 88.7263C113.782 88.3085 113.837 87.8889 113.973 87.4928C114.109 87.0967 114.325 86.7324 114.606 86.4217C114.887 86.1111 115.228 85.8606 115.608 85.6855C115.989 85.5103 116.401 85.4141 116.819 85.4026C117.238 85.3911 117.655 85.4646 118.044 85.6186L118.055 85.6228L118.066 85.6264L137.236 92.2238Z" stroke="#FBAE17"/>
<path d="M119.629 73.9036L139.859 75.3183C140.679 75.3756 141.443 75.7564 141.983 76.3769C142.522 76.9974 142.793 77.8068 142.735 78.6269C142.678 79.4471 142.297 80.2109 141.677 80.7503C141.056 81.2897 140.247 81.5605 139.427 81.5031L119.196 80.0885C118.376 80.0311 117.612 79.6503 117.073 79.0298C116.533 78.4093 116.263 77.6 116.32 76.7798C116.377 75.9596 116.758 75.1958 117.379 74.6564C117.999 74.117 118.808 73.8462 119.629 73.9036Z" stroke="#FBAE17"/>
<path d="M139.221 64.344L139.203 64.3461L139.185 64.3496L119.283 68.2266C119.283 68.2266 119.283 68.2266 119.282 68.2266C118.476 68.3822 117.641 68.2116 116.961 67.7524C116.281 67.2932 115.81 66.5828 115.653 65.7772C115.497 64.9711 115.668 64.1363 116.127 63.4559C116.586 62.7753 117.297 62.3048 118.102 62.1474C118.102 62.1474 118.103 62.1474 118.103 62.1474L138.004 58.2824L138.022 58.2789L138.04 58.2741C138.451 58.1627 138.881 58.1371 139.302 58.1992C139.724 58.2612 140.128 58.4094 140.489 58.6346C140.851 58.8598 141.162 59.1571 141.404 59.508C141.646 59.8589 141.812 60.2558 141.894 60.674C141.975 61.0922 141.969 61.5227 141.877 61.9385C141.785 62.3544 141.607 62.7468 141.357 63.0912C141.106 63.4355 140.787 63.7245 140.419 63.9401C140.052 64.1556 139.644 64.2931 139.221 64.344Z" stroke="#FBAE17"/>
<path d="M113.589 51.1843L113.589 51.1842L131.799 42.3102C132.529 41.9937 133.354 41.9702 134.101 42.2449C134.851 42.5206 135.466 43.0758 135.817 43.7942C136.168 44.5127 136.228 45.3389 135.984 46.1004C135.741 46.8585 135.216 47.4941 134.517 47.8754L116.296 56.7598C116.296 56.76 116.295 56.7601 116.295 56.7602C115.557 57.1175 114.707 57.1679 113.932 56.9002C113.157 56.6324 112.519 56.0683 112.159 55.3314C111.981 54.9653 111.876 54.5675 111.851 54.1609C111.826 53.7543 111.882 53.3467 112.014 52.9616C112.147 52.5764 112.354 52.2212 112.625 51.9163C112.895 51.6113 113.222 51.3626 113.589 51.1843Z" stroke="#FBAE17"/>
<path d="M106.081 46.1416L106.08 46.141C105.547 45.5296 105.274 44.7334 105.321 43.9232C105.368 43.1148 105.729 42.3569 106.328 41.8115L121.693 28.4548L121.715 28.4355L121.735 28.4137C122.029 28.0903 122.388 27.8327 122.788 27.6577C123.188 27.4828 123.621 27.3944 124.058 27.3984C124.495 27.4024 124.926 27.4987 125.323 27.681C125.72 27.8633 126.074 28.1274 126.362 28.4562C126.65 28.7849 126.865 29.1707 126.993 29.5883C127.121 30.006 127.16 30.446 127.106 30.8796C127.052 31.3132 126.907 31.7305 126.681 32.1042C126.455 32.4779 126.152 32.7995 125.793 33.048L125.769 33.0641L125.748 33.0828L110.452 46.4472C110.451 46.4474 110.451 46.4476 110.451 46.4478C109.831 46.9859 109.022 47.2561 108.203 47.1988C107.383 47.1415 106.62 46.7612 106.081 46.1416Z" stroke="#FBAE17"/>
<path d="M102.121 38.0043L102.121 38.0047C101.662 38.6844 100.952 39.1544 100.147 39.3116C99.3423 39.4688 98.5085 39.301 97.8276 38.8452C97.16 38.3869 96.6982 37.6856 96.541 36.8912C96.3838 36.0972 96.5435 35.2732 96.9858 34.5953L108.324 17.7925L108.33 17.7839L108.335 17.775C108.554 17.4189 108.843 17.1109 109.184 16.8694C109.526 16.6279 109.912 16.458 110.321 16.3698C110.73 16.2816 111.152 16.277 111.562 16.3562C111.973 16.4354 112.363 16.5969 112.71 16.8309C113.056 17.0649 113.352 17.3665 113.579 17.7177C113.806 18.0688 113.959 18.4623 114.03 18.8743C114.101 19.2864 114.088 19.7085 113.991 20.1153C113.895 20.5221 113.717 20.9052 113.469 21.2415L113.463 21.2498L113.457 21.2583L102.121 38.0043Z" stroke="#FBAE17"/>
<path d="M90.3337 33.7844C89.596 34.1444 88.7457 34.1971 87.9692 33.9311C87.1932 33.6631 86.5552 33.0983 86.1951 32.3604C85.835 31.6226 85.7823 30.7721 86.0486 29.9955C86.0486 29.9954 86.0487 29.9953 86.0487 29.9953L92.6437 10.8221C92.9332 10.0756 93.5005 9.47002 94.2267 9.13233C94.9555 8.79342 95.7875 8.75084 96.5471 9.01357C97.3067 9.2763 97.9346 9.82381 98.2983 10.5406C98.6608 11.255 98.7326 12.082 98.4988 12.848L91.9044 32.01C91.6365 32.7862 91.0716 33.4243 90.3337 33.7844Z" stroke="#FBAE17"/>
</g>
</svg>
