<svg width="85" height="69" viewBox="0 0 85 69" fill="none" xmlns="http://www.w3.org/2000/svg">
<g opacity="0.5">
<path fill-rule="evenodd" clip-rule="evenodd" d="M41.3901 2.27232C41.4638 4.69849 41.1434 4.14007 43.2281 5.44534C40.7581 5.51778 41.3266 5.20308 39.9978 7.25078C39.9204 4.82363 40.2454 5.37944 38.1597 4.07776C40.6301 4.00413 40.0612 4.32003 41.3901 2.27232Z" fill="#FBAE17"/>
<path fill-rule="evenodd" clip-rule="evenodd" d="M60.068 2.52875C62.1424 4.06033 61.466 3.95229 63.9231 3.12851C62.3639 5.16619 62.4739 4.50175 63.3125 6.91528C61.2348 5.386 61.9121 5.48857 59.4574 6.31551C61.0158 4.27678 60.9066 4.94228 60.068 2.52875Z" fill="#FBAE17"/>
<path fill-rule="evenodd" clip-rule="evenodd" d="M32.7923 21.6298C32.7509 18.9839 33.0911 19.5976 30.8396 18.1424C33.5333 18.1017 32.9085 18.436 34.3899 16.2244C34.4353 18.8714 34.0899 18.2605 36.3426 19.7117C33.6486 19.7537 34.2737 19.4182 32.7923 21.6298Z" fill="#FBAE17"/>
<path fill-rule="evenodd" clip-rule="evenodd" d="M13.5784 30.3081C16.3198 27.9615 15.972 28.8407 15.5384 25.2928C17.9273 27.9856 17.0323 27.6439 20.6442 27.218C17.9051 29.5696 18.2456 28.6877 18.6843 32.2333C16.2936 29.5413 17.1904 29.8822 13.5784 30.3081Z" fill="#FBAE17"/>
<path fill-rule="evenodd" clip-rule="evenodd" d="M13.9966 46.0769C16.1569 47.0185 15.5341 47.0588 17.5426 45.8334C16.584 47.9553 16.543 47.3435 17.7906 49.3164C15.628 48.3775 16.2504 48.3322 14.2446 49.56C15.2023 47.4373 15.2442 48.0498 13.9966 46.0769Z" fill="#FBAE17"/>
<path fill-rule="evenodd" clip-rule="evenodd" d="M81.4796 32.4483C78.2514 30.3947 79.2628 30.4857 75.7168 31.9531C77.8076 28.7822 77.7149 29.7757 76.221 26.2926C79.4537 28.3426 78.4415 28.2597 81.9837 26.7878C79.8942 29.9602 79.9857 28.9652 81.4796 32.4483Z" fill="#FBAE17"/>
<path fill-rule="evenodd" clip-rule="evenodd" d="M2.7756 60.229C6.31249 61.8439 5.28369 61.8926 8.63382 59.9275C6.98982 63.4016 6.94015 62.391 8.94083 65.6817C5.39993 64.0713 6.42828 64.0142 3.08262 65.9833C4.72512 62.5079 4.77628 63.5197 2.7756 60.229Z" fill="#FBAE17"/>
<path fill-rule="evenodd" clip-rule="evenodd" d="M66.6855 48.3553C65.4249 50.7929 65.4151 50.071 66.7586 52.4669C64.2769 51.2287 65.0119 51.219 62.5727 52.5387C63.8302 50.0981 63.8461 50.82 62.4996 48.4271C64.9823 49.6643 64.2463 49.675 66.6855 48.3553Z" fill="#FBAE17"/>
<path fill-rule="evenodd" clip-rule="evenodd" d="M23.2474 56.7468C26.2741 58.9012 25.2972 58.7623 28.8146 57.5154C26.6213 60.4883 26.7627 59.5287 28.0322 62.9837C25.0009 60.8327 25.979 60.9637 22.465 62.2152C24.6572 59.2408 24.5169 60.2018 23.2474 56.7468Z" fill="#FBAE17"/>
<path d="M73.3254 7.80911L73.3253 7.80914L73.328 7.82031C73.7236 9.45262 73.6722 11.6004 73.2124 14.0611C72.754 16.5145 71.8963 19.2446 70.7122 22.0243C68.3421 27.5882 64.6846 33.3032 60.3745 37.3607L60.3726 37.3625C58.8475 38.8138 57.1914 40.1369 55.4229 41.3167L55.1755 41.4818L55.2025 41.778C55.4285 44.2589 55.2226 46.692 54.2741 48.7508C52.9251 51.6675 50.468 53.5715 47.9198 54.811C45.3716 56.0506 42.7706 56.6061 41.2047 56.8438L41.2009 56.8444C41.0983 56.8607 40.9931 56.8543 40.8941 56.826C40.7952 56.7976 40.7068 56.7486 40.6351 56.6847C40.5636 56.6209 40.5108 56.5444 40.4788 56.4623C40.4468 56.3803 40.4356 56.2937 40.4453 56.2084C40.4453 56.2084 40.4453 56.2083 40.4453 56.2083L41.5839 46.4033L41.648 45.8508L41.0919 45.8456C40.3299 45.8384 39.5687 45.7947 38.8114 45.7145L38.8115 45.7145L38.8049 45.7139C38.374 45.674 37.9758 45.4933 37.6776 45.2089L37.6758 45.2072L33.6573 41.414L33.6559 41.4127C33.3556 41.1315 33.1736 40.7645 33.134 40.3773L33.1341 40.3773L33.1332 40.3696C33.0484 39.6516 33.0024 38.9301 32.9951 38.2078L32.9896 37.6585L32.4433 37.7155L22.0665 38.7984C21.9629 38.8091 21.8585 38.7968 21.7619 38.7631C21.6653 38.7294 21.5808 38.6759 21.5139 38.6086L21.1595 38.9614L21.5139 38.6086C21.447 38.5415 21.3996 38.4628 21.3731 38.3796C21.3465 38.2965 21.3409 38.2095 21.3561 38.1247L21.3566 38.1217C21.8779 35.1178 23.7226 28.3474 29.9233 25.7648C32.1123 24.8622 34.7109 24.6724 37.355 24.8937L37.6314 24.9168L37.7973 24.6946C39.0432 23.0268 40.4406 21.4645 41.9737 20.0256L41.9751 20.0243C46.2714 15.961 52.4084 12.4964 58.3462 10.249C61.3121 9.12647 64.2158 8.31242 66.8008 7.87848C69.3945 7.4431 71.6307 7.3967 73.2793 7.77808L73.2819 7.77867C73.2986 7.78243 73.3103 7.78987 73.3171 7.79653L73.666 7.43885L73.3171 7.79654C73.3237 7.80296 73.3251 7.80782 73.3254 7.80911ZM49.944 25.2466C50.186 26.396 50.7819 27.4477 51.6518 28.2703C52.2287 28.817 52.9124 29.2492 53.663 29.5437C54.4136 29.8382 55.2174 29.9895 56.0285 29.9895C56.8395 29.9895 57.6433 29.8382 58.3939 29.5437C59.1445 29.2492 59.8282 28.817 60.4051 28.2703C61.275 27.4477 61.8709 26.396 62.1129 25.2466C62.3549 24.0968 62.2308 22.9053 61.7576 21.824C61.2846 20.743 60.4855 19.8236 59.4656 19.1788C58.446 18.534 57.2499 18.1914 56.0285 18.1914C54.807 18.1914 53.6109 18.534 52.5913 19.1788C51.5714 19.8236 50.7723 20.743 50.2993 21.824C49.8261 22.9053 49.702 24.0968 49.944 25.2466Z" stroke="url(#paint0_linear_121_2457)"/>
<path d="M37.4246 48.7132L37.4245 48.7132C36.6447 49.453 35.4413 49.7066 34.2081 49.9086L34.207 49.9087C31.0907 50.4116 28.2438 47.856 28.8242 44.7626L28.8243 44.762C28.9286 44.2102 29.131 43.563 29.3519 43.0111C29.4628 42.734 29.5817 42.4725 29.6999 42.2532C29.8061 42.0562 29.9324 41.8534 30.0742 41.7117C30.0725 41.7117 30.0707 41.7118 30.0689 41.7121L30.0625 41.7129L30.0625 41.7129C28.5873 41.8838 27.2191 42.5168 26.1742 43.5058L37.4246 48.7132ZM37.4246 48.7132L37.4321 48.7058M37.4246 48.7132L37.4321 48.7058M37.4321 48.7058C37.4342 48.7037 37.4357 48.7026 37.4363 48.7021L37.437 48.7017L37.4372 48.7016L37.4372 48.7016L37.4372 48.7016L37.4373 48.7016L37.4387 48.7013C37.443 48.7007 37.4542 48.7009 37.4682 48.7074C37.4746 48.7103 37.4797 48.7138 37.4834 48.7168C37.484 48.7174 37.4846 48.7179 37.4851 48.7183C37.3064 50.091 36.6467 51.3724 35.6047 52.3558L35.6039 52.3566M37.4321 48.7058L35.6039 52.3566M35.6039 52.3566C34.9963 52.9325 33.9216 53.4181 32.5714 53.8093C31.2386 54.1954 29.7061 54.4709 28.2463 54.666C26.7888 54.8608 25.4158 54.9738 24.4065 55.0381C23.9534 55.067 23.5742 55.086 23.2943 55.0982M35.6039 52.3566L23.2943 55.0982M23.2943 55.0982C23.3072 54.8368 23.3269 54.489 23.3562 54.0762C23.424 53.1221 23.5431 51.8244 23.7483 50.447C23.9538 49.0672 24.2437 47.6203 24.6496 46.3629C25.0605 45.0902 25.5694 44.0791 26.1741 43.5059L23.2943 55.0982Z" stroke="url(#paint1_linear_121_2457)"/>
</g>
<defs>
<linearGradient id="paint0_linear_121_2457" x1="47.4709" y1="7.01953" x2="47.4709" y2="57.3532" gradientUnits="userSpaceOnUse">
<stop stop-color="#FCCA67"/>
<stop stop-color="#C4C4C4"/>
<stop offset="0.0001" stop-color="#FBAE17"/>
<stop offset="1" stop-color="#FDD078"/>
<stop offset="1" stop-color="#FDD078"/>
<stop offset="1" stop-color="#FDD078"/>
</linearGradient>
<linearGradient id="paint1_linear_121_2457" x1="30.3792" y1="41.2117" x2="30.3792" y2="55.6175" gradientUnits="userSpaceOnUse">
<stop stop-color="#FCCA67"/>
<stop stop-color="#C4C4C4"/>
<stop offset="0.0001" stop-color="#FBAE17"/>
<stop offset="1" stop-color="#FDD078"/>
<stop offset="1" stop-color="#FDD078"/>
<stop offset="1" stop-color="#FDD078"/>
</linearGradient>
</defs>
</svg>
