<svg width="26" height="25" viewBox="0 0 26 25" fill="blue" xmlns="http://www.w3.org/2000/svg">
<path fill-rule="evenodd" clip-rule="evenodd" d="M10.1045 6.81435C9.8629 6.18249 9.58388 6.22758 9.39813 6.22066C9.21221 6.21391 9.04943 6.21725 8.79827 6.22127C8.58574 6.22468 8.23761 6.27853 7.93408 6.57914C7.63015 6.87925 6.77861 7.60101 6.71972 9.13074C6.66123 10.6602 7.74549 12.18 7.89692 12.3927C8.04823 12.6062 9.96741 15.9215 13.1573 17.285C16.3476 18.6481 16.3643 18.2326 16.9495 18.2021C17.5353 18.172 18.863 17.5188 19.1565 16.803C19.4499 16.0872 19.4735 15.4649 19.3988 15.3321C19.3241 15.1998 19.1151 15.1139 18.8025 14.9471C18.4895 14.7799 16.9532 13.9706 16.6651 13.8561C16.3768 13.742 16.1666 13.6827 15.9422 13.9861C15.7177 14.2886 15.0803 14.9665 14.8871 15.1673C14.6931 15.3682 14.5064 15.3869 14.1935 15.2192C13.8814 15.0525 12.8674 14.6864 11.6916 13.5832C10.7767 12.725 10.1761 11.6835 10.0021 11.3658C9.82795 11.0479 10.0009 10.8857 10.1666 10.737C10.3151 10.6027 10.4989 10.3854 10.6654 10.2097C10.831 10.034 10.8895 9.90669 11.0036 9.70284C11.1175 9.49944 11.0717 9.31601 10.9978 9.15759C10.9239 8.99922 10.3459 7.44621 10.1045 6.81435Z" fill="#2D3A6E"/>
<path d="M12.9528 1.7857C15.8037 1.7857 18.4833 2.8684 20.4976 4.83435C22.5082 6.79661 23.6156 9.40469 23.6156 12.1781C23.6156 14.9511 22.5082 17.5592 20.4976 19.5215C18.4831 21.4876 15.8036 22.5705 12.9528 22.5705C11.1483 22.5705 9.3649 22.1228 7.79526 21.2758L7.11347 20.9079L6.37234 21.1394L2.88584 22.2288L3.98509 19.0397L4.2573 18.25L3.81641 17.5378C2.81827 15.9252 2.29069 14.0718 2.29069 12.1781C2.29069 9.40469 3.39805 6.79661 5.40869 4.83429C7.42307 2.8684 10.1023 1.7857 12.9528 1.7857ZM12.9528 0C6.06194 0 0.475157 5.45203 0.475157 12.1781C0.475157 14.4788 1.12943 16.6307 2.26567 18.4664L0.0136719 24.9999L6.92199 22.8413C8.7096 23.8058 10.7655 24.3561 12.9528 24.3561C19.8446 24.3561 25.4311 18.9033 25.4311 12.1781C25.4311 5.45203 19.8446 0 12.9528 0Z" fill="#2D3A6E"/>
</svg>
